<?xml version="1.0" encoding="UTF-8"?>
<svg id="Layer_1" xmlns="http://www.w3.org/2000/svg" version="1.1" viewBox="0 0 800 800">
  <!-- Generator: Adobe Illustrator 29.8.1, SVG Export Plug-In . SVG Version: 2.1.1 Build 2)  -->
  <defs>
    <style>
      .st0 {
        fill: #a8e10c;
      }
    </style>
  </defs>
  <g id="SVGRepo_iconCarrier">
    <g id="Layer_2">
      <g>
        <path class="st0" d="M617.5,146.25l-315,78.75H117.5v37.5H42.5v175h75v37.5h45l33.75,175h91.25l-33.75-175h47.5l313.75,78.75v-116.25h41.25v-175h-41.25v-116.25h2.5ZM117.5,412.5h-50v-125h50v125ZM258.75,625h-41.25l-28.75-150h41.25l28.75,150ZM292.5,450h-151.25v-200h150v200h1.25ZM592.5,262.5h0v175h0v83.75l-275-68.75v-205l275-68.75v83.75ZM632.5,287.5v125h-16.25v-125h16.25Z"/>
        <rect class="st0" x="686.25" y="337.5" width="60" height="25"/>
        <rect class="st0" x="683.75" y="249.64" width="62.5" height="25" transform="translate(-44.69 315.2) rotate(-24.13)"/>
        <rect class="st0" x="701.38" y="406.87" width="25" height="62.5" transform="translate(22.2 910.52) rotate(-65.87)"/>
      </g>
    </g>
  </g>
</svg>