<?xml version="1.0" standalone="no"?>
<svg viewBox="0 0 200 200" xmlns="http://www.w3.org/2000/svg">
  <path fill="#FF0066" d="M41.1,-75.2C51.1,-65.5,55.4,-50,60.5,-36.5C65.7,-23,71.6,-11.5,74.3,1.6C77.1,14.7,76.7,29.4,71.7,43.1C66.8,56.9,57.2,69.8,44.5,77.9C31.8,86,15.9,89.4,0.5,88.4C-14.8,87.5,-29.6,82.2,-43.7,74.9C-57.8,67.6,-71.2,58.2,-80.4,45.4C-89.6,32.5,-94.7,16.3,-89.7,2.9C-84.7,-10.5,-69.7,-21.1,-59.5,-32.2C-49.3,-43.3,-43.9,-55,-34.8,-65.2C-25.7,-75.5,-12.8,-84.3,1.4,-86.6C15.6,-89,31.2,-85,41.1,-75.2Z" transform="translate(100 100)" />
</svg>
