<?xml version="1.0" encoding="UTF-8"?>
<svg id="Layer_1" data-name="Layer 1" xmlns="http://www.w3.org/2000/svg" viewBox="0 0 1973.47 621.68">
  <defs>
    <style>
      .cls-1 {
        fill: #d6437e;
      }

      .cls-2 {
        fill: #ef8b0a;
      }

      .cls-3 {
        fill: #e75750;
      }
    </style>
  </defs>
  <g>
    <path class="cls-3" d="M458.27.02c-2.4,2.55-4.93,4.57-7.85,6.51-.45.31-.9.61-1.37.93-1.02.69-2.05,1.38-3.07,2.08-1.91,1.29-3.82,2.59-5.72,3.89-28.19,19.23-56.91,37.62-85.99,55.48-3.78,2.32-7.54,4.65-11.31,6.99-4.8,2.98-9.61,5.92-14.44,8.85-5.93,3.6-11.82,7.25-17.69,10.94-4.21,2.64-8.43,5.24-12.66,7.83-6.96,4.26-13.87,8.6-20.68,13.1-3.01,1.99-6.04,3.94-9.11,5.83-7.21,4.46-14.22,9.2-21.24,13.97-2.43,1.65-4.86,3.29-7.29,4.93-.6.41-1.21.82-1.83,1.24-4.74,3.21-9.5,6.38-14.26,9.55-5.74,3.82-11.45,7.68-17.17,11.54-12.8,8.65-25.64,17.25-38.51,25.8-2.77,1.84-5.53,3.68-8.3,5.53,3.06-.47,6.12-.94,9.18-1.41,1.15-.18,2.3-.35,3.45-.53,7.19-1.1,14.37-2.22,21.55-3.39,14.55-2.35,29.1-4.53,43.74-6.28q1.01-.12,2.04-.25,93.23-11.16,124.77,13.14c6.43,5.52,10.91,12.3,11.77,20.89.64,12.91-2.37,24.16-7.49,35.91-.23.54-.46,1.07-.7,1.62-6.54,14.87-15.28,28.56-24.67,41.78-.35.5-.71,1-1.07,1.51-7.8,11.02-16.13,21.61-24.69,32.05-.85,1.04-1.7,2.09-2.55,3.13-3.72,4.58-7.54,9.05-11.39,13.52-1.02,1.19-2.03,2.38-3.04,3.57-3.98,4.68-8.05,9.25-12.24,13.74-1.37,1.48-2.71,2.98-4.03,4.51-2.64,3.05-5.4,5.97-8.16,8.91-2.53,2.7-5.04,5.42-7.53,8.16-2.43,2.66-4.91,5.23-7.48,7.75-1.12,1.14-2.15,2.3-3.17,3.53-4.31,4.96-9.11,9.48-13.78,14.1q-6.2,6.11-12.03,12.56c-1.89,2.17-3.94,4.19-5.98,6.21-.41.41-.82.83-1.25,1.26-2.04,2.04-4.11,4-6.3,5.87-2.84,2.47-5.5,5.09-8.14,7.77-.48.49-.97.97-1.47,1.47-1.53,1.54-3.06,3.08-4.59,4.62-2.02,2.03-4.03,4.06-6.05,6.09-.45.46-.9.92-1.37,1.39-2.6,2.61-5.26,5.09-8.06,7.48-2.06,1.81-3.97,3.78-5.89,5.74-2.81,2.84-5.64,5.58-8.69,8.17-2.08,1.85-4,3.84-5.95,5.82-2.18,2.2-4.44,4.25-6.8,6.26-1.79,1.58-3.45,3.28-5.1,5-1.3,1.26-2.63,2.46-4,3.64-2.84,2.47-5.58,5.03-8.31,7.62-4.82,4.56-9.68,9.08-14.56,13.56q-.5.46-1.02.94c-1.67,1.53-3.34,3.06-5.01,4.59-1.35,1.23-2.69,2.46-4.03,3.7-3.07,2.82-6.15,5.64-9.26,8.43-2.62,2.35-5.22,4.74-7.8,7.14-2.68,2.49-5.39,4.93-8.16,7.32-1.96,1.73-3.87,3.5-5.78,5.28-2.71,2.51-5.44,4.99-8.24,7.41-1.96,1.73-3.87,3.5-5.78,5.28-2.73,2.53-5.48,5.02-8.29,7.46-2.15,1.89-4.25,3.83-6.35,5.77-3.75,3.45-7.55,6.85-11.34,10.26-4.04,3.63-8.05,7.29-12.05,10.96-1.68,1.54-3.35,3.08-5.03,4.61l-1.97,1.81-10.05,9.21c-.44-.22-.88-.44-1.34-.67.4-.55.79-1.1,1.2-1.67,3.04-4.23,6.04-8.47,8.98-12.77,3.95-5.77,7.96-11.5,11.98-17.23,1.2-1.71,2.4-3.43,3.6-5.14,3.97-5.67,7.94-11.34,11.94-17,3.74-5.3,7.46-10.62,11.18-15.93,1.2-1.72,2.41-3.44,3.61-5.15,3.82-5.45,7.63-10.91,11.39-16.4,1.82-2.65,3.65-5.29,5.48-7.92.46-.66.92-1.32,1.4-2,.89-1.28,1.79-2.56,2.68-3.83,3.33-4.77,6.56-9.6,9.78-14.44,1.27-1.91,2.54-3.81,3.81-5.71,1.35-2.02,2.7-4.04,4.05-6.06.68-1.02,1.36-2.04,2.04-3.06,4.86-7.27,9.65-14.57,14.38-21.93.43-.67.87-1.35,1.31-2.04,17.82-27.82,34.69-56.2,50.1-85.43.4-.75.8-1.5,1.21-2.27,5.59-10.54,10.82-21.21,15.75-32.08,1.08-2.39,2.18-4.77,3.27-7.15,3.7-8.12,7.25-16.28,10.58-24.56q.43-1.07.87-2.16c3.66-9.24,7-18.6,10.4-27.93-.73.1-1.46.2-2.21.31-7.02.98-14.03,1.95-21.05,2.92-3.6.5-7.21,1-10.81,1.5-15.17,2.11-30.34,4.15-45.57,5.84-.6.07-1.2.13-1.81.2-21.08,2.35-42.24,3.59-63.45,3.93q-.93.02-1.88.03c-3.38.05-6.76.04-10.14-.03q-.89-.02-1.8-.04c-18.71-.43-35.85-3.61-49.61-17.32q-.72-.7-1.46-1.41c-5.96-6.17-9.12-14.19-9.43-22.71.52-22.04,15.67-42.83,28.92-59.34.44-.56.88-1.12,1.34-1.7,5.21-6.6,10.67-12.99,16.37-19.18,1.28-1.41,2.54-2.84,3.79-4.28,2.42-2.77,4.9-5.46,7.42-8.14.46-.49.92-.97,1.39-1.47,4.88-5.16,9.88-10.2,14.91-15.21,1.54-1.54,3.08-3.08,4.62-4.62,1-1,2-2,3-2.99.45-.45.9-.9,1.36-1.37,2.62-2.6,5.31-5.09,8.11-7.49,1.33-1.16,2.57-2.38,3.8-3.65,2.04-2.07,4.16-3.99,6.37-5.89,2.26-2,4.45-4.07,6.65-6.13,2.99-2.8,5.99-5.59,9.1-8.26,1.51-1.31,2.99-2.66,4.47-4.01,2.3-2.08,4.64-4.07,7.05-6.01,2.68-2.17,5.24-4.42,7.76-6.76,3.02-2.81,6.15-5.46,9.36-8.05,2.37-1.95,4.69-3.96,7-5.97,3.4-2.96,6.84-5.88,10.34-8.72,2.57-2.09,5.13-4.2,7.68-6.3.98-.81,1.97-1.62,2.95-2.43,1.59-1.31,3.19-2.63,4.78-3.94,1.17-.96,2.34-1.92,3.52-2.86,1.29-1.05,2.53-2.12,3.77-3.22.71-.6,1.42-1.21,2.13-1.81.62-.54,1.23-1.08,1.86-1.64,2.29-1.5,4.54-1.9,7.22-2.38.46-.08.93-.17,1.41-.25,6.73-1.19,13.48-2.23,20.24-3.29,1.54-.24,3.08-.49,4.62-.73,4.18-.66,8.36-1.32,12.55-1.97,4.01-.63,8.03-1.26,12.04-1.89,8.04-1.27,16.08-2.53,24.12-3.79,7.6-1.19,15.2-2.39,22.8-3.59.46-.07.92-.14,1.39-.22,2.77-.44,5.55-.87,8.32-1.31,11.12-1.75,22.24-3.5,33.36-5.25,3.71-.58,7.42-1.16,11.13-1.75.93-.15,1.85-.29,2.78-.44,13.35-2.1,26.71-4.2,40.06-6.32,6.15-.97,12.31-1.95,18.46-2.92,4.5-.71,8.99-1.42,13.49-2.14,4.16-.66,8.32-1.32,12.48-1.97,1.52-.24,3.04-.48,4.56-.72,2.07-.33,4.14-.66,6.21-.98.6-.1,1.2-.19,1.81-.29,3.17-.49,6.18-.75,9.39-.65Z"/>
    <path class="cls-2" d="M458.27.02c-2.4,2.55-4.93,4.57-7.85,6.51-.45.31-.9.61-1.37.93-1.02.69-2.05,1.38-3.07,2.08-1.91,1.29-3.82,2.59-5.72,3.89-28.19,19.23-56.91,37.62-85.99,55.48-3.78,2.32-7.54,4.65-11.31,6.99-4.8,2.98-9.61,5.92-14.44,8.85-5.93,3.6-11.82,7.25-17.69,10.94-4.21,2.64-8.43,5.24-12.66,7.83-6.96,4.26-13.87,8.6-20.68,13.1-3.01,1.99-6.04,3.94-9.11,5.83-7.21,4.46-14.22,9.2-21.24,13.97-2.43,1.65-4.86,3.29-7.29,4.93-.6.41-1.21.82-1.83,1.24-4.74,3.21-9.5,6.38-14.26,9.55-5.74,3.82-11.45,7.68-17.17,11.54-9.98,6.74-19.97,13.46-29.98,20.14-.49.32-.97.65-1.47.98-5.54,3.7-11.1,7.35-16.72,10.92-5.08,3.31-9.5,7.27-13.93,11.4-1.52,1.42-3.08,2.79-4.65,4.16-6.85,5.97-13.62,12.12-19.45,19.11-.31.37-.62.74-.94,1.12-8.87,10.6-17.54,21.9-16.57,36.34.54,4.59,2.97,7.75,6.33,10.75,10.89,7.95,24.87,9.59,37.89,11.23-2.46,1.64-4.6,1.74-7.46,2-.55.05-1.1.11-1.66.16-1.8.17-3.6.34-5.4.5-1.25.12-2.5.24-3.76.35-22.06,2.05-44.35,3.48-66.52,2.99q-.89-.02-1.8-.04c-18.71-.43-35.85-3.61-49.61-17.32q-.72-.7-1.46-1.41c-5.96-6.17-9.12-14.19-9.43-22.71.52-22.04,15.67-42.83,28.92-59.34.44-.56.88-1.12,1.34-1.7,5.21-6.6,10.67-12.99,16.37-19.18,1.28-1.41,2.54-2.84,3.79-4.28,2.42-2.77,4.9-5.46,7.42-8.14.46-.49.92-.97,1.39-1.47,4.88-5.16,9.88-10.2,14.91-15.21,1.54-1.54,3.08-3.08,4.62-4.62,1-1,2-2,3-2.99.45-.45.9-.9,1.36-1.37,2.62-2.6,5.31-5.09,8.11-7.49,1.33-1.16,2.57-2.38,3.8-3.65,2.04-2.07,4.16-3.99,6.37-5.89,2.26-2,4.45-4.07,6.65-6.13,2.99-2.8,5.99-5.59,9.1-8.26,1.51-1.31,2.99-2.66,4.47-4.01,2.3-2.08,4.64-4.07,7.05-6.01,2.68-2.17,5.24-4.42,7.76-6.76,3.02-2.81,6.15-5.46,9.36-8.05,2.37-1.95,4.69-3.96,7-5.97,3.4-2.96,6.84-5.88,10.34-8.72,2.57-2.09,5.13-4.2,7.68-6.3.98-.81,1.97-1.62,2.95-2.43,1.59-1.31,3.19-2.63,4.78-3.94,1.17-.96,2.34-1.92,3.52-2.86,1.29-1.05,2.53-2.12,3.77-3.22.71-.6,1.42-1.21,2.13-1.81.62-.54,1.23-1.08,1.86-1.64,2.29-1.5,4.54-1.9,7.22-2.38.46-.08.93-.17,1.41-.25,6.73-1.19,13.48-2.23,20.24-3.29,1.54-.24,3.08-.49,4.62-.73,4.18-.66,8.36-1.32,12.55-1.97,4.01-.63,8.03-1.26,12.04-1.89,8.04-1.27,16.08-2.53,24.12-3.79,7.6-1.19,15.2-2.39,22.8-3.59.46-.07.92-.14,1.39-.22,2.77-.44,5.55-.87,8.32-1.31,11.12-1.75,22.24-3.5,33.36-5.25,3.71-.58,7.42-1.16,11.13-1.75.93-.15,1.85-.29,2.78-.44,13.35-2.1,26.71-4.2,40.06-6.32,6.15-.97,12.31-1.95,18.46-2.92,4.5-.71,8.99-1.42,13.49-2.14,4.16-.66,8.32-1.32,12.48-1.97,1.52-.24,3.04-.48,4.56-.72,2.07-.33,4.14-.66,6.21-.98.6-.1,1.2-.19,1.81-.29,3.17-.49,6.18-.75,9.39-.65Z"/>
    <path class="cls-1" d="M241.55,278.34q.84,0,1.7,0c20.35.04,44.63.58,60.65,14.94,5.58,5.95,7.8,13.77,7.64,21.73-1.01,13.17-7.01,26.59-14.19,37.57-.16.49-.32.99-.48,1.5-1.27,2.71-3.25,4.59-5.32,6.72-.86.9-1.72,1.8-2.57,2.7-.41.43-.81.85-1.23,1.29-1.17,1.24-2.3,2.51-3.41,3.81-2.6,3.02-5.35,5.91-8.07,8.82-2.53,2.7-5.04,5.42-7.53,8.16-2.43,2.66-4.91,5.23-7.48,7.75-1.12,1.14-2.15,2.3-3.17,3.53-4.31,4.96-9.11,9.48-13.78,14.1q-6.2,6.11-12.03,12.56c-1.89,2.17-3.94,4.19-5.98,6.21-.41.41-.82.83-1.25,1.26-2.04,2.04-4.11,4-6.3,5.87-2.84,2.47-5.5,5.09-8.14,7.77-.48.49-.97.97-1.47,1.47-1.53,1.54-3.06,3.08-4.59,4.62-2.02,2.03-4.03,4.06-6.05,6.09q-.68.69-1.37,1.39c-2.6,2.61-5.26,5.09-8.06,7.48-2.06,1.81-3.97,3.78-5.89,5.74-2.81,2.84-5.64,5.58-8.69,8.17-2.08,1.85-4,3.84-5.95,5.82-2.18,2.2-4.44,4.25-6.8,6.26-1.79,1.58-3.45,3.28-5.1,5-1.3,1.26-2.63,2.46-4,3.64-2.84,2.47-5.58,5.03-8.31,7.62-4.82,4.56-9.68,9.08-14.56,13.56-.34.31-.67.62-1.02.94-1.67,1.53-3.34,3.06-5.01,4.59-1.35,1.23-2.69,2.46-4.03,3.7-3.07,2.82-6.15,5.64-9.26,8.43-2.62,2.35-5.22,4.74-7.8,7.14-2.68,2.49-5.39,4.93-8.16,7.32-1.96,1.73-3.87,3.5-5.78,5.28-2.71,2.51-5.44,4.99-8.24,7.41-1.96,1.73-3.87,3.5-5.78,5.28-2.73,2.53-5.48,5.02-8.29,7.46-2.15,1.89-4.25,3.83-6.35,5.77-3.75,3.45-7.55,6.85-11.34,10.26-4.04,3.63-8.05,7.29-12.05,10.96-1.68,1.54-3.35,3.08-5.03,4.61l-1.97,1.81-10.05,9.21c-.44-.22-.88-.44-1.34-.67.4-.55.79-1.1,1.2-1.67,3.04-4.23,6.04-8.47,8.98-12.77,3.95-5.77,7.96-11.5,11.98-17.23,1.2-1.71,2.4-3.43,3.6-5.14,3.97-5.67,7.94-11.34,11.94-17,3.74-5.3,7.46-10.62,11.18-15.93,1.2-1.72,2.41-3.44,3.61-5.15,3.82-5.45,7.63-10.91,11.39-16.4,1.82-2.65,3.65-5.29,5.48-7.92.46-.66.92-1.32,1.4-2,.89-1.28,1.79-2.56,2.68-3.83,3.33-4.77,6.56-9.6,9.78-14.44,1.27-1.91,2.54-3.81,3.81-5.71,1.35-2.02,2.7-4.04,4.05-6.06.68-1.02,1.36-2.04,2.04-3.06,4.86-7.27,9.65-14.57,14.38-21.93.43-.67.87-1.35,1.31-2.04,17.82-27.82,34.69-56.2,50.1-85.43.4-.75.8-1.5,1.21-2.27,5.59-10.54,10.82-21.21,15.75-32.08,1.08-2.39,2.18-4.77,3.27-7.15,7.23-15.85,13.66-31.97,19.53-48.37.29-.79.57-1.59.87-2.41.25-.7.5-1.4.76-2.12q.7-1.75,2.03-3.75c6.67-1.41,14.18-.8,20.99-.79Z"/>
  </g>
  <g>
    <path d="M579.61,190.81h47.66v205.93h-47.66v-205.93Z"/>
    <path d="M803.19,361.44v35.3h-141.21v-27.65l80.61-95.32h-78.55v-35.3h136.5v27.65l-80.61,95.32h83.26Z"/>
    <path d="M962.93,361.44v35.3h-141.21v-27.65l80.61-95.32h-78.55v-35.3h136.5v27.65l-80.61,95.32h83.26Z"/>
    <path d="M1146.51,238.47l-71.49,167.98c-15.3,38.25-37.07,49.72-65.6,49.72-16.18,0-33.83-5.3-44.13-14.42l16.77-32.65c7.06,6.18,16.77,10,25.89,10,12.65,0,19.71-5.59,25.89-19.71l.59-1.47-68.55-159.45h47.36l44.42,107.38,44.72-107.38h44.13Z"/>
    <path d="M1430.4,265.53c0,45.89-34.42,74.43-89.43,74.43h-41.48v56.78h-47.66v-205.93h89.14c55.01,0,89.43,28.54,89.43,74.72ZM1382.15,265.53c0-22.65-14.71-35.89-43.83-35.89h-38.83v71.49h38.83c29.12,0,43.83-13.24,43.83-35.6Z"/>
    <path d="M1559.25,236.11v42.36c-3.83-.29-6.77-.59-10.3-.59-25.3,0-42.07,13.83-42.07,44.13v74.72h-45.89v-158.27h43.83v20.89c11.18-15.3,30.01-23.24,54.43-23.24Z"/>
    <path d="M1581.02,190.81c0-14.42,11.47-25.59,28.54-25.59s28.54,10.59,28.54,24.71c0,15.3-11.47,26.48-28.54,26.48s-28.54-11.18-28.54-25.59ZM1586.61,238.47h45.89v158.27h-45.89v-158.27Z"/>
    <path d="M1663.39,317.6c0-47.66,36.77-81.49,87.08-81.49s86.79,33.83,86.79,81.49-36.48,81.49-86.79,81.49-87.08-33.83-87.08-81.49ZM1790.78,317.6c0-27.36-17.36-43.83-40.3-43.83s-40.6,16.47-40.6,43.83,17.65,43.83,40.6,43.83,40.3-16.47,40.3-43.83Z"/>
    <path d="M1966.11,236.11v42.36c-3.82-.29-6.77-.59-10.3-.59-25.3,0-42.07,13.83-42.07,44.13v74.72h-45.89v-158.27h43.83v20.89c11.18-15.3,30.01-23.24,54.42-23.24Z"/>
  </g>
</svg>