<?xml version="1.0" encoding="UTF-8"?>
<svg id="Layer_1" xmlns="http://www.w3.org/2000/svg" version="1.1" viewBox="0 0 800 800">
  <!-- Generator: Adobe Illustrator 29.8.1, SVG Export Plug-In . SVG Version: 2.1.1 Build 2)  -->
  <defs>
    <style>
      .st0 {
        fill: #a8e10c;
      }
    </style>
  </defs>
  <g id="SVGRepo_iconCarrier">
    <g id="Layer_2">
      <g>
        <path class="st0" d="M212.5,178.75v500h375V178.75H212.5ZM237.5,653.75V203.75h325v450H237.5Z"/>
        <rect class="st0" x="268.75" y="267.5" width="131.25" height="25"/>
        <path class="st0" d="M543.75,87.5v-25h-287.5v25h-87.5v650h462.5V87.5h-87.5ZM281.25,87.5h237.5v26.25h-237.5v-26.25ZM606.25,712.5H193.75V112.5h62.5v25h287.5v-25h62.5v600Z"/>
        <rect class="st0" x="268.75" y="393.75" width="131.25" height="25"/>
        <path class="st0" d="M432.5,456.25h100v-100h-100v100ZM457.5,381.25h50v50h-50v-50Z"/>
        <rect class="st0" x="268.75" y="520" width="131.25" height="25"/>
        <path class="st0" d="M432.5,582.5h100v-100h-100v100ZM457.5,507.5h50v50h-50v-50Z"/>
        <path class="st0" d="M540,222.5l-8.75,7.5h-98.75v100h100v-66.25l25-23.75-17.5-17.5ZM457.5,255h48.75l-17.5,16.25-8.75-8.75-20,16.25,22.5,27.5h-26.25v-51.25h1.25ZM507.5,305h-17.5l17.5-16.25v16.25Z"/>
      </g>
    </g>
  </g>
</svg>