<svg width="1357" height="108" viewBox="0 0 1357 108" fill="none" xmlns="http://www.w3.org/2000/svg">
<g clip-path="url(#clip0_4_10)">
<g clip-path="url(#clip1_4_10)">
<g clip-path="url(#clip2_4_10)">
<g clip-path="url(#clip3_4_10)">
<mask id="mask0_4_10" style="mask-type:luminance" maskUnits="userSpaceOnUse" x="-46" y="39" width="117" height="31">
<path d="M70.6799 39.375H-45.1951V69.75H70.6799V39.375Z" fill="white"/>
</mask>
<g mask="url(#mask0_4_10)">
<path d="M51.6404 64.0823C53.0332 63.1296 53.2818 62.0946 53.2818 60.534C53.2818 59.499 52.9668 58.267 52.6518 57.6099L51.8227 56.0327L51.0599 54.7349C49.5839 52.1229 49.4838 49.9216 49.584 48.1145C49.7831 44.5333 51.7068 41.3791 53.3977 39.9828C53.5473 39.8514 53.697 39.7363 53.8455 39.6213C47.2957 40.8699 42.3198 46.636 42.3198 53.5357C42.3198 57.3962 43.8791 60.8953 46.3833 63.4581C48.6221 65.3965 50.4626 64.8874 51.6404 64.0823Z" fill="#95989D"/>
<path d="M63.3832 48.1145C63.4833 49.9216 63.3832 52.1229 61.9072 54.7349L61.1444 56.0327L60.3153 57.6099C60.0172 58.267 59.6853 59.5154 59.6853 60.534C59.6853 62.111 59.9508 63.146 61.3267 64.0823C62.5372 64.9202 64.4609 65.4294 66.7998 63.2445C69.1882 60.7146 70.6642 57.2812 70.6642 53.5357C70.6642 46.6196 65.6725 40.837 59.1048 39.6213C59.2544 39.7363 59.4029 39.8514 59.5694 39.9828C61.2772 41.3791 63.184 44.5169 63.3832 48.1145Z" fill="#95989D"/>
<path d="M53.1502 53.5524L53.8803 54.8173L54.8253 56.5914C55.2404 57.4622 55.6713 59.0721 55.6713 60.5177C55.6713 62.3412 55.3563 64.4111 52.9848 66.0375C52.6361 66.2675 52.1388 66.5631 51.5414 66.7932C53.0838 67.3682 54.7589 67.6967 56.5004 67.6967C58.2419 67.6967 59.9002 67.3846 61.4426 66.8096C60.8294 66.5795 60.3311 66.2839 59.9834 66.0539C57.6277 64.4275 57.2969 62.3576 57.2969 60.5341C57.2969 59.0885 57.7447 57.4786 58.1418 56.6079L59.0879 54.8337L59.8169 53.5688C60.9948 51.5153 61.0781 49.8068 60.9779 48.2626C60.8126 45.1906 59.1206 42.7264 58.0259 41.8393C57.4454 41.3629 56.9313 40.9687 56.4678 40.6565C56.0032 40.9687 55.4891 41.3629 54.9086 41.8393C53.8466 42.7264 52.1557 45.1742 51.9892 48.2462C51.8902 49.7904 51.9734 51.4988 53.1502 53.5524ZM55.1741 43.2028C55.8041 43.2028 56.3013 43.7121 56.3013 44.3199C56.3013 44.9442 55.8041 45.437 55.1741 45.437C54.5598 45.437 54.0457 44.9278 54.0457 44.3199C54.0457 43.7121 54.5441 43.2028 55.1741 43.2028Z" fill="#95989D"/>
<path d="M11.9226 49.9873H-2.34001L-2.12435 48.7881H12.1382L12.5362 46.439H-4.09793L-5.14272 52.353H9.1198L8.92079 53.503H-5.35838L-5.75641 55.8685H10.8777L11.9226 49.9873Z" fill="#95989D"/>
<path d="M28.0575 55.8685H30.429L32.1207 46.439H17.8581L19.1351 39.375H16.747L13.7949 55.8685H16.183L17.4435 48.7881H29.3178L28.0575 55.8685Z" fill="#95989D"/>
<path d="M38.2236 41.7407H35.8022L35.3545 44.0898H37.7593L38.2236 41.7407Z" fill="#95989D"/>
<path d="M33.3154 55.8685H35.6539L37.3454 46.439H35.0071L33.3154 55.8685Z" fill="#95989D"/>
<path d="M5.28806 60.6818C3.9447 60.6818 3.36419 61.1582 3.08227 62.4889L3.03254 62.7517C2.88326 63.4581 2.91644 63.9181 3.16518 64.2138C3.48029 64.5916 4.0608 64.6409 4.54173 64.6409H7.94148C8.12395 64.6409 8.17369 64.6573 8.17369 64.6737C8.17369 64.6902 8.20687 64.7723 8.14049 65.0516L7.99132 65.7909C7.89176 66.2837 7.80885 66.3001 7.49373 66.3001H3.81205C3.18183 66.3001 2.86672 66.2673 2.55161 66.1852L2.28622 66.1194L2.26968 66.3987L2.20331 67.1215L2.18677 67.3679H2.4355H7.444C8.60489 67.3679 9.23512 66.9737 9.41748 66.1194L9.66633 64.9695C9.81551 64.2631 9.76578 63.8031 9.51705 63.5073C9.26831 63.2117 8.85363 63.0803 8.14049 63.0803H4.8403C4.65783 63.0803 4.60811 63.0639 4.60811 63.0474C4.59146 63.031 4.57492 62.9489 4.6413 62.6695L4.72421 62.2425C4.82366 61.7496 4.89003 61.7332 5.22168 61.7332H8.80391C9.43413 61.7332 9.73259 61.7661 10.0644 61.8482L10.3463 61.9139L10.3628 61.6347L10.396 60.8954L10.4125 60.6489H10.1638H5.28806V60.6818Z" fill="#95989D"/>
<path d="M17.9909 60.6817H14.5247C14.3091 60.6817 14.1599 60.7146 14.0106 60.7638L14.4418 58.7104L14.5081 58.4312H14.2262H12.9824H12.7336L12.7502 58.6775C12.7668 59.0061 12.717 59.3346 12.6009 59.9425L11.3571 65.7744C11.2244 66.3986 11.1249 66.7107 10.9757 67.0557L10.8264 67.3842H11.1913H12.5512H12.7999L12.7834 67.1379C12.7668 66.8093 12.7999 66.4808 12.9326 65.8729L13.6955 62.2589C13.795 61.766 13.8613 61.7496 14.193 61.7496H17.7919C17.9742 61.7496 18.0241 61.766 18.0241 61.7824C18.0241 61.7988 18.0571 61.881 17.9909 62.1602L17.228 65.7744C17.0953 66.3822 17.0123 66.6943 16.8465 67.0557L16.6972 67.3842H17.0621H18.4221H18.6708L18.6542 67.1379C18.6376 66.7928 18.6874 66.4808 18.8035 65.8729L19.5001 62.5874C19.6492 61.881 19.5995 61.421 19.3508 61.1089C19.1352 60.8131 18.704 60.6817 17.9909 60.6817Z" fill="#95989D"/>
<path d="M27.4273 60.6819H23.6461C22.3027 60.6819 21.7223 61.1583 21.4404 62.489L20.8102 65.4953C20.6609 66.2017 20.6941 66.6616 20.9428 66.9574C21.2579 67.3351 21.8384 67.3844 22.3193 67.3844H26.1171C27.4605 67.3844 28.041 66.9081 28.3229 65.5774L28.9531 62.5875C29.1023 61.8811 29.0691 61.4211 28.8204 61.1255C28.5551 60.8133 28.1404 60.6819 27.4273 60.6819ZM26.167 66.3167H22.5184C22.3359 66.3167 22.2862 66.3002 22.2862 66.2838C22.2696 66.2674 22.253 66.2017 22.3193 65.8895L23.0987 62.259C23.1983 61.7662 23.2812 61.7497 23.5963 61.7497H27.2449C27.4273 61.7497 27.477 61.7662 27.477 61.7826C27.4937 61.799 27.5102 61.8811 27.4439 62.1604L26.681 65.791C26.565 66.3002 26.4986 66.3167 26.167 66.3167Z" fill="#95989D"/>
<path d="M36.6643 60.6819H33.3807C33.2479 60.6819 32.9328 60.6819 32.6509 60.8297L32.6675 60.6819H32.4187H31.3076H31.0754L31.092 60.9284C31.1086 61.2733 31.0588 61.6019 30.9427 62.2097L29.6823 68.1566C29.5496 68.7643 29.4667 69.0929 29.3008 69.4379L29.1516 69.7665H29.5165H30.8764H31.1251L31.1086 69.5201C31.092 69.1915 31.1251 68.8794 31.2578 68.2387C31.2578 68.2387 31.3739 67.6802 31.4734 67.253C31.6226 67.3351 31.8383 67.3844 32.1534 67.3844H35.437C36.7472 67.3844 37.3277 66.9081 37.593 65.5774L38.2232 62.5875C38.3725 61.8811 38.3228 61.4211 38.074 61.1255C37.8418 60.8133 37.4106 60.6819 36.6643 60.6819ZM31.7387 65.9059L32.5017 62.2754C32.6011 61.7826 32.684 61.7662 32.9992 61.7662H36.515C36.6975 61.7662 36.7472 61.7826 36.7472 61.799C36.7639 61.8154 36.7804 61.8976 36.714 62.1768L35.9512 65.8074C35.8517 66.3002 35.7853 66.3167 35.4537 66.3167H31.9377C31.7554 66.3167 31.7056 66.3002 31.7056 66.2838C31.689 66.2674 31.6724 66.2017 31.7387 65.9059Z" fill="#95989D"/>
<path d="M68.5581 65.2652C68.5581 65.413 68.458 65.446 68.2431 65.446H68.0766V65.1009H68.3095C68.4918 65.1009 68.5581 65.1502 68.5581 65.2652ZM68.89 66.2345L68.8731 66.2016L68.5244 65.6595C68.7404 65.6102 68.8563 65.4788 68.8563 65.2816C68.8563 65.0024 68.6909 64.871 68.359 64.871H67.8449H67.8111V64.9038V66.218V66.2509H67.8449H68.044H68.0766V66.218V65.6923H68.2431L68.5908 66.2345L68.6076 66.2509H68.6245H68.8394H68.8731C68.7235 66.3987 68.5075 66.4808 68.2758 66.4808C67.7616 66.4808 67.3803 66.0865 67.3803 65.5445C67.3803 65.0188 67.7616 64.6245 68.2758 64.6245C68.773 64.6245 69.1713 65.0352 69.1713 65.5445C69.1713 65.8237 69.0723 66.0701 68.89 66.2345ZM68.2758 64.3945C67.6289 64.3945 67.0979 64.9202 67.0979 65.5609C67.0979 66.218 67.612 66.7272 68.2758 66.7272C68.9395 66.7272 69.4537 66.218 69.4537 65.5609C69.4537 64.9038 68.9226 64.3945 68.2758 64.3945Z" fill="#95989D"/>
</g>
</g>
</g>
<g clip-path="url(#clip4_4_10)">
<g clip-path="url(#clip5_4_10)">
<mask id="mask1_4_10" style="mask-type:luminance" maskUnits="userSpaceOnUse" x="150" y="21" width="103" height="53">
<path d="M252.446 21.7783H150.939V73.7406H252.446V21.7783Z" fill="white"/>
</mask>
<g mask="url(#mask1_4_10)">
<path d="M178.289 50.7513C178.867 52.3259 180.077 53.3232 181.708 53.3232C183.075 53.3232 184.285 52.5883 184.285 51.1712C184.285 50.174 183.601 49.3867 182.233 48.9143L180.288 48.2319C177.868 47.3922 176.501 45.975 176.501 43.718C176.501 40.9362 178.657 39.0991 181.55 39.0991C183.864 39.0991 185.968 40.5163 186.757 42.6683L184.39 43.8755C183.916 42.6683 182.97 41.671 181.602 41.671C180.288 41.671 179.393 42.4058 179.393 43.5081C179.393 44.5053 180.077 45.0827 181.392 45.6076L183.391 46.3949C185.915 47.3922 187.177 48.8092 187.177 50.9612C187.177 54.058 184.653 55.895 181.708 55.895C179.078 56 176.711 54.3204 175.87 51.8535L178.289 50.7513Z" fill="#95989D"/>
<path d="M192.225 40.9885V44.3478H195.223V46.6046H192.225V51.6959C192.225 52.9556 192.804 53.4805 194.014 53.4805C194.435 53.4805 194.908 53.3756 195.276 53.1131V55.475C194.645 55.7899 193.961 55.9474 193.225 55.8949C190.911 55.8949 189.596 54.5303 189.596 52.1158V46.6046H187.913V44.3478H189.596V40.9885H192.225Z" fill="#95989D"/>
<path d="M202.166 53.533C204.112 53.5856 205.742 52.0634 205.795 50.1214C205.847 48.1794 204.322 46.5523 202.376 46.4998C200.43 46.4473 198.8 47.9695 198.747 49.9114C198.747 49.964 198.747 50.0164 198.747 50.0164C198.747 51.9585 200.22 53.533 202.166 53.533ZM208.109 44.3479V55.685H205.479V54.058C204.585 55.2652 203.165 55.9999 201.64 55.9999C198.484 55.9999 196.117 53.3756 196.117 50.0689C196.117 46.7622 198.537 44.1378 201.64 44.1378C203.165 44.0854 204.585 44.7677 205.479 45.9749V44.4003L208.109 44.3479Z" fill="#95989D"/>
<path d="M216.737 46.9196C216.526 46.8146 216.263 46.8146 216.053 46.8146C214.054 46.8146 212.897 48.3368 212.897 50.6986V55.6849H210.215V44.3477H212.845V46.2897C213.423 44.9775 214.791 44.0853 216.211 44.1377C216.526 44.1377 216.684 44.1377 216.737 44.1902V46.9196Z" fill="#95989D"/>
<path d="M222.625 40.9885V44.3477H225.623V46.6046H222.625V51.6959C222.625 52.9556 223.203 53.4804 224.413 53.4804C224.834 53.4804 225.307 53.3755 225.675 53.113V55.4749C225.044 55.7899 224.36 55.9473 223.624 55.8949C221.31 55.8949 219.995 54.5302 219.995 52.1158V46.6046H218.312V44.3477H219.995V40.9885H222.625Z" fill="#95989D"/>
<path d="M235.353 44.3478H238.035V55.685H235.353V54.1629C234.617 55.3176 233.302 55.9999 231.882 55.9475C229.147 55.9475 227.569 54.1104 227.569 51.1711V21.7783H230.251V50.6987C230.251 52.4833 231.145 53.533 232.724 53.533C234.301 53.533 235.353 52.3259 235.353 50.3838V44.3478Z" fill="#95989D"/>
<path d="M246.344 46.4995C244.398 46.447 242.768 47.9691 242.715 49.9112C242.662 51.8532 244.188 53.4803 246.134 53.5328C248.08 53.5853 249.71 52.0632 249.763 50.1211C249.763 50.0687 249.763 50.0687 249.763 50.0162C249.815 48.1266 248.29 46.5521 246.397 46.4995H246.344ZM243.031 44.3475V45.9746C243.924 44.7675 245.345 44.0326 246.87 44.0852C250.025 44.0852 252.392 46.657 252.392 50.0162C252.392 53.3753 249.973 55.9472 246.87 55.9472C245.345 55.9997 243.924 55.3174 243.031 54.1102V73.373H240.348V44.3475H243.031Z" fill="#95989D"/>
<path d="M232.251 71.2738C234.196 71.3263 235.827 69.8042 235.879 67.8621C235.932 65.9201 234.407 64.293 232.461 64.2405C230.515 64.1881 228.885 65.7102 228.832 67.6522C228.832 67.7047 228.832 67.7571 228.832 67.7571C228.779 69.6467 230.305 71.2213 232.251 71.2738ZM238.194 62.0886V73.4258H235.564V71.7987C234.67 73.0058 233.25 73.7407 231.725 73.7407C228.569 73.7407 226.202 71.1164 226.202 67.8097C226.202 64.5029 228.622 61.8785 231.725 61.8785C233.25 61.8261 234.67 62.5084 235.564 63.7157V62.141L238.194 62.0886Z" fill="#95989D"/>
<path d="M169.032 57.2598V73.4782H166.297V61.9311L160.88 73.4782H159.039L153.674 61.9311V73.4258H150.939V57.2598H154.305L160.038 69.5417L165.771 57.2598H169.032Z" fill="#95989D"/>
<path d="M173.396 67.7572C173.448 69.6466 175.026 71.0638 176.92 71.0114C178.813 70.9588 180.233 69.3843 180.18 67.4947C180.128 65.6576 178.603 64.2406 176.814 64.2406C174.921 64.2406 173.396 65.8151 173.448 67.7047C173.396 67.7572 173.396 67.7572 173.396 67.7572ZM182.863 67.7572C182.915 71.1163 180.233 73.8457 176.92 73.8981C173.554 73.9507 170.819 71.2738 170.766 67.9671C170.714 64.6604 173.396 61.8786 176.709 61.8261C176.762 61.8261 176.762 61.8261 176.814 61.8261C180.075 61.7211 182.758 64.293 182.863 67.5472C182.863 67.5997 182.863 67.7047 182.863 67.7572Z" fill="#95989D"/>
<path d="M187.334 73.4257H184.599V62.0884H187.282V63.6105C188.071 62.4558 189.385 61.7735 190.753 61.8261C193.54 61.8261 195.171 63.6631 195.171 66.6024V73.4257H192.488V67.1272C192.488 65.3427 191.594 64.293 189.964 64.293C188.386 64.293 187.282 65.5001 187.282 67.4422L187.334 73.4257Z" fill="#95989D"/>
<path d="M200.958 58.7292V62.0885H203.955V64.3454H200.958V69.4367C200.958 70.6963 201.536 71.2212 202.746 71.2212C203.166 71.2212 203.64 71.1163 204.008 70.8538V73.2158C203.377 73.6356 202.641 73.7406 201.957 73.7406C199.643 73.7406 198.328 72.3759 198.328 69.9616V64.3454H196.645V62.0885H198.328V58.7292H200.958Z" fill="#95989D"/>
<path d="M212.527 64.6605C212.316 64.5555 212.053 64.5555 211.843 64.5555C209.844 64.5555 208.687 66.0776 208.687 68.4396V73.4258H206.005V62.0886H208.635V64.0306C209.213 62.7185 210.581 61.8261 212.001 61.8787C212.316 61.8787 212.474 61.8787 212.527 61.9311V64.6605Z" fill="#95989D"/>
<path d="M217.628 60.4613L219.837 57.3645H222.783L219.995 60.4613H217.628ZM222.099 66.6548C221.941 65.1326 220.626 63.9779 219.048 64.0304C217.523 64.0829 216.261 65.1852 215.998 66.6548H222.099ZM224.36 70.8013C223.361 72.6908 221.362 73.8455 219.259 73.7406C215.787 73.7406 213.368 71.2737 213.368 67.8095C213.368 64.3978 215.893 61.8785 219.153 61.8785C222.467 61.8785 224.834 64.4503 224.834 67.8095C224.834 68.0194 224.834 68.2818 224.834 68.5967H216.103C216.261 70.2764 217.681 71.536 219.364 71.4836C220.836 71.4836 221.625 70.7487 222.257 69.7515L224.36 70.8013Z" fill="#95989D"/>
<path d="M232.251 71.2738C234.196 71.3263 235.827 69.8042 235.879 67.8621C235.932 65.9201 234.407 64.293 232.461 64.2405C230.515 64.1881 228.885 65.7102 228.832 67.6522C228.832 67.7047 228.832 67.7571 228.832 67.7571C228.779 69.6467 230.305 71.2213 232.251 71.2738ZM238.194 62.0886V73.4258H235.564V71.7987C234.67 73.0058 233.25 73.7407 231.725 73.7407C228.569 73.7407 226.202 71.1164 226.202 67.8097C226.202 64.5029 228.622 61.8785 231.725 61.8785C233.25 61.8261 234.67 62.5084 235.564 63.7157V62.141L238.194 62.0886Z" fill="#95989D"/>
</g>
</g>
</g>
<g clip-path="url(#clip6_4_10)">
<g clip-path="url(#clip7_4_10)">
<path d="M348.712 40.4224C349.072 40.7118 349.327 41.111 349.461 41.6368C349.519 41.8682 349.529 42.1129 349.549 42.3524C349.599 42.9387 349.643 43.5252 349.686 44.112C349.713 44.4868 349.728 44.8624 349.758 45.2369C349.797 45.745 349.847 46.2522 349.888 46.7602C349.916 47.1011 349.936 47.4425 349.962 47.7835C350.005 48.3477 350.052 48.9116 350.095 49.4758C350.121 49.8224 350.141 50.1696 350.168 50.5161C350.21 51.0578 350.256 51.5991 350.299 52.1408C350.325 52.4705 350.347 52.8005 350.372 53.1304C350.416 53.7057 350.463 54.2809 350.506 54.8564C350.532 55.203 350.551 55.5501 350.578 55.8966C350.62 56.4383 350.667 56.9797 350.71 57.5213C350.736 57.8621 350.757 58.2036 350.783 58.5446C350.827 59.1087 350.874 59.6725 350.916 60.2367C350.943 60.6002 350.961 60.9643 350.989 61.3277C351.03 61.8638 351.078 62.3994 351.12 62.9354C351.147 63.282 351.168 63.6291 351.194 63.9757C351.237 64.5454 351.284 65.1149 351.327 65.6847C351.353 66.0201 351.373 66.3559 351.399 66.6912C351.443 67.2609 351.491 67.8304 351.533 68.4002C351.561 68.775 351.577 69.1505 351.605 69.5251C351.646 70.0613 351.694 70.5968 351.738 71.1327C351.762 71.44 351.787 71.7472 351.807 72.0548C351.844 72.6256 351.877 73.1968 351.912 73.7677C351.949 74.3722 351.73 74.8944 351.363 75.3585C350.848 76.0097 350.175 76.4281 349.361 76.619C349.301 76.6331 349.236 76.6277 349.174 76.6313C349.115 76.6423 349.056 76.6631 348.997 76.6631C338.095 76.6645 327.194 76.6645 316.292 76.663C316.233 76.663 316.174 76.6423 316.115 76.6313C315.591 76.6113 315.097 76.4936 314.704 76.1284C314.29 75.7431 314.2 75.2417 314.287 74.7145C314.329 74.4643 314.434 74.2182 314.546 73.9869C315.105 72.8279 315.678 71.6748 316.244 70.5187C316.72 69.5454 317.194 68.5708 317.67 67.5969C318.162 66.5875 318.656 65.5786 319.149 64.5692C319.617 63.6107 320.084 62.6516 320.552 61.6929C321.043 60.6886 321.533 59.6844 322.024 58.6803C322.377 57.9602 322.73 57.2406 323.082 56.5205C323.583 55.4963 324.083 54.4717 324.584 53.4474C325.1 52.3927 325.617 51.3383 326.133 50.2837L324.795 49.1438C321.09 56.7221 317.385 64.3003 313.681 71.879C313.374 72.5073 313.063 73.1346 312.787 73.7762C312.666 74.0553 312.63 74.3696 312.555 74.6678C312.555 74.8935 312.555 75.1191 312.555 75.3447C312.616 75.6065 312.654 75.8768 312.744 76.1287C313.149 77.2682 314.012 77.9049 315.162 78.1768C315.595 78.2792 316.052 78.3221 316.498 78.3224C327.3 78.3302 338.101 78.3305 348.903 78.3262C350.427 78.3255 351.626 77.6321 352.597 76.5217C353.297 75.7205 353.667 74.7804 353.617 73.7115C353.576 72.8504 353.496 71.9912 353.433 71.1313C353.383 70.4512 353.333 69.7712 353.282 69.0911C353.206 68.0909 353.129 67.0907 353.054 66.0904C352.992 65.2755 352.933 64.4605 352.871 63.6456C352.795 62.6454 352.718 61.6453 352.642 60.645C352.58 59.8301 352.522 59.015 352.46 58.2002C352.373 57.0652 352.285 55.9303 352.198 54.7952C352.136 53.9859 352.077 53.1766 352.015 52.3674C351.94 51.384 351.862 50.4009 351.787 49.4175C351.726 48.614 351.666 47.8103 351.605 47.0067C351.517 45.866 351.429 44.7255 351.341 43.5849C351.295 42.9779 351.264 42.3694 351.198 41.7645C351.04 40.3 350.26 39.2541 348.943 38.5975C348.633 38.4432 348.311 38.3351 347.979 38.2644L348.712 40.4224Z" fill="#95989D"/>
<path d="M338.07 29.25C338.385 29.2997 338.701 29.3439 339.015 29.4002C340.698 29.7016 342.204 30.4109 343.572 31.4183C345.357 32.733 346.807 34.3541 347.914 36.2765C348.138 36.6667 348.314 37.0847 348.513 37.49C348.777 38.2366 349.042 38.9832 349.306 39.7298C349.32 39.8001 349.331 39.8709 349.348 39.9405C349.744 41.6172 349.734 43.2722 349.057 44.8832C348.931 45.1844 348.755 45.468 348.577 45.7432C348.427 45.9745 348.191 46.0647 347.91 46.0693C347.54 46.0756 347.258 45.8971 346.969 45.6995C346.86 45.6253 346.697 45.6304 346.559 45.5994C346.559 45.7284 346.526 45.8684 346.564 45.9846C346.912 47.036 347.175 48.1066 347.317 49.2056C347.456 50.281 347.497 51.3599 347.221 52.4167C346.669 54.5338 345.288 55.9056 343.273 56.6661C342.519 56.9508 341.733 57.0544 340.925 56.936C340.3 56.8447 339.81 56.5086 339.34 56.1213C338.992 55.8349 338.99 55.8438 339.097 55.4175C339.441 54.0505 339.652 52.6719 339.405 51.2622C339.291 50.6131 339.093 49.9933 338.666 49.4726C338.373 49.1151 337.999 48.9458 337.53 48.9834C337.065 49.0207 336.656 49.1914 336.353 49.5382C336.12 49.8054 335.909 50.1061 335.755 50.4241C335.352 51.2506 335.197 52.1422 335.199 53.0555C335.201 53.9209 335.126 54.7755 334.968 55.6255C334.939 55.7807 334.935 55.9587 334.981 56.1066C335.389 57.3984 335.808 58.6868 336.234 59.9727C336.261 60.0533 336.364 60.1396 336.449 60.165C337.518 60.4857 338.276 61.5113 338.297 62.6284C338.316 63.6514 337.904 64.469 337.112 65.0672C336.514 65.519 335.868 65.9179 335.208 66.2733C334.04 66.9011 332.988 67.6684 332.054 68.6095C331.615 69.0522 331.143 69.4647 330.663 69.8628C330.475 70.0181 330.235 70.1317 330 70.2035C328.861 70.5521 327.596 70.0757 326.926 68.9922C326.589 68.448 326.334 67.8466 326.096 67.2495C325.682 66.2094 325.126 65.2685 324.347 64.4596C324.054 64.1548 323.771 63.8369 323.511 63.5034C322.56 62.2848 322.801 60.7596 324.072 59.907C324.589 59.5605 325.168 59.374 325.78 59.305C326.005 59.2797 326.098 59.217 326.103 58.9728C326.11 58.637 326.177 58.3029 326.211 57.9672C326.451 55.5931 326.847 53.2478 327.5 50.9493C327.665 50.3673 327.654 50.367 327.063 50.217C326.032 49.9555 325.109 49.4793 324.282 48.8134C323.768 48.2264 323.254 47.6392 322.74 47.0521C322.326 46.3151 321.866 45.6001 321.51 44.8365C320.849 43.4206 320.502 41.9196 320.576 40.3482C320.695 37.8048 321.541 35.5607 323.436 33.7975C324.62 32.6968 326.036 32.1557 327.668 32.1669C328.129 32.1701 328.345 32.636 328.174 32.9561C328.035 33.2145 327.888 33.4769 327.807 33.7557C327.724 34.0446 327.698 34.3547 327.684 34.6572C327.677 34.8189 327.786 34.9897 327.959 34.9913C328.076 34.9923 328.226 34.8969 328.304 34.7989C328.814 34.1595 329.276 33.4804 329.813 32.8651C330.94 31.5709 332.273 30.5426 333.884 29.9063C334.716 29.5776 335.578 29.3713 336.47 29.2909C336.516 29.2868 336.56 29.2642 336.605 29.2502C337.093 29.2502 337.582 29.25 338.07 29.25ZM334.888 60.2746C335.152 60.1858 335.416 60.097 335.703 60.0004C335.257 58.3039 334.59 56.6536 333.683 55.101C333.806 55.7694 333.929 56.4379 334.052 57.1063C334.02 57.1169 333.988 57.1275 333.956 57.1381C333.771 56.7934 333.586 56.4487 333.4 56.1041C333.342 56.2148 333.332 56.3124 333.313 56.4083C333.118 57.3938 332.918 58.3769 332.377 59.2508C332.247 59.4612 332.338 59.6091 332.578 59.6609C333.039 59.7602 333.501 59.8602 333.958 59.979C334.053 60.0037 334.126 60.1109 334.209 60.1801C334.112 60.1933 334.012 60.2272 333.917 60.2165C333.126 60.1272 332.337 60.024 331.546 59.9358C329.888 59.7509 328.227 59.6537 326.563 59.8629C325.849 59.9528 325.147 60.1021 324.516 60.4729C324.08 60.7285 323.763 61.0769 323.625 61.5824C323.429 62.2961 323.595 62.9345 324.057 63.4741C324.418 63.8964 324.835 64.277 325.261 64.6363C326.036 65.2898 326.962 65.7543 327.639 66.5432C327.936 66.2613 328.295 66.1161 328.675 66.03C329.185 65.9141 329.699 65.8143 330.214 65.726C331.119 65.571 332.036 65.4431 332.879 65.0666C333.846 64.635 334.611 64.009 334.655 62.8247C334.657 62.7742 334.755 62.6842 334.807 62.6856C335.147 62.6947 335.609 63.1775 335.626 63.5222C335.638 63.7626 335.561 63.8394 335.337 63.7669C335.111 63.694 334.98 63.7612 334.86 63.9595C334.347 64.8068 333.612 65.387 332.656 65.6403C331.882 65.8456 331.086 65.9712 330.306 66.158C329.366 66.383 328.349 66.4363 327.656 67.2704C327.223 66.7542 326.704 66.3479 326.103 66.0153C326.201 66.8334 326.733 68.0886 327.274 68.7336C327.475 68.9738 327.697 69.2071 327.947 69.3936C328.657 69.924 329.472 69.9241 330.31 69.3488C330.809 69.0055 331.273 68.5987 331.708 68.1746C332.567 67.3362 333.504 66.6164 334.576 66.067C335.047 65.8254 335.502 65.5468 335.942 65.2515C336.69 64.7486 337.223 64.0776 337.487 63.1962C337.804 62.1376 337.285 61.0677 336.303 60.7228C335.906 60.5833 335.49 60.4966 335.084 60.3802C335.015 60.3601 334.953 60.3104 334.888 60.2746ZM334.347 54.8254C334.369 54.8245 334.391 54.8236 334.414 54.8227C334.455 54.7369 334.522 54.6545 334.534 54.5649C334.586 54.161 334.635 53.756 334.664 53.3499C334.692 52.9352 334.664 52.5147 334.716 52.1037C334.844 51.0938 335.13 50.1324 335.799 49.3359C336.381 48.6434 337.13 48.3189 338.038 48.4831C338.595 48.5838 338.998 48.9546 339.349 49.373C340.477 50.7165 340.795 52.2891 340.633 53.9925C340.573 54.6208 340.504 55.2481 340.443 55.8762C340.411 56.2003 340.479 56.2939 340.795 56.3918C341.309 56.5506 341.833 56.5365 342.351 56.4401C344.453 56.0491 346.895 54.1492 346.948 51.0199C346.979 49.2595 346.618 47.572 346.066 45.9137C345.999 45.7137 345.958 45.493 345.964 45.2835C345.981 44.659 346.576 44.3036 347.118 44.6017C347.391 44.7519 347.631 44.9651 347.875 45.1636C348.073 45.3248 348.25 45.327 348.415 45.1325C348.469 45.0678 348.514 44.991 348.548 44.9131C349.075 43.7157 349.26 42.466 349.096 41.1687C348.88 39.4638 348.275 37.8886 347.445 36.3984C346.937 35.486 346.295 34.6629 345.598 33.8857C344.304 32.442 342.83 31.232 341.029 30.4713C338.822 29.5395 336.575 29.4431 334.31 30.238C332.204 30.9767 330.584 32.3558 329.29 34.1435C328.979 34.5735 328.711 35.0346 328.405 35.468C328.174 35.7942 327.859 35.9085 327.521 35.7914C327.2 35.6805 326.994 35.4207 326.836 35.1339C326.461 34.4504 326.571 33.7626 326.845 33.0789C326.944 32.8315 326.892 32.7365 326.628 32.7098C326.557 32.7028 326.484 32.7115 326.414 32.7228C325.756 32.8286 325.172 33.1228 324.619 33.4718C323.297 34.3049 322.408 35.5025 321.799 36.919C321.08 38.5892 320.852 40.3308 321.153 42.1238C321.49 44.1303 322.379 45.8882 323.646 47.4688C324.645 48.7164 325.902 49.5287 327.481 49.836C327.766 49.8916 327.971 49.8373 328.17 49.62C328.521 49.2355 329.068 49.2493 329.42 49.6264C329.494 49.7052 329.57 49.7815 329.639 49.8637C329.764 50.0111 329.873 50.023 330.001 49.8595C330.17 49.6452 330.342 49.4318 330.534 49.2391C330.887 48.8842 331.358 48.8077 331.77 49.088C332.017 49.256 332.266 49.4874 332.395 49.749C332.702 50.3703 332.958 51.0191 333.198 51.6706C333.546 52.6194 333.861 53.5808 334.194 54.5354C334.23 54.6373 334.295 54.7289 334.347 54.8254ZM327.713 53.0772C327.864 53.0172 327.967 52.972 328.073 52.9345C328.584 52.7539 328.886 52.8292 329.246 53.2341C329.36 53.3625 329.474 53.4951 329.563 53.6411C329.74 53.9322 329.824 53.8758 329.94 53.6282C330.039 53.4165 330.176 53.2161 330.327 53.0366C330.769 52.512 331.388 52.4205 331.968 52.7818C332.126 52.8802 332.267 53.0063 332.426 53.1027C332.519 53.159 332.632 53.1818 332.736 53.2197C332.773 53.109 332.846 52.9957 332.839 52.8879C332.818 52.5814 332.786 52.2722 332.719 51.9728C332.566 51.2861 332.382 50.6063 331.977 50.0146C331.682 49.5835 331.178 49.3485 330.712 49.9581C330.564 50.1514 330.408 50.3425 330.232 50.509C329.98 50.7475 329.68 50.7402 329.42 50.5094C329.313 50.4144 329.222 50.3016 329.124 50.1975C328.917 49.9794 328.732 49.9547 328.549 50.1902C328.383 50.4057 328.243 50.6613 328.164 50.9214C328.042 51.3244 327.98 51.746 327.895 52.1602C327.835 52.4516 327.779 52.7436 327.713 53.0772ZM330.88 58.5753C330.88 58.391 330.868 58.2464 330.882 58.1048C330.932 57.6287 330.952 57.1447 331.058 56.6805C331.176 56.1599 331.52 55.8135 332.075 55.7326C332.208 55.7133 332.344 55.7178 332.487 55.7109C332.495 55.6589 332.508 55.6171 332.505 55.5767C332.435 54.7597 332.213 53.995 331.663 53.3663C331.176 52.8103 330.74 52.8883 330.445 53.5634C330.219 54.082 330.12 54.6329 330.077 55.1915C330.009 56.0903 330.022 56.9845 330.349 57.8437C330.454 58.1193 330.594 58.3731 330.88 58.5753ZM327.425 57.9058C327.476 57.6986 327.513 57.5397 327.555 57.3828C327.68 56.9248 327.815 56.4695 328.125 56.0947C328.411 55.7477 328.787 55.6801 329.16 55.8968C329.439 56.0585 329.541 56.0061 329.571 55.6807C329.579 55.5883 329.579 55.4935 329.57 55.4011C329.515 54.8363 329.346 54.3059 329.058 53.8179C328.972 53.6717 328.86 53.5328 328.734 53.4196C328.47 53.1825 328.172 53.1806 327.93 53.438C327.75 53.628 327.593 53.8506 327.475 54.0837C327.176 54.6732 327.034 55.3106 327 55.9686C326.966 56.63 327.051 57.2706 327.425 57.9058ZM329.624 57.7452C329.357 58.2758 329.114 58.7559 328.853 59.274C329.359 59.3179 329.824 59.4274 330.339 59.3304C330.099 58.7986 329.871 58.293 329.624 57.7452ZM326.718 57.756C326.694 57.7543 326.67 57.7528 326.645 57.7511C326.509 58.2461 326.373 58.7411 326.236 59.2362H327.497C327.086 58.7966 326.762 58.3498 326.718 57.756Z" fill="#95989D"/>
<path d="M345.595 65.4264C345.681 65.372 345.739 65.3365 345.796 65.2983C346.225 65.0102 346.628 65.031 347.025 65.3686C347.351 65.6456 347.592 65.9934 347.716 66.3899C347.828 66.7483 348.005 66.913 348.398 66.9704C349.055 67.0664 349.384 67.5357 349.52 68.1451C349.702 68.9592 349.59 69.7628 349.412 70.5615C349.054 72.1633 348.266 73.5543 347.22 74.8118C347.081 74.9796 346.878 75.1086 346.682 75.2171C346.269 75.4463 345.864 75.3008 345.746 74.8469C345.668 74.5437 345.694 74.2131 345.686 73.8943C345.683 73.7778 345.713 73.6605 345.73 73.5316C345.528 73.6045 345.35 73.6916 345.162 73.7331C344.276 73.9281 343.632 73.3024 343.849 72.4393C343.947 72.0496 344.121 71.6781 344.262 71.2945C343.61 70.9314 342.705 71.3124 342.5 72.0522C342.441 72.2676 342.384 72.487 342.292 72.6901C342.028 73.2778 341.626 73.4554 340.993 73.2876C340.523 73.1631 340.193 72.8695 339.968 72.4569C339.633 71.8436 339.572 71.181 339.604 70.4986C339.656 69.3865 340.179 68.457 340.793 67.5727C341.218 66.9602 341.685 66.3733 342.163 65.7997C342.771 65.072 343.115 64.2576 343.1 63.3138C343.084 62.3817 343.03 61.45 343.023 60.518C343.018 59.8666 343.056 59.2129 343.314 58.5969C343.566 57.9949 343.942 57.513 344.623 57.3441C345.286 57.1798 345.894 57.4347 346.219 58.0261C346.53 58.5922 346.605 59.2035 346.447 59.8206C346.232 60.6679 345.963 61.502 345.738 62.3473C345.472 63.3483 345.4 64.3624 345.595 65.4264ZM346.738 71.293L346.734 71.2893C346.734 71.3237 346.74 71.3594 346.733 71.3923C346.627 71.8997 346.511 72.405 346.417 72.9142C346.34 73.3272 346.271 73.7435 346.238 74.1613C346.227 74.29 346.314 74.469 346.417 74.5467C346.473 74.5894 346.661 74.4763 346.782 74.4179C346.835 74.3922 346.871 74.3288 346.912 74.2808C347.734 73.3241 348.311 72.2414 348.643 71.0326C348.859 70.2451 349.026 69.4488 348.958 68.6278C348.938 68.3885 348.874 68.1429 348.778 67.9219C348.652 67.6317 348.374 67.5685 348.077 67.5913C347.812 67.6117 347.698 67.7228 347.606 68.0265C347.586 68.0923 347.565 68.1579 347.529 68.2744C347.458 67.8325 347.409 67.4498 347.333 67.0725C347.247 66.6492 347.105 66.244 346.762 65.9459C346.602 65.8063 346.402 65.7117 346.193 65.8046C345.994 65.8929 346.046 66.0989 346.041 66.272C346.009 67.3576 345.974 68.4418 345.643 69.4936C345.385 70.3118 345.048 71.0952 344.666 71.8638C344.533 72.1298 344.444 72.4254 344.39 72.7174C344.339 72.9918 344.492 73.1794 344.776 73.1845C344.984 73.1882 345.229 73.1381 345.392 73.0226C345.628 72.8548 345.827 72.6223 346.002 72.3886C346.265 72.0365 346.494 71.6595 346.738 71.293ZM344.632 70.8288C344.714 70.691 344.795 70.5679 344.863 70.438C345.423 69.3676 345.583 68.2196 345.538 67.0331C345.536 66.9925 345.525 66.9494 345.508 66.9126C345.166 66.2031 345.036 65.4462 345.009 64.6709C344.973 63.6302 345.04 62.6028 345.371 61.5984C345.583 60.9539 345.753 60.2938 345.898 59.6313C346.003 59.1503 345.952 58.6667 345.675 58.2319C345.519 57.9868 345.296 57.8617 344.998 57.8632C344.59 57.8652 344.293 58.0599 344.071 58.3786C343.81 58.7522 343.664 59.1778 343.657 59.6211C343.639 60.6994 343.628 61.7798 343.676 62.8567C343.732 64.1198 343.395 65.2214 342.571 66.206C341.983 66.9076 341.449 67.6558 340.935 68.4115C340.374 69.2354 340.068 70.1523 340.193 71.1565C340.238 71.5178 340.36 71.8765 340.496 72.2178C340.595 72.4692 340.814 72.6436 341.088 72.7306C341.473 72.853 341.649 72.7807 341.795 72.4169C341.857 72.2615 341.881 72.0911 341.943 71.9357C342.021 71.742 342.092 71.5371 342.215 71.3714C342.707 70.7065 343.581 70.3185 344.632 70.8288Z" fill="#95989D"/>
<path d="M333.474 71.7755C333.431 72.5372 333.39 73.299 333.342 74.0603C333.323 74.3557 333.264 74.3832 333.01 74.2336C331.821 73.5306 330.63 72.8302 329.444 72.12C329.241 71.9982 329.073 71.9853 328.86 72.1026C327.879 72.6419 326.891 73.1677 325.903 73.6926C325.821 73.7361 325.717 73.7376 325.623 73.7586C325.607 73.6634 325.572 73.5666 325.579 73.473C325.676 72.2155 325.778 70.9585 325.879 69.7013C325.896 69.4944 325.975 69.4447 326.168 69.5571C326.678 69.8522 327.176 70.1671 327.684 70.4634C328.136 70.7269 328.597 70.9737 329.051 71.2331C329.172 71.3016 329.274 71.2944 329.397 71.2352C330.66 70.6278 331.926 70.0258 333.191 69.4222C333.23 69.4034 333.269 69.3827 333.309 69.3653C333.538 69.2649 333.602 69.3054 333.589 69.5561C333.554 70.252 333.513 70.9476 333.475 71.6434C333.472 71.6872 333.474 71.7314 333.474 71.7755Z" fill="#95989D"/>
<path d="M335.592 72.3193C336.146 72.3187 336.598 72.7719 336.594 73.3233C336.591 73.8679 336.143 74.319 335.603 74.3225C335.051 74.3261 334.597 73.8787 334.591 73.3249C334.586 72.7742 335.038 72.32 335.592 72.3193ZM336.412 73.3156C336.411 72.8525 336.038 72.4746 335.585 72.479C335.142 72.4832 334.774 72.8612 334.772 73.3132C334.77 73.7715 335.147 74.1632 335.592 74.1639C336.039 74.1645 336.413 73.7782 336.412 73.3156Z" fill="#95989D"/>
<path d="M343.262 74.9434C343.265 74.9218 343.267 74.9001 343.264 74.9279C343.278 74.9038 343.268 74.9214 343.257 74.9391L343.262 74.9434Z" fill="#95989D"/>
<path d="M334.793 73.5151V74.2934C334.723 74.3019 334.664 74.3091 334.591 74.318V72.3352C334.789 72.3352 334.989 72.2899 335.176 72.3524C335.286 72.3891 335.434 72.5728 335.458 72.736C335.483 72.8975 335.377 73.1184 335.322 73.3085C335.308 73.3557 335.271 73.3837 335.237 73.4315C335.356 73.6953 335.471 73.9497 335.593 74.2208C335.48 74.3674 335.393 74.3628 335.315 74.1596C335.258 74.0103 335.186 73.8762 335.133 73.7229C335.059 73.5081 334.961 73.4222 334.793 73.5151ZM334.798 73.3939C334.97 73.2537 335.106 73.1697 335.219 73.0327C335.253 72.9921 335.247 72.7183 335.218 72.6944C335.093 72.5917 334.953 72.5424 334.798 72.4632V73.3939Z" fill="#95989D"/>
<path d="M393.002 58.3732C392.597 59.9416 392.188 61.5226 391.781 63.1042C391.456 64.3654 391.12 65.6242 390.817 66.8907C390.742 67.2016 390.628 67.3117 390.305 67.3113C381.856 67.3025 373.408 67.3043 364.959 67.3029C364.869 67.3029 364.779 67.284 364.639 67.2682C364.737 66.8515 364.793 66.4426 364.943 66.0733C364.998 65.9395 365.28 65.8303 365.459 65.8289C367.653 65.8124 369.849 65.8182 372.044 65.8182C376.028 65.8182 380.013 65.8182 383.997 65.8182C386.112 65.8182 386.27 65.6857 386.791 63.6424C387.768 59.8015 388.758 55.9635 389.741 52.1239C389.769 52.0158 389.789 51.9057 389.814 51.7967C389.975 51.0761 389.841 50.8547 389.131 50.6791C388.955 50.6357 388.776 50.605 388.542 50.5569C388.629 50.2006 388.686 49.8543 388.806 49.5318C388.847 49.4211 389.045 49.303 389.172 49.3021C391.181 49.2878 393.19 49.2921 395.298 49.2921C394.665 51.7789 394.044 54.2146 393.409 56.7075C393.61 56.726 393.765 56.752 393.919 56.7523C395.285 56.7555 396.65 56.7358 398.014 56.7655C398.414 56.7742 398.551 56.6282 398.642 56.2642C399.177 54.1155 399.75 51.9766 400.269 49.824C400.376 49.3777 400.562 49.2772 400.978 49.2824C402.693 49.3039 404.409 49.2914 406.125 49.2914C406.305 49.2914 406.485 49.2914 406.707 49.2914C406.672 49.4971 406.63 49.6401 406.628 49.7836C406.619 50.329 406.441 50.6692 405.82 50.7005C405.111 50.736 404.78 51.2209 404.612 51.883C403.662 55.6158 402.698 59.345 401.741 63.0758C401.616 63.5625 401.496 64.0503 401.379 64.5391C401.173 65.3989 401.296 65.5836 402.164 65.7517C402.268 65.7718 402.367 65.8147 402.502 65.8578C402.379 66.3477 402.263 66.8087 402.144 67.2822H395.832C396.596 64.3006 397.349 61.3591 398.113 58.3732H393.002Z" fill="#95989D"/>
<path d="M419.727 67.3058C420.312 64.9203 420.877 62.6184 421.443 60.3169C422.196 57.2512 422.952 54.186 423.704 51.12C423.744 50.9577 423.772 50.7898 423.786 50.6226C423.826 50.1322 423.639 49.8683 423.163 49.8977C423.01 49.907 422.856 49.8991 422.708 49.8991C422.694 49.8329 422.673 49.7953 422.681 49.7652C422.926 48.7113 422.929 48.7343 423.946 48.6594C425.373 48.5543 426.8 48.4103 428.227 48.2849C428.325 48.2763 428.424 48.2838 428.591 48.2838C427.812 51.2877 427.044 54.2526 426.277 57.2175C426.308 57.2371 426.341 57.2566 426.372 57.2762C426.801 56.8536 427.212 56.4084 427.66 56.0128C428.829 54.9803 430.093 54.1545 431.652 54.067C432.536 54.0174 432.978 54.3167 433.352 55.2171C433.841 56.3992 433.82 57.633 433.602 58.8697C432.717 63.8615 428.981 67.2509 424.307 67.3032C422.806 67.32 421.306 67.3058 419.727 67.3058ZM429.418 58.8045C429.408 58.5606 429.418 58.2378 429.373 57.9243C429.27 57.2102 428.827 56.9061 428.268 57.2766C427.72 57.6394 427.189 58.1019 426.787 58.6414C425.292 60.6468 424.632 63.0562 424.145 65.5311C424.122 65.6487 424.245 65.8893 424.348 65.9326C424.911 66.1666 425.512 66.2681 426.04 65.8914C426.553 65.5256 427.073 65.1239 427.474 64.6267C428.791 62.9936 429.339 61.0261 429.418 58.8045Z" fill="#95989D"/>
<path d="M419.73 54.5322C419.359 55.8462 419.016 57.0627 418.672 58.2788C418.213 59.9004 417.74 61.5187 417.304 63.1455C417.225 63.4408 417.291 63.77 417.29 64.0835C417.672 64.0484 418.053 64.0133 418.516 63.9706C418.598 64.1756 418.723 64.4897 418.869 64.8559C418.156 65.2071 417.462 65.5515 416.765 65.8916C415.959 66.2847 415.151 66.6741 414.343 67.0655C413.575 67.4384 412.607 67.1459 412.387 66.3598C412.227 65.7887 412.259 65.1518 412.315 64.5529C412.362 64.0421 412.564 63.5436 412.611 62.9946C412.506 63.1095 412.4 63.2244 412.295 63.3396C410.501 65.2992 408.381 66.7763 405.594 67.2526C404.195 67.4918 403.555 67.0055 403.733 65.6861C403.877 64.6203 404.216 63.5743 404.51 62.5296C404.971 60.8903 405.473 59.2606 405.946 57.6244C406.206 56.7301 406.096 56.6238 405.144 56.7807C405.016 56.8019 404.882 56.7945 404.775 56.7991C404.737 56.76 404.717 56.7487 404.712 56.733C404.509 56.1286 404.729 55.7451 405.369 55.5825C406.955 55.1793 408.54 54.7752 410.126 54.3722C411.08 54.1298 411.438 54.4186 411.172 55.3287C410.563 57.4159 409.889 59.487 409.249 61.5668C409.052 62.2075 408.859 62.8506 408.708 63.5016C408.666 63.6837 408.716 63.986 408.847 64.0732C408.982 64.1637 409.298 64.1178 409.481 64.032C410.866 63.3846 411.788 62.2993 412.58 61.1025C413.722 59.3763 414.334 57.4571 414.896 55.5208C415.088 54.8617 415.558 54.5322 416.306 54.5323L419.73 54.5322Z" fill="#95989D"/>
<path d="M365.641 63.5373C365.979 62.2256 366.269 60.9498 366.665 59.7093C366.73 59.5047 367.26 59.4547 367.662 59.2999C367.61 59.8227 367.531 60.1646 367.55 60.5005C367.629 61.87 368.329 62.6613 369.659 62.9163C370.734 63.1219 371.794 63.0706 372.789 62.5804C374.018 61.9749 374.251 60.5682 373.198 59.6929C372.407 59.035 371.466 58.5652 370.595 58.0053C370.014 57.6313 369.415 57.2802 368.867 56.8604C366.362 54.9416 367.099 51.6096 369.261 50.2978C370.451 49.5762 371.757 49.3534 373.106 49.288C373.341 49.2765 373.578 49.2818 373.811 49.3068C375.067 49.441 376.322 49.5839 377.66 49.7329C377.487 50.4088 377.328 51.0264 377.17 51.6439C377.096 51.9294 377.025 52.2153 376.948 52.5001C376.721 53.3518 376.7 53.3633 375.759 53.1535C375.759 53.0731 375.755 52.985 375.76 52.8973C375.842 51.4247 375.08 50.5033 373.636 50.4892C372.93 50.4823 372.177 50.5748 371.524 50.8317C370.326 51.303 370.118 52.6253 371.072 53.5105C371.56 53.964 372.151 54.3111 372.723 54.6606C373.545 55.1629 374.421 55.5764 375.221 56.1107C377.534 57.6551 377.779 60.2739 375.839 62.3189C374.738 63.4783 373.335 63.9794 371.824 64.2079C369.72 64.526 367.699 64.0128 365.641 63.5373Z" fill="#95989D"/>
<path d="M444.457 63.3162C444.544 63.4323 444.612 63.5149 444.67 63.6035C444.82 63.8318 444.966 64.0628 445.135 64.326C443.174 65.5454 441.336 66.9132 438.926 67.2619C437.053 67.5328 435.516 66.6786 435.021 64.9441C434.373 62.6716 434.932 60.5749 436.264 58.6568C438.132 55.9674 440.737 54.4252 444.214 54.293C446.036 54.2237 447.125 55.465 446.666 57.1388C446.103 59.191 443.759 60.9338 441.405 61.0446C441.079 61.0599 440.741 61.0976 440.429 61.0356C439.805 60.9116 439.543 61.1663 439.521 61.7089C439.494 62.3882 439.395 63.0829 439.503 63.7451C439.687 64.8549 440.673 65.3589 441.779 64.9097C442.473 64.6279 443.089 64.1727 443.734 63.7887C443.974 63.646 444.201 63.4841 444.457 63.3162ZM439.949 59.8655C440.068 59.8979 440.137 59.9291 440.208 59.9337C442.035 60.0547 444.227 57.5686 443.729 55.9124C443.678 55.7422 443.386 55.5156 443.217 55.5238C442.918 55.5384 442.566 55.6472 442.344 55.8316C441.051 56.9019 440.376 58.3049 439.949 59.8655Z" fill="#95989D"/>
<path d="M466.092 50.3717C465.71 51.6814 465.341 52.9468 464.954 54.2763H467.806C467.611 54.9573 467.451 55.5654 467.251 56.1614C467.228 56.2327 466.996 56.2659 466.86 56.268C466.162 56.2786 465.465 56.2557 464.77 56.2869C464.618 56.2937 464.378 56.4486 464.343 56.5782C463.741 58.7828 463.165 60.994 462.588 63.2049C462.551 63.3458 462.542 63.4965 462.539 63.6431C462.513 64.8236 462.978 65.2165 464.162 65.0197C464.308 64.9956 464.452 64.9644 464.637 64.9287C464.727 65.2951 464.812 65.6465 464.913 66.0552C463.403 66.4828 461.952 67.0555 460.445 67.2738C459.046 67.4768 457.629 66.871 457.805 65.0116C457.939 63.5939 458.318 62.1921 458.663 60.8012C459.219 58.5657 459.841 56.3463 460.42 54.1164C460.516 53.7505 460.67 53.557 461.067 53.4083C462.298 52.9466 463.167 51.9998 464.022 51.0635C464.8 50.2107 464.788 50.1989 466.092 50.3717Z" fill="#95989D"/>
<path d="M448.123 56.9444C448.095 56.8576 448.069 56.7914 448.054 56.7226C447.994 56.4557 447.937 56.1879 447.865 55.8551C448.315 55.7269 448.751 55.6011 449.188 55.4783C450.5 55.1087 451.813 54.7363 453.127 54.3726C453.912 54.1553 454.26 54.4826 454.074 55.3094C453.881 56.1691 453.628 57.0143 453.403 57.8667C453.358 58.0392 453.324 58.2153 453.381 58.4539C453.501 58.3138 453.628 58.1792 453.74 58.0326C454.313 57.283 454.864 56.5135 455.458 55.7827C456.306 54.741 457.367 54.172 458.793 54.311C458.418 55.7667 458.051 57.193 457.681 58.6376C457.099 58.583 456.559 58.5209 456.017 58.4838C455.135 58.4232 454.426 58.7706 453.915 59.5239C452.659 61.371 451.926 63.4562 451.366 65.6209C451.229 66.1518 451.225 66.8744 450.888 67.1513C450.555 67.426 449.88 67.2623 449.355 67.2688C448.511 67.2793 447.666 67.2716 446.773 67.2716C447.324 65.1255 447.859 63.0469 448.393 60.9686C448.678 59.866 448.963 58.7639 449.247 57.6611C449.466 56.805 449.339 56.6711 448.495 56.8605C448.377 56.887 448.259 56.9138 448.123 56.9444Z" fill="#95989D"/>
<path d="M384.304 50.3264C384.144 50.8806 383.992 51.3974 383.847 51.9163C383.702 52.4344 383.564 52.9546 383.405 53.5394H385.675C385.525 54.0892 385.414 54.5716 385.25 55.0347C385.217 55.1289 384.984 55.1923 384.841 55.198C384.34 55.2177 383.837 55.2241 383.337 55.1991C383.032 55.1837 382.914 55.3182 382.845 55.5913C382.417 57.2767 381.98 58.9599 381.546 60.6438C381.536 60.68 381.524 60.7158 381.517 60.7523C381.243 62.1391 381.704 62.6181 383.129 62.3432C383.202 62.6319 383.276 62.9251 383.362 63.2644C382.161 63.6186 381.026 64.0634 379.849 64.2678C378.773 64.4548 377.526 63.9831 377.674 62.4403C377.77 61.4416 377.976 60.4471 378.211 59.4702C378.693 57.4709 379.235 55.4864 379.737 53.492C379.825 53.1417 380.019 52.9877 380.32 52.7846C381.113 52.25 381.868 51.6342 382.549 50.9587C383.243 50.2692 383.197 50.2212 384.304 50.3264Z" fill="#95989D"/>
</g>
</g>
<g clip-path="url(#clip8_4_10)">
<g clip-path="url(#clip9_4_10)">
<mask id="mask2_4_10" style="mask-type:luminance" maskUnits="userSpaceOnUse" x="530" y="40" width="99" height="28">
<path d="M628.395 40.7546H530.99V67.2452H628.395V40.7546Z" fill="white"/>
</mask>
<g mask="url(#mask2_4_10)">
<path d="M530.991 54.4071C530.989 51.5497 531.21 49.111 532.126 46.77C533.622 42.9446 536.565 41.0947 540.641 40.8058C542.323 40.6865 544 40.7609 545.643 41.1882C548.895 42.0333 550.863 44.169 551.951 47.1841C552.6 48.9822 552.845 50.8552 552.912 52.7447C552.999 55.1909 552.906 57.6316 552.214 60.0081C551.534 62.3417 550.373 64.3655 548.219 65.7157C546.902 66.5412 545.431 66.9523 543.897 67.1257C541.944 67.3463 539.997 67.2834 538.093 66.7528C534.7 65.8079 532.777 63.4735 531.782 60.2936C531.143 58.2526 530.971 56.1489 530.991 54.4071ZM541.822 65.5341C542.142 65.5136 542.498 65.4963 542.853 65.4671C544.805 65.3061 546.27 64.4324 547.136 62.6754C547.83 61.2682 548.139 59.7633 548.302 58.2278C548.599 55.4425 548.601 52.6539 548.308 49.8676C548.157 48.435 547.884 47.0283 547.299 45.6938C546.643 44.1958 545.595 43.1252 543.934 42.7065C542.838 42.4301 541.729 42.4085 540.62 42.5702C538.633 42.86 537.326 43.9889 536.572 45.7796C535.974 47.1991 535.7 48.6905 535.566 50.206C535.343 52.7273 535.34 55.2527 535.562 57.7747C535.698 59.3112 535.969 60.8228 536.578 62.2603C537.307 63.982 538.563 65.0807 540.47 65.3982C540.904 65.4704 541.347 65.4879 541.822 65.5341Z" fill="#95989D"/>
<path d="M581.274 66.7766V43.6311H585.125V52.848C585.361 52.6826 585.502 52.576 585.65 52.4807C586.964 51.6373 588.25 50.7481 589.604 49.9706C590.534 49.436 591.59 49.2039 592.694 49.2973C593.735 49.3853 594.519 49.8407 595.006 50.7664C595.582 51.8631 595.847 53.0433 595.951 54.2539C596.164 56.756 596.186 59.2535 595.628 61.7281C594.889 65.0006 592.84 66.8031 589.425 67.1597C587.493 67.3613 583.205 67.1641 581.274 66.7766ZM585.18 54.6708V65.2626C586.101 65.3176 586.998 65.4279 587.893 65.412C589.295 65.3868 590.404 64.7935 591.055 63.5355C591.271 63.1181 591.463 62.6742 591.57 62.2206C592.142 59.7983 592.188 57.3432 591.923 54.8831C591.862 54.3227 591.688 53.755 591.46 53.2351C591.06 52.3248 590.345 51.973 589.369 52.2002C588.806 52.3312 588.22 52.5084 587.742 52.812C586.831 53.3903 585.991 54.0739 585.18 54.6708Z" fill="#95989D"/>
<path d="M568.274 66.7686H564.443C564.359 65.819 564.278 64.8883 564.188 63.87C563.722 64.2553 563.314 64.5968 562.901 64.9328C561.664 65.939 560.356 66.8231 558.73 67.1128C557.9 67.2605 557.062 67.3264 556.238 67.0703C554.854 66.6403 553.877 65.7782 553.586 64.3679C553.146 62.2436 553.325 60.2121 555.051 58.6181C556.209 57.5486 557.64 56.9322 559.209 56.7173C560.619 56.5241 562.047 56.4533 563.468 56.3284C563.653 56.3121 563.838 56.2955 564.057 56.276C564.081 56.1398 564.119 56.0246 564.119 55.9092C564.123 54.7796 564.141 53.6497 564.116 52.5205C564.086 51.1562 563.614 50.7287 562.213 50.7691C561.071 50.8019 560.034 51.219 559.071 51.7625C557.983 52.3766 556.954 53.0904 555.902 53.7633C555.733 53.871 555.572 53.9903 555.335 54.1546V49.7287C557.359 49.5852 559.362 49.4024 561.37 49.3167C562.496 49.2686 563.643 49.2894 564.758 49.4414C566.812 49.7213 567.948 51.0324 567.98 53.0622C568.018 55.4028 567.972 57.7448 568.024 60.0849C568.071 62.217 568.2 64.3475 568.292 66.4788C568.295 66.557 568.283 66.636 568.274 66.7686ZM564.12 58.0429C562.451 58.095 560.881 58.1373 559.388 58.6937C558.158 59.1521 557.55 60.0612 557.503 61.3368C557.494 61.5826 557.498 61.829 557.503 62.075C557.533 63.5868 558.43 64.4095 559.971 64.3914C561.7 64.3709 562.905 63.4323 563.987 62.2638C564.063 62.1818 564.114 62.0453 564.115 61.9338C564.124 60.6656 564.12 59.3972 564.12 58.0429Z" fill="#95989D"/>
<path d="M605.328 49.3093C606.728 49.2733 608.087 49.4611 609.351 50.0984C611.032 50.9455 611.989 52.3693 612.507 54.0691C613.378 56.9319 613.381 59.8165 612.407 62.6625C611.439 65.4897 609.372 67.0347 606.321 67.1712C605.221 67.2202 604.089 67.181 603.012 66.9785C600.722 66.5481 599.199 65.1265 598.404 63.0237C597.205 59.8497 597.191 56.6329 598.397 53.4588C599.405 50.8067 601.498 49.5339 604.321 49.3132C604.655 49.2871 604.992 49.3093 605.328 49.3093ZM609.141 58.3135L609.01 58.3C609.01 57.8891 609.017 57.4781 609.009 57.0674C608.982 55.6695 608.897 54.2765 608.486 52.9263C608.097 51.6469 607.274 50.8291 605.862 50.7071C603.826 50.5313 602.669 51.2629 602.171 53.0017C602.064 53.3753 601.982 53.7584 601.922 54.1421C601.599 56.1818 601.601 58.2389 601.727 60.2872C601.799 61.4648 602.025 62.6441 602.301 63.7956C602.51 64.6683 603.094 65.3325 604.017 65.6184C605.642 66.1222 607.898 65.914 608.534 63.3726C608.564 63.2532 608.615 63.1368 608.628 63.0162C608.802 61.449 608.971 59.8811 609.141 58.3135Z" fill="#95989D"/>
<path d="M570.457 45.8056C571.745 45.3246 573.01 44.8528 574.363 44.3479V49.6911H579.118V52.6886C577.548 52.237 576.03 51.8002 574.424 51.3381C574.406 51.5891 574.38 51.78 574.38 51.9708C574.377 55.6888 574.372 59.4068 574.385 63.1248C574.386 63.5716 574.454 64.0239 574.545 64.4629C574.647 64.9502 574.998 65.2247 575.49 65.3458C576.315 65.5492 577.094 65.3772 577.789 64.9669C578.482 64.5577 579.111 64.0446 579.781 63.5674V66.7272C579.018 66.8624 578.21 67.0553 577.389 67.1399C576.095 67.2735 574.793 67.3177 573.504 67.0433C571.775 66.6754 570.714 65.5354 570.525 63.8178C570.476 63.3696 570.44 62.9174 570.439 62.4668C570.433 57.0644 570.435 51.6621 570.436 46.2597C570.436 46.1374 570.446 46.0153 570.457 45.8056Z" fill="#95989D"/>
<path d="M619.668 59.7132C618.183 62.1356 616.258 64.143 615.269 66.7595H612.702C614.721 63.8556 616.685 61.0311 618.696 58.1405C616.861 55.3658 615.029 52.5955 613.162 49.7715C613.352 49.7496 613.508 49.7164 613.665 49.7158C614.841 49.7115 616.019 49.7278 617.196 49.7054C617.583 49.6981 617.793 49.8247 617.985 50.157C618.969 51.8747 619.984 53.5765 620.989 55.2832C621.05 55.3874 621.121 55.4863 621.259 55.6984C622.492 53.6827 624.172 52.0304 624.889 49.7499H627.483C625.702 52.3114 623.975 54.7951 622.206 57.3415C624.256 60.457 626.311 63.5764 628.396 66.7428H623.817C622.464 64.4517 621.102 62.1434 619.668 59.7132Z" fill="#95989D"/>
</g>
</g>
</g>
<g clip-path="url(#clip10_4_10)">
<g clip-path="url(#clip11_4_10)">
<path d="M746.229 42.424C747.758 43.9307 749.291 45.4337 750.814 46.9466C751.271 47.4014 751.701 47.884 752.144 48.3538C752.188 48.3281 752.231 48.3027 752.275 48.277V42.3513C752.598 42.6704 752.806 42.8743 753.013 43.0795C753.666 43.7284 754.332 44.3663 754.964 45.035C755.118 45.1978 755.247 45.4616 755.248 45.6793C755.263 51.3163 755.262 56.9535 755.252 62.5905C755.252 62.7684 755.186 62.9921 755.067 63.1163C754.208 64.0176 753.328 64.8987 752.454 65.7862C752.403 65.7715 752.352 65.7569 752.301 65.7422C752.301 65.5615 752.301 65.3809 752.301 65.2002C752.301 61.1659 752.308 57.1317 752.286 53.0975C752.284 52.8166 752.131 52.4772 751.937 52.2668C751.095 51.3554 750.212 50.4817 749.345 49.5943C749.292 49.6187 749.24 49.6432 749.188 49.6675C749.188 49.8533 749.188 50.039 749.188 50.2247C749.188 54.277 749.182 58.3291 749.197 62.3813C749.198 62.7961 749.074 63.0856 748.776 63.3668C748.054 64.0486 747.36 64.7591 746.66 65.4639C746.538 65.5866 746.444 65.7376 746.338 65.8755C746.302 65.7134 746.234 65.5513 746.234 65.3892C746.229 57.7342 746.229 50.0791 746.229 42.424Z" fill="#95989D"/>
<path d="M781.65 65.7233C781.654 64.77 781.728 63.8106 781.643 62.8651C781.557 61.8971 781.879 61.2153 782.604 60.5824C783.567 59.7429 784.437 58.7979 785.379 57.8656C784.269 56.7609 783.195 55.6702 782.092 54.6095C781.781 54.3101 781.651 54.0104 781.653 53.5778C781.669 50.0141 781.662 46.4505 781.662 42.8868V42.3513C784.648 45.3473 787.594 48.3032 790.536 51.2549C789.927 51.8427 789.242 52.5047 788.507 53.2152C787.308 51.9732 786.083 50.7057 784.859 49.4383C784.802 49.4665 784.745 49.4947 784.688 49.5229C784.672 49.6667 784.642 49.8105 784.641 49.9543C784.636 50.7823 784.66 51.611 784.629 52.4377C784.615 52.8362 784.756 53.105 785.033 53.3772C786.538 54.8565 788.026 56.353 789.551 57.8743C789.416 58.0194 789.291 58.1622 789.156 58.2956C786.802 60.6371 784.446 62.9768 782.092 65.3197C781.969 65.4423 781.869 65.5882 781.759 65.7233H781.65Z" fill="#95989D"/>
<path d="M817.071 65.8744C817.076 61.07 817.08 56.2654 817.084 51.4609C817.085 48.6715 817.084 45.8819 817.084 43.0925V42.3513C817.867 43.1359 818.497 43.8511 819.216 44.4627C819.878 45.0261 820.092 45.652 820.081 46.516C820.032 50.3305 820.06 54.1463 820.06 57.9615V58.6673C821.399 57.3266 822.654 56.0707 823.898 54.825C824.659 55.5802 825.348 56.2644 826.116 57.0262C825.914 57.1919 825.691 57.3464 825.501 57.5343C822.81 60.2023 820.123 62.8742 817.437 65.5476C817.34 65.6449 817.265 65.765 817.18 65.8745L817.071 65.8744Z" fill="#95989D"/>
<path d="M828.912 65.7697C828.919 64.9067 828.929 64.0439 828.93 63.1809C828.931 56.4509 828.93 49.7209 828.93 42.9909V42.4192C828.973 42.3967 829.017 42.3739 829.059 42.3513C829.66 42.9614 830.215 43.6262 830.873 44.1675C831.694 44.843 831.961 45.6165 831.94 46.6819C831.87 50.4055 831.913 54.1312 831.913 57.8561C831.913 58.0619 831.913 58.2678 831.913 58.5693C833.252 57.2279 834.507 55.9724 835.871 54.6057C836.601 55.3838 837.266 56.0918 837.931 56.7998V56.9079C837.847 56.9713 837.753 57.0257 837.679 57.0993C834.84 59.918 832.002 62.7383 829.166 65.5603C829.108 65.6194 829.069 65.6996 829.021 65.7698L828.912 65.7697Z" fill="#95989D"/>
<path d="M766.91 65.6906C766.706 65.4407 766.522 65.1708 766.295 64.9442C763.649 62.3052 760.992 59.6769 758.354 57.0295C758.175 56.8492 758.031 56.5406 758.03 56.2907C758.011 51.8075 758.015 47.324 758.017 42.8407C758.017 42.7022 758.04 42.5637 758.058 42.3513C758.227 42.5014 758.348 42.5988 758.458 42.7077C761.213 45.4417 763.964 48.1799 766.727 50.9064C766.992 51.1672 767.102 51.4258 767.101 51.7993C767.088 56.2108 767.093 60.6221 767.093 65.0335V65.5645C767.032 65.6065 766.971 65.6485 766.91 65.6906ZM760.997 49.3853C760.997 51.0332 761.069 52.5272 760.973 54.0101C760.902 55.0891 761.188 55.8832 762.036 56.572C762.752 57.1541 763.357 57.8715 763.999 58.516C764.083 58.4604 764.11 58.4512 764.11 58.4417C764.118 56.5376 764.127 54.6333 764.123 52.7292C764.122 52.6015 764.057 52.4423 763.967 52.3513C763.02 51.3932 762.062 50.446 760.997 49.3853Z" fill="#95989D"/>
<path d="M805.321 42.3513C808.296 45.3318 811.227 48.2661 814.145 51.1886C813.507 51.7949 812.81 52.458 812.1 53.1332C810.931 51.9629 809.676 50.7052 808.42 49.4476C808.369 49.4713 808.319 49.4952 808.267 49.519C808.267 50.2966 808.255 51.0748 808.281 51.8516C808.285 51.9806 808.447 52.1169 808.558 52.2279C809.145 52.8137 809.737 53.3924 810.344 53.9883C809.722 54.6088 809.123 55.1839 808.554 55.7856C808.41 55.939 808.283 56.1731 808.272 56.3765C808.237 57.0583 808.259 57.7429 808.259 58.4189C809.525 57.1549 810.785 55.8952 812.014 54.667C812.838 55.4654 813.532 56.1394 814.162 56.7513C811.227 59.6954 808.288 62.6427 805.321 65.6194V42.3513Z" fill="#95989D"/>
<path d="M769.898 65.6662V42.3513C772.85 45.3065 775.79 48.2488 778.752 51.2145C777.532 52.4143 776.237 53.6872 774.931 54.9711C775.919 55.9545 776.848 56.878 777.733 57.759C777.017 58.4945 776.353 59.1773 775.637 59.9125C774.75 59.0049 773.866 58.0993 772.981 57.1937C772.934 57.2198 772.887 57.246 772.839 57.2722C772.839 57.9827 772.839 58.6933 772.839 59.4041C772.839 60.394 772.846 61.3838 772.833 62.3736C772.831 62.5402 772.802 62.7562 772.696 62.8642C771.805 63.7799 770.893 64.6756 769.898 65.6662ZM774.471 51.2028C773.932 50.6672 773.37 50.1097 772.878 49.6214V52.7759C773.45 52.2116 774.007 51.6616 774.471 51.2028Z" fill="#95989D"/>
<path d="M802.307 51.1423C801.722 51.7068 801.037 52.3691 800.341 53.0406C799.134 51.829 797.878 50.5676 796.622 49.3063C796.569 49.3318 796.516 49.3574 796.463 49.3828C796.463 50.1729 796.452 50.9633 796.475 51.7526C796.478 51.8648 796.638 51.9806 796.74 52.0803C797.332 52.6604 797.929 53.236 798.571 53.8598C797.954 54.4597 797.397 55.0225 796.813 55.5571C796.539 55.8082 796.429 56.0727 796.433 56.4484C796.451 58.3754 796.452 60.3028 796.427 62.2296C796.424 62.4812 796.29 62.7842 796.116 62.971C795.308 63.8395 794.465 64.6755 793.523 65.6357V42.3513C796.418 45.2483 799.364 48.197 802.307 51.1423Z" fill="#95989D"/>
<path d="M718.682 34.552C719.104 34.9741 719.159 35.5043 719.152 36.0631C719.143 36.7544 719.164 37.4461 719.165 38.1376C719.165 38.4399 718.719 38.8884 718.412 38.8957C718.077 38.9038 717.739 38.8767 717.405 38.9037C716.95 38.9406 716.674 38.663 716.398 38.3826C716.34 38.3241 716.321 38.217 716.307 38.1287C716.278 37.9556 716.265 37.78 716.243 37.5856C715.832 37.6055 715.451 37.6237 715.07 37.6426C715.046 37.6437 715.005 37.6437 715.002 37.6541C714.848 38.1148 714.19 38.2214 714.19 38.7818C714.191 39.0667 714.239 39.3514 714.251 39.6369C714.262 39.9082 714.253 40.1804 714.253 40.5471C714.454 40.6073 714.757 40.6961 715.059 40.7902C715.17 40.8248 715.327 40.8406 715.378 40.9193C715.578 41.2311 715.855 41.2901 716.179 41.2077C716.326 41.1706 716.459 41.0827 716.582 40.9741C717.221 40.937 717.81 41.1501 718.315 41.5579C718.498 41.7059 718.618 41.9301 718.774 42.1128C718.809 42.1533 718.877 42.1654 718.98 42.2145C719.062 42.0383 719.141 41.8687 719.233 41.6704C718.852 41.6782 718.578 41.245 718.726 40.9143C719.148 39.9688 719.598 39.0352 720.042 38.0861C719.956 37.8251 719.848 37.5281 719.76 37.2252C719.656 36.8683 719.829 36.6072 720.128 36.456C720.656 36.189 721.203 35.958 721.742 35.7119C721.759 35.7447 721.776 35.7776 721.793 35.8103C721.546 35.9995 721.283 36.1711 721.055 36.3814C720.572 36.828 720.576 37.0456 720.979 37.4866C721.484 37.4353 721.948 37.4168 722.399 37.3319C722.684 37.2784 722.95 37.1256 723.238 37.0122C723.239 37.0126 723.267 37.019 723.276 37.0358C723.605 37.6504 723.937 38.2627 724.254 38.8835C724.327 39.0278 724.368 39.2005 724.57 39.1233C724.775 39.0445 725.085 38.9585 725.133 38.8075C725.224 38.5222 725.159 38.1882 725.159 37.8398C725.524 38.2537 725.714 38.7405 725.628 39.228C725.557 39.6272 725.165 39.9181 724.755 39.9895C724.355 40.059 724.236 40.3051 724.125 40.6144C723.92 41.1861 723.749 41.7747 723.488 42.3202C723.279 42.7566 722.957 43.1396 722.686 43.5464C722.648 43.5244 722.609 43.5025 722.571 43.4806C722.586 43.3835 722.602 43.2864 722.628 43.1269C722.4 43.3047 722.211 43.4525 721.996 43.6202C722.206 43.8132 722.38 43.9345 722.672 43.8758C722.829 43.8443 723.041 43.9235 723.185 44.0179C723.634 44.3119 724.062 44.6371 724.498 44.9502C724.466 44.9637 724.434 44.9772 724.403 44.9907C724.452 45.1495 724.466 45.332 724.557 45.4629C724.868 45.9138 725.213 46.3409 725.527 46.79C725.624 46.9297 725.695 47.1058 725.721 47.2738C725.796 47.7713 725.945 48.2197 726.363 48.5445C726.595 48.7239 726.668 48.9616 726.674 49.2633C726.684 49.7802 726.69 50.2851 726.439 50.7571C726.423 50.7883 726.393 50.8291 726.402 50.8553C726.642 51.5955 726.171 52.2983 726.293 53.0404C726.36 53.4431 725.888 53.9261 725.479 53.9072C725.361 53.9018 725.251 53.7058 725.099 53.5602C725.049 53.5953 724.927 53.6854 724.801 53.7702C724.634 53.8823 724.455 54.0508 724.264 53.8445C724.078 53.6438 724.09 53.4176 724.275 53.2014C724.375 53.084 724.463 52.9543 724.541 52.8211C724.593 52.7322 724.618 52.6275 724.686 52.4466C724.421 52.7491 724.212 52.9792 724.012 53.2169C723.815 53.4512 723.501 53.5392 723.324 53.3664C723.132 53.1778 723.189 52.9639 723.335 52.7579C723.465 52.5739 723.579 52.3779 723.713 52.166C723.628 52.0914 723.551 52.024 723.452 51.9374C723.365 52.0449 723.3 52.1442 723.215 52.2228C723.133 52.2987 723.034 52.4024 722.939 52.4054C722.795 52.4101 722.557 52.374 722.525 52.2912C722.468 52.1455 722.504 51.9406 722.56 51.7806C722.622 51.6058 722.749 51.4539 722.835 51.3123C721.732 50.3621 720.649 49.4299 719.562 48.4942C719.609 48.7882 719.614 49.1158 719.72 49.4067C719.882 49.8489 719.795 50.217 719.575 50.6095C719.167 51.3377 718.809 52.0933 718.399 52.82C718.233 53.1144 718.169 53.3865 718.313 53.6897C718.415 53.9038 718.364 54.0622 718.191 54.213C718.084 54.3066 718.011 54.4381 717.905 54.5333C717.62 54.7903 717.438 55.0452 717.692 55.4452C717.759 55.5513 717.69 55.7674 717.64 55.9188C717.284 56.9933 716.918 58.0641 716.556 59.1364C716.518 59.2471 716.488 59.3603 716.436 59.5363C716.746 59.3491 717.004 59.1938 717.351 58.9851C717.18 59.3336 717.049 59.6018 716.896 59.9132C717.463 59.9224 717.615 59.3391 718.051 59.2474C718.019 59.5238 717.984 59.8256 717.944 60.1702C718.407 60.1586 718.555 60.4174 718.638 60.769C718.754 61.2574 719.032 61.5865 719.537 61.7724C720.159 62.0012 720.747 62.3193 721.383 62.6142H720.606C720.83 62.8486 720.999 63.0258 721.211 63.2481C721.016 63.5753 720.805 63.9273 720.556 64.3438C720.78 64.412 720.976 64.5207 721.172 64.5204C721.504 64.5201 721.756 64.6446 722.011 64.8333C722.519 65.2099 723.045 65.564 723.569 65.9313C723.463 66.141 723.363 66.339 723.229 66.6046C723.386 66.5427 723.474 66.5079 723.606 66.4555C723.702 67.105 723.649 67.7257 723.298 68.2274C722.099 69.9388 720.57 71.3596 719.041 72.7971C719.489 71.9541 719.937 71.1111 720.435 70.1751C719.817 70.627 719.273 71.0251 718.729 71.4233C719.056 70.4907 719.878 69.8067 719.981 68.7338C719.486 68.9776 719.025 69.2046 718.564 69.4316C718.543 69.4127 718.523 69.3938 718.503 69.375C718.661 68.9722 718.82 68.5694 718.98 68.1665C718.965 68.1523 718.951 68.1379 718.937 68.1236C718.582 68.404 718.227 68.6845 717.872 68.965C717.852 68.9544 717.833 68.9437 717.813 68.933C718.085 68.3661 718.357 67.7994 718.676 67.1339C718.393 67.2225 718.209 67.2804 718.023 67.3383C718.005 67.3247 717.978 67.3152 717.969 67.2968C717.698 66.727 717.462 66.6336 716.83 66.8798C716.006 67.2007 715.187 67.5351 714.251 67.9095C714.547 67.277 714.808 66.7209 715.078 66.1434C714.37 66.6216 713.678 67.0885 712.927 67.5952C712.959 67.4425 712.974 67.3654 712.992 67.2892C713.103 66.8226 713.215 66.3562 713.329 65.8781C712.755 66.2812 712.184 66.6825 711.612 67.0837C711.602 67.067 711.593 67.0502 711.583 67.0336C711.877 66.5979 712.171 66.1623 712.496 65.6805C711.452 66.4104 710.46 67.1047 709.467 67.799C709.442 67.7744 709.418 67.7496 709.394 67.7251L710.05 66.9471C710.036 66.9278 710.022 66.9086 710.008 66.8893C709.656 67.0895 709.303 67.2895 708.951 67.4896C708.936 67.4696 708.92 67.4496 708.905 67.4296C709.878 66.3345 710.852 65.2395 711.86 64.1056C711.485 64.2774 711.156 64.428 710.828 64.5783C710.805 64.5555 710.782 64.5327 710.758 64.5097C710.998 64.0873 711.238 63.6649 711.478 63.2423C711.461 63.2288 711.444 63.2153 711.428 63.2018C710.927 63.6835 710.409 64.15 709.929 64.6525C709.589 65.0091 709.165 65.159 708.674 65.3158C708.698 65.1563 708.716 65.0384 708.737 64.9048C707.426 65.9038 706.133 66.8893 704.841 67.8748C705.159 67.3549 705.718 66.9973 705.876 66.3416C705.682 66.3262 705.508 66.3124 705.296 66.2957C705.322 66.1405 705.344 66.0071 705.383 65.7703C705.102 65.8422 704.84 65.8595 704.629 65.9716C703.223 66.7171 701.829 67.4833 700.43 68.2411C700.318 68.3018 700.199 68.3498 700.016 68.4352C701.371 67.0552 702.671 65.731 703.901 64.4776C702.034 65.6995 700.078 66.9793 698.122 68.259C698.087 68.2157 698.052 68.1724 698.017 68.1292C698.101 68.06 698.185 67.9913 698.268 67.9214C699.002 67.3067 699.751 66.7098 700.465 66.0729C701.714 64.959 702.924 63.8023 704.182 62.6994C704.861 62.1042 705.49 61.4782 705.997 60.7318C707.121 59.0808 708.649 57.8793 710.336 56.8461C710.618 56.6732 710.83 56.3822 711.064 56.1359C711.563 55.6103 712.028 55.0492 712.556 54.5545C714.136 53.0746 715.748 51.628 717.331 50.1513C718.062 49.4687 718.757 48.7465 719.435 48.0062C718.256 49.0423 717.072 50.0744 715.897 51.1159C714.718 52.1614 713.547 53.2162 712.354 54.2834C712.36 54.2071 712.347 54.1171 712.376 54.0424C712.578 53.5086 712.733 52.9469 713.015 52.4575C713.192 52.1499 713.562 51.9522 713.866 51.6871C713.855 51.5473 713.839 51.3368 713.822 51.1132C713.634 51.2632 713.443 51.415 713.252 51.5668C713.222 51.5476 713.193 51.5284 713.164 51.5091C713.25 51.2714 713.337 51.0337 713.435 50.7622C713.333 50.8196 713.244 50.8692 713.113 50.9429C713.336 50.1108 713.732 49.4164 714.296 48.7135C714.124 48.756 714.036 48.7777 713.935 48.8026C713.928 48.7662 713.91 48.7318 713.918 48.706C713.998 48.4564 714.084 48.2088 714.165 47.9599C714.187 47.8925 714.238 47.8017 714.213 47.7569C714.004 47.3886 714.297 47.1691 714.443 46.8985C714.561 46.6793 714.642 46.4402 714.775 46.1258C714.561 46.1807 714.465 46.2053 714.369 46.2298C714.343 46.2067 714.317 46.1834 714.291 46.1602C714.685 45.6232 715.079 45.0863 715.491 44.5249C715.467 44.5083 715.392 44.4269 715.365 44.4405C715.096 44.5794 714.929 44.3838 714.738 44.2671C714.058 43.8524 713.295 43.5772 712.741 42.9525C712.542 42.7282 712.19 42.6257 711.893 42.5041C711.663 42.4101 711.537 42.2869 711.553 42.0309C711.577 41.6346 711.574 41.2489 711.2 40.9729C711.151 40.9372 711.169 40.756 711.21 40.6663C711.358 40.3411 711.543 40.0327 711.688 39.7062C711.97 39.068 711.873 38.454 711.511 37.876C711.462 37.7977 711.349 37.7206 711.259 37.7134C711.046 37.696 710.826 37.6999 710.615 37.7329C710.193 37.7991 710.068 37.7127 710.047 37.293C710.045 37.2691 710.046 37.2451 710.046 37.2213C710.036 36.5286 710.089 36.4706 710.766 36.4382C710.934 36.4301 711.102 36.4299 711.269 36.4188C711.339 36.4142 711.458 36.4077 711.469 36.3737C711.592 36.0063 711.973 36.013 712.228 35.842C712.285 35.8036 712.355 35.7669 712.422 35.7612C712.763 35.7316 713.105 35.7124 713.447 35.6896C713.494 35.6865 713.544 35.6911 713.587 35.6778C714.187 35.4955 714.203 35.4872 714.465 36.0207C714.604 36.3027 714.865 36.3527 715.1 36.3872C715.438 36.4371 715.79 36.3999 716.182 36.3999C716.133 35.7023 716.04 35.0223 716.667 34.552H718.682ZM723.836 50.4576C723.76 50.337 723.707 50.2605 723.662 50.1792C723.502 49.8882 723.123 49.6572 723.407 49.2402C723.431 49.2042 723.39 49.0861 723.344 49.0471C723.079 48.8208 722.803 48.607 722.584 48.4323C722.498 48.6532 722.372 48.9756 722.218 49.3697C722.146 49.2189 722.116 49.1546 722.07 49.0573C721.892 49.3972 721.734 49.6988 721.566 50.0187C721.954 50.3423 722.336 50.6611 722.665 50.9355C723.076 50.7676 723.446 50.6167 723.836 50.4576ZM720.56 40.1681C720.564 40.7033 720.775 40.9594 721.313 41.0839C721.414 41.1073 721.592 41.1113 721.625 41.0578C721.719 40.9048 721.853 40.6745 721.798 40.5519C721.639 40.1983 721.423 39.8644 720.943 39.8474C720.667 39.8377 720.526 39.9051 720.56 40.1681ZM722.954 40.7713C722.779 40.7871 722.632 40.7565 722.573 40.8145C722.431 40.955 722.321 41.1312 722.222 41.3062C722.198 41.348 722.25 41.4872 722.295 41.5034C722.525 41.5858 722.787 41.7341 722.994 41.6832C723.211 41.6296 723.395 41.3892 723.547 41.1949C723.568 41.1682 723.338 40.9179 723.197 40.8063C723.127 40.7511 722.993 40.7756 722.954 40.7713Z" fill="#95989D"/>
<path d="M730.472 58.3974C730.811 58.7197 731.151 59.042 731.53 59.4011C730.366 59.2359 729.595 58.4403 728.688 57.906C728.662 57.9315 728.635 57.9571 728.609 57.9826C728.945 58.3202 729.281 58.658 729.669 59.0475C728.729 58.4484 727.851 57.8885 726.998 57.3452C727.351 57.2396 727.615 57.5225 727.895 57.7204C728.072 57.8451 728.204 57.8859 728.402 57.7637C728.485 57.7119 728.662 57.7265 728.752 57.7819C729.087 57.9881 729.403 58.2237 729.752 58.4656C729.803 58.292 729.846 58.1463 729.888 58.0003C729.862 57.9682 729.846 57.9288 729.817 57.9152C729.237 57.6397 728.809 57.2175 728.524 56.641C728.453 56.4978 728.316 56.3821 728.195 56.2694C727.467 55.5946 726.735 54.9252 726.006 54.2519C725.913 54.1662 725.831 54.0687 725.793 53.9182C725.872 53.9737 725.957 54.0225 726.03 54.0857C726.933 54.8697 727.836 55.6532 728.732 56.4438C728.883 56.5767 729.045 56.7233 729.131 56.8979C729.343 57.3282 729.7 57.5792 730.092 57.8207C730.621 58.1466 731.136 58.4971 731.641 58.8589C732.774 59.67 733.898 60.4927 735.021 61.3169C735.132 61.3983 735.232 61.5103 735.302 61.629C735.847 62.5652 736.56 63.356 737.328 64.1204C738.366 65.1535 739.328 66.2623 740.323 67.3385C740.539 67.573 740.757 67.807 740.934 68.1039C740.69 67.9241 740.419 67.7706 740.206 67.56C739.314 66.6793 738.405 65.8119 737.567 64.8815C736.698 63.9152 735.904 62.8813 735.075 61.8785C735.023 61.8154 734.96 61.758 734.893 61.7109C734.15 61.1917 733.392 60.6944 732.669 60.1497C732.321 59.8867 731.997 59.5665 731.737 59.2174C731.414 58.7847 730.975 58.5597 730.472 58.3974Z" fill="#95989D"/>
<path d="M728.286 62.959C726.333 61.2852 724.381 59.6115 722.428 57.9377C722.446 57.8919 722.464 57.846 722.481 57.8002C722.88 58.057 723.287 58.4947 723.679 57.7002C723.967 58.0732 724.281 58.3548 724.436 58.7058C724.865 59.6803 725.66 60.3432 726.371 61.0762C726.586 61.2985 726.911 61.4157 727.232 61.6088C726.852 60.8699 726.496 60.1789 726.091 59.3917C726.448 59.7739 726.74 60.0807 727.023 60.3948C727.066 60.4424 727.107 60.5374 727.087 60.5876C726.968 60.8983 727.163 61.1124 727.308 61.3382C727.646 61.8675 727.992 62.3916 728.336 62.9176C728.319 62.9314 728.303 62.9452 728.286 62.959Z" fill="#95989D"/>
<path d="M723.835 55.3252C724.397 55.8286 724.96 56.3321 725.522 56.8355C725.51 56.855 725.498 56.8745 725.486 56.8939C725.347 56.7998 725.207 56.7058 725.04 56.5934C725.264 57.2169 725.575 57.5158 725.797 57.4863C726.46 58.1483 727.069 58.7555 727.678 59.3628C727.671 59.3762 727.664 59.3897 727.657 59.4031C727.256 59.181 726.856 58.9587 726.367 58.6869C726.424 58.9966 726.468 59.236 726.512 59.4757C725.75 58.0109 724.977 56.5513 723.835 55.3252Z" fill="#95989D"/>
<path d="M720.975 61.3074C720.694 60.7324 720.414 60.1574 720.093 59.4989C720.272 59.7235 720.408 59.8936 720.544 60.0636C720.579 60.0524 720.614 60.0411 720.649 60.0297C720.617 59.3505 720.585 58.6711 720.554 57.9917C720.988 59.084 721.045 60.2347 721.201 61.4215C721.085 61.3601 721.025 61.3283 720.965 61.2966L720.975 61.3074Z" fill="#95989D"/>
<path d="M720.974 51.1057C721.413 51.6772 721.853 52.2486 722.292 52.8201L722.205 52.8836C722.034 52.7294 721.848 52.5882 721.696 52.4178C721.522 52.2243 721.361 52.0154 721.228 51.7933C721.103 51.5859 721.023 51.3523 720.923 51.1302C720.94 51.122 720.957 51.1139 720.974 51.1057Z" fill="#95989D"/>
<path d="M720.967 61.2969C721.03 61.5959 721.094 61.8948 721.16 62.2091C720.941 62.1096 720.737 62.04 720.564 61.9245C720.507 61.8867 720.482 61.6831 720.527 61.6363C720.654 61.5046 720.825 61.4149 720.977 61.3081C720.977 61.3075 720.967 61.2969 720.967 61.2969Z" fill="#95989D"/>
<path d="M723.208 60.6166C723.008 60.1187 722.785 59.5606 722.578 59.0449C722.704 59.1254 722.891 59.244 723.081 59.3652C723.125 59.7974 723.17 60.2445 723.208 60.6166Z" fill="#95989D"/>
<path d="M720.544 56.6863L720.948 57.8609C720.265 57.6503 720.737 57.0509 720.427 56.7152C720.466 56.7055 720.505 56.6958 720.544 56.6863Z" fill="#95989D"/>
<path d="M722.126 58.336C722.013 58.1092 721.912 57.9078 721.811 57.7064C721.835 57.6807 721.86 57.6549 721.884 57.6292C722.063 57.742 722.241 57.8548 722.431 57.9751C722.327 58.0986 722.242 58.1986 722.126 58.336Z" fill="#95989D"/>
<path d="M727.186 58.3619C726.991 58.1504 726.816 57.9595 726.641 57.7685C726.65 57.7433 726.66 57.7181 726.67 57.6929C726.857 57.7203 727.045 57.7478 727.186 57.7684V58.3619Z" fill="#95989D"/>
<path d="M729.891 59.8202L729.029 59.1899L729.118 59.0647L729.981 59.6927L729.891 59.8202Z" fill="#95989D"/>
<path d="M726.971 59.907C726.838 59.6423 726.735 59.4372 726.632 59.2323C726.663 59.2176 726.693 59.2032 726.724 59.1887C726.851 59.3941 727.201 59.4969 726.971 59.907Z" fill="#95989D"/>
</g>
</g>
<g clip-path="url(#clip12_4_10)">
<g clip-path="url(#clip13_4_10)">
<mask id="mask3_4_10" style="mask-type:luminance" maskUnits="userSpaceOnUse" x="895" y="38" width="124" height="31">
<path d="M1018.7 38.717H895.661V68.2642H1018.7V38.717Z" fill="white"/>
</mask>
<g mask="url(#mask3_4_10)">
<path d="M897.966 46.3274V63.9179H895.661V46.3274H897.966Z" fill="#95989D"/>
<path d="M907.97 58.6607C907.999 59.0261 908.076 59.3861 908.2 59.7318C908.375 60.2623 908.669 60.7476 909.059 61.1527C909.449 61.5577 909.925 61.8723 910.454 62.0736C911.121 62.3054 911.824 62.4153 912.531 62.3978C913.517 62.3967 914.496 62.2197 915.418 61.8753L915.393 63.6945C914.358 64.0419 913.27 64.2104 912.177 64.1922C911.017 64.2188 909.866 63.989 908.808 63.5197C907.516 62.8974 905.592 61.2777 905.617 57.8141C905.608 56.8876 905.771 55.9673 906.098 55.0985C906.463 54.0982 907.134 53.2333 908.018 52.6222C908.902 52.0112 909.956 51.6838 911.037 51.6851C914.127 51.6851 916.102 53.9525 916.102 56.9172C916.103 57.5075 916.018 58.0949 915.849 58.6614L907.97 58.6607ZM913.871 57.141C913.928 56.3884 913.789 55.6339 913.468 54.9486C913.282 54.5868 913.017 54.2704 912.69 54.0225C912.364 53.7744 911.986 53.6012 911.583 53.5152C911.181 53.4293 910.763 53.4327 910.362 53.5253C909.961 53.618 909.586 53.7977 909.264 54.051C908.428 54.8696 907.954 55.9803 907.947 57.141H913.871Z" fill="#95989D"/>
<path d="M925.67 51.9585V58.7352C925.67 59.8317 925.696 61.028 926.734 61.7228C927.263 62.0535 927.881 62.2185 928.507 62.1957C929.129 62.2302 929.745 62.0546 930.252 61.6979C931.264 60.8761 931.189 59.4052 931.189 58.2845V51.9553H933.493V58.2851C933.552 59.2131 933.475 60.1446 933.263 61.0508C933.129 61.5723 932.887 62.0607 932.551 62.4852C932.216 62.9098 931.794 63.2611 931.313 63.5172C930.438 63.9905 929.449 64.2229 928.451 64.1898C927.898 64.1988 927.345 64.1401 926.806 64.015C926.131 63.8678 925.502 63.5654 924.969 63.1328C924.436 62.7001 924.016 62.1494 923.741 61.5257C923.435 60.5678 923.306 59.5632 923.361 58.5604V51.9591L925.67 51.9585Z" fill="#95989D"/>
<path d="M950.008 54.3756H949.983C949.848 54.2713 949.704 54.1796 949.552 54.1016C948.935 53.7826 948.246 53.6198 947.549 53.628C946.954 53.6234 946.365 53.751 945.827 54.0012C945.093 54.3433 944.481 54.8945 944.07 55.5833C943.659 56.272 943.468 57.0665 943.522 57.8634C943.506 58.467 943.609 59.0678 943.827 59.6325C944.099 60.4065 944.614 61.076 945.296 61.5458C945.978 62.0156 946.793 62.2616 947.626 62.2488C948.498 62.2428 949.35 61.9922 950.081 61.5261L950.107 63.4444C949.893 63.5849 949.663 63.7018 949.423 63.7927C948.714 64.067 947.956 64.2016 947.194 64.1888C943.522 64.164 941.116 61.3735 941.116 57.8603C941.107 57.001 941.26 56.1477 941.568 55.3436C941.977 54.2376 942.732 53.2875 943.724 52.6295C944.716 51.9714 945.894 51.6394 947.09 51.681C948.101 51.6724 949.1 51.903 950.002 52.3535L950.008 54.3756Z" fill="#95989D"/>
<path d="M957.759 52.7312C958.012 52.604 958.29 52.482 958.569 52.3581C959.698 51.9184 960.9 51.6904 962.114 51.6855C963.836 51.6855 964.824 52.1343 965.407 52.632C965.715 52.8746 965.966 53.1808 966.141 53.529C966.446 54.2276 966.576 54.9878 966.521 55.7461L966.496 63.7433C965.071 64.033 963.621 64.1833 962.167 64.1921C961.437 64.1995 960.707 64.141 959.988 64.0172C959.277 63.8901 956.772 63.3447 956.772 60.6794C956.761 60.1622 956.869 59.6492 957.088 59.1788C957.307 58.7086 957.632 58.2932 958.037 57.9638C959.759 56.493 962.19 56.3945 964.267 56.3945V55.8459C964.307 55.4252 964.256 55.0007 964.115 54.6013C963.862 54.0291 963.178 53.4806 961.757 53.4806C960.608 53.5089 959.478 53.772 958.438 54.2529C958.194 54.3625 957.956 54.4874 957.728 54.6267L957.759 52.7312ZM964.267 57.8889C962.899 57.8889 961 57.9385 959.861 58.8601C959.602 59.0561 959.393 59.3094 959.253 59.5995C959.112 59.8895 959.042 60.2081 959.05 60.5294C959.031 60.9248 959.157 61.314 959.404 61.6259C959.886 62.2241 960.747 62.4745 962.267 62.4745C962.938 62.47 963.608 62.4115 964.27 62.2997L964.267 57.8889Z" fill="#95989D"/>
<path d="M977.182 51.9588V54.3025C977.326 53.9826 977.496 53.6743 977.689 53.3808C978.051 52.8499 978.542 52.4167 979.117 52.1207C979.693 51.8247 980.335 51.6753 980.984 51.6861C981.907 51.6714 982.811 51.9415 983.569 52.4584C985.089 53.5797 985.139 55.2737 985.139 56.9437V63.918H982.834V57.2183C982.834 56.1714 982.809 55.125 981.972 54.3534C981.515 53.9477 980.915 53.7332 980.3 53.7552C979.655 53.7644 979.032 53.9833 978.527 54.3776C977.262 55.3996 977.286 57.1185 977.286 58.5392V63.9187H974.978V51.9588H977.182Z" fill="#95989D"/>
<path d="M1017.6 61.0011C1016.58 63.2207 1014.92 65.0946 1012.83 66.386C1010.73 67.6774 1008.29 68.3281 1005.82 68.2559C1003.35 68.1838 1000.95 67.3919 998.935 65.9805C996.921 64.569 995.377 62.6015 994.498 60.3265C993.62 58.0517 993.447 55.5716 994.001 53.2001C994.556 50.8285 995.812 48.6719 997.612 47.0031C999.414 45.3341 1001.68 44.2279 1004.11 43.8243C1006.56 43.4206 1009.06 43.7376 1011.32 44.7353C1014.34 46.073 1016.7 48.5381 1017.88 51.5886C1019.06 54.639 1018.96 58.0247 1017.6 61.0011ZM1007.84 52.3492C1008.77 51.8374 1009.81 51.5525 1010.87 51.518C1011.93 51.4836 1012.99 51.7008 1013.95 52.1514C1014.86 52.5571 1015.68 53.1474 1016.34 53.8836C1016.01 52.3054 1015.3 50.8272 1014.28 49.5702C1013.25 48.3134 1011.94 47.3136 1010.44 46.6529C1008.95 45.9923 1007.31 45.6895 1005.68 45.7697C1004.04 45.8498 1002.45 46.3105 1001.03 47.1139C1002.03 47.1134 1003.02 47.321 1003.94 47.7228C1004.91 48.1304 1005.78 48.7633 1006.46 49.5684C1007.14 50.3734 1007.61 51.327 1007.84 52.3492H1007.84ZM1005.57 54.736C1006.31 52.8392 1005.21 50.5833 1003.07 49.6507C1000.63 48.5759 997.546 49.5084 996.3 52.9111C995.541 55.2926 995.697 57.8652 996.736 60.1416C997.777 62.418 999.63 64.2402 1001.94 65.2632C1004.26 66.286 1006.87 66.4386 1009.29 65.6918C1011.71 64.9451 1013.77 63.351 1015.08 61.2115C1016.83 58.0331 1015.5 55.1479 1013.06 54.0705C1010.93 53.117 1008.48 53.7991 1007.53 55.603C1007.48 55.7359 1007.4 55.8567 1007.3 55.9581C1007.19 56.0595 1007.07 56.1395 1006.94 56.1933C1006.8 56.247 1006.66 56.2734 1006.51 56.2707C1006.37 56.268 1006.22 56.2365 1006.09 56.1779C1005.96 56.1193 1005.84 56.0348 1005.74 55.9297C1005.64 55.8246 1005.57 55.701 1005.52 55.5663C1005.47 55.4317 1005.45 55.2888 1005.46 55.1463C1005.47 55.0037 1005.51 54.8647 1005.58 54.7373L1005.57 54.736Z" fill="#95989D"/>
<path d="M999.229 58.5366C999.339 58.2928 999.522 58.0868 999.751 57.9446C999.981 57.8024 1000.25 57.7304 1000.52 57.7378C1000.79 57.7451 1001.05 57.8315 1001.27 57.986C1001.5 58.1405 1001.67 58.356 1001.76 58.6054C1001.86 58.8548 1001.88 59.1269 1001.82 59.3871C1001.76 59.6473 1001.62 59.884 1001.42 60.0671C1001.22 60.2504 1000.98 60.3719 1000.71 60.4162C1000.44 60.4606 1000.17 60.4259 999.92 60.3164C999.588 60.1701 999.33 59.9005 999.201 59.5669C999.072 59.2332 999.082 58.8627 999.229 58.5366Z" fill="#95989D"/>
<path d="M1001.39 53.7951C1001.53 53.5106 1001.75 53.2792 1002.03 53.1402C1002.32 53.0013 1002.64 52.9634 1002.95 53.0331C1003.26 53.1029 1003.54 53.2758 1003.73 53.5225C1003.92 53.7693 1004.02 54.0746 1004.01 54.3863C1004.01 54.698 1003.89 54.9971 1003.68 55.2323C1003.47 55.4675 1003.19 55.6246 1002.87 55.6767C1002.56 55.7286 1002.24 55.6724 1001.97 55.5176C1001.69 55.3628 1001.48 55.1189 1001.36 54.8274C1001.3 54.6618 1001.27 54.4854 1001.28 54.3083C1001.28 54.1311 1001.32 53.9568 1001.39 53.7951Z" fill="#95989D"/>
<path d="M1008.85 62.791C1008.96 62.5476 1009 62.2772 1008.95 62.0142C1008.91 61.7512 1008.78 61.5073 1008.6 61.3133C1008.41 61.1194 1008.17 60.984 1007.91 60.9244C1007.64 60.8649 1007.37 60.8837 1007.11 60.9787C1006.86 61.0736 1006.64 61.2403 1006.48 61.4577C1006.33 61.6751 1006.24 61.9336 1006.23 62.2002C1006.22 62.4668 1006.3 62.7297 1006.44 62.9557C1006.58 63.1817 1006.79 63.3607 1007.04 63.4698C1007.2 63.5424 1007.38 63.5824 1007.56 63.5875C1007.74 63.5927 1007.92 63.5629 1008.09 63.4998C1008.26 63.4368 1008.41 63.3417 1008.54 63.2201C1008.67 63.0985 1008.78 62.9527 1008.85 62.791Z" fill="#95989D"/>
<path d="M1011.02 58.049C1011.13 57.8055 1011.16 57.5351 1011.12 57.2718C1011.07 57.0086 1010.95 56.7645 1010.76 56.5703C1010.58 56.3762 1010.34 56.2408 1010.07 56.1813C1009.81 56.1216 1009.53 56.1406 1009.28 56.2358C1009.02 56.3309 1008.8 56.4979 1008.65 56.7156C1008.49 56.9333 1008.4 57.192 1008.39 57.4588C1008.39 57.7257 1008.46 57.9887 1008.6 58.2146C1008.75 58.4405 1008.96 58.6191 1009.21 58.7279C1009.54 58.8734 1009.91 58.8836 1010.25 58.7564C1010.59 58.6291 1010.87 58.3747 1011.02 58.049Z" fill="#95989D"/>
<path d="M1006.61 47.4711C1006.7 47.2699 1006.85 47.0999 1007.04 46.9828C1007.23 46.8657 1007.46 46.8067 1007.68 46.8132C1007.9 46.8199 1008.12 46.8916 1008.3 47.0197C1008.49 47.1478 1008.63 47.3262 1008.71 47.5326C1008.79 47.739 1008.8 47.9639 1008.75 48.1791C1008.7 48.3942 1008.59 48.5898 1008.42 48.7413C1008.26 48.8927 1008.05 48.993 1007.83 49.0297C1007.61 49.0664 1007.39 49.0376 1007.18 48.9471C1007.04 48.8871 1006.92 48.8012 1006.82 48.6946C1006.72 48.5878 1006.64 48.4624 1006.58 48.3253C1006.53 48.1882 1006.51 48.0423 1006.51 47.8957C1006.52 47.7491 1006.55 47.6049 1006.61 47.4711Z" fill="#95989D"/>
<path d="M1012.36 50.0136C1012.45 49.8123 1012.48 49.5886 1012.44 49.3708C1012.41 49.1532 1012.31 48.9512 1012.15 48.7905C1012 48.6297 1011.8 48.5175 1011.58 48.4679C1011.36 48.4184 1011.13 48.4337 1010.92 48.512C1010.71 48.5904 1010.53 48.7281 1010.4 48.9079C1010.27 49.0877 1010.2 49.3014 1010.19 49.522C1010.19 49.7428 1010.25 49.9605 1010.36 50.1477C1010.48 50.3347 1010.66 50.483 1010.86 50.5736C1011 50.6338 1011.14 50.667 1011.29 50.6713C1011.44 50.6758 1011.59 50.6513 1011.73 50.5993C1011.87 50.5473 1012 50.4688 1012.1 50.3683C1012.21 50.2678 1012.3 50.1473 1012.36 50.0136Z" fill="#95989D"/>
<path d="M1007.4 39.556C1007.52 39.2996 1007.71 39.0831 1007.96 38.9339C1008.2 38.7849 1008.48 38.7097 1008.77 38.7182C1009.05 38.7265 1009.33 38.8181 1009.56 38.9812C1009.79 39.1442 1009.97 39.3716 1010.07 39.6344C1010.17 39.8973 1010.19 40.1838 1010.13 40.4578C1010.07 40.7317 1009.92 40.9808 1009.71 41.1735C1009.5 41.3663 1009.24 41.494 1008.96 41.5406C1008.68 41.587 1008.39 41.5504 1008.13 41.435C1007.78 41.2804 1007.51 40.9955 1007.37 40.6432C1007.24 40.2908 1007.25 39.8998 1007.4 39.556Z" fill="#95989D"/>
<path d="M1017.85 44.1756C1017.96 43.9192 1018 43.6344 1017.95 43.3572C1017.91 43.0799 1017.78 42.8228 1017.58 42.6182C1017.38 42.4136 1017.13 42.2708 1016.85 42.2078C1016.57 42.1448 1016.28 42.1645 1016.02 42.2644C1015.75 42.3641 1015.52 42.5396 1015.35 42.7687C1015.19 42.9976 1015.09 43.2699 1015.08 43.5509C1015.08 43.8318 1015.15 44.109 1015.3 44.3473C1015.46 44.5856 1015.68 44.7742 1015.94 44.8894C1016.29 45.0439 1016.68 45.0555 1017.04 44.9216C1017.4 44.7878 1017.69 44.5194 1017.85 44.1756Z" fill="#95989D"/>
</g>
</g>
</g>
<g clip-path="url(#clip14_4_10)">
<g clip-path="url(#clip15_4_10)">
<g clip-path="url(#clip16_4_10)">
<mask id="mask4_4_10" style="mask-type:luminance" maskUnits="userSpaceOnUse" x="1065" y="0" width="163" height="108">
<path d="M1227.18 0H1065.18V108H1227.18V0Z" fill="white"/>
</mask>
<g mask="url(#mask4_4_10)">
<mask id="mask5_4_10" style="mask-type:luminance" maskUnits="userSpaceOnUse" x="1070" y="37" width="153" height="18">
<path d="M1222.05 37.9741H1070.31V54.276H1222.05V37.9741Z" fill="white"/>
</mask>
<g mask="url(#mask5_4_10)">
<mask id="mask6_4_10" style="mask-type:luminance" maskUnits="userSpaceOnUse" x="1070" y="37" width="153" height="18">
<path d="M1222.05 37.9741H1070.31V54.2759H1222.05V37.9741Z" fill="white"/>
</mask>
<g mask="url(#mask6_4_10)">
<mask id="mask7_4_10" style="mask-type:luminance" maskUnits="userSpaceOnUse" x="1070" y="37" width="152" height="18">
<path d="M1221.37 54.276H1070.7V37.9741H1221.37V54.276Z" fill="white"/>
</mask>
<g mask="url(#mask7_4_10)">
<mask id="mask8_4_10" style="mask-type:luminance" maskUnits="userSpaceOnUse" x="1070" y="37" width="152" height="18">
<path d="M1221.37 54.2759H1070.7V37.9741H1221.37V54.2759Z" fill="white"/>
</mask>
<g mask="url(#mask8_4_10)">
<path d="M1085.19 50.2818L1085.31 51.0377C1085.35 51.3444 1085.24 51.6075 1084.87 51.6245C1084.45 51.6438 1084.3 51.4096 1084.25 51.077L1083.81 47.8321C1083.76 47.5254 1083.84 47.2082 1084.22 47.2082C1084.5 47.1808 1084.75 47.3764 1084.78 47.6454C1084.78 47.6646 1084.78 47.6839 1084.78 47.7039L1084.94 48.3975C1084.95 48.5908 1085.12 48.7398 1085.32 48.7332H1087.59C1087.82 48.7584 1088.03 48.6028 1088.07 48.3782C1088.09 48.3071 1088.08 48.2338 1088.06 48.1656C1087.93 47.7358 1087.54 46.6095 1087.33 45.9366C1087.21 45.5587 1086.93 45.292 1086.64 45.292H1081.41C1080.88 45.292 1080.64 45.8589 1080.65 46.1271C1080.68 46.688 1080.76 52.859 1080.78 53.5504C1080.8 53.9431 1081.13 54.258 1081.53 54.2721L1088.83 54.2588C1089.37 54.2588 1089.74 53.9816 1089.54 53.2903C1089.36 52.6612 1088.78 50.6146 1088.66 50.3064C1088.54 50.05 1088.3 49.8691 1088.01 49.8298H1085.58C1085.35 49.8699 1085.19 50.0589 1085.19 50.2804L1085.2 50.2826L1085.19 50.2818ZM1072.05 49.8217H1074.37C1074.66 49.8217 1074.81 50.1833 1074.75 50.613C1074.72 50.9095 1074.7 50.9806 1074.7 50.9806C1074.7 50.9806 1074.65 51.5179 1075.17 51.5578C1075.44 51.5971 1075.69 51.4148 1075.73 51.151C1075.73 51.151 1075.73 51.1458 1075.73 51.1436C1075.73 51.1436 1076.53 46.5139 1076.58 46.0285C1076.63 45.5432 1076.89 45.2883 1077.33 45.2883H1078.92C1079.4 45.2883 1079.66 45.6054 1079.66 46.1219C1079.66 46.4287 1079.6 53.0791 1079.6 53.4881C1079.62 53.8824 1079.32 54.2239 1078.91 54.2677H1071.48C1071.18 54.2669 1070.56 54.1217 1070.73 53.3281C1070.73 53.3281 1071.23 51.0443 1071.33 50.6041C1071.43 50.1632 1071.56 49.8217 1072.05 49.8217ZM1221.37 53.7409H1216.5V51.7638H1216.46C1215.85 53.368 1214.43 54.0061 1212.98 54.0061C1210.24 54.0061 1209.24 52.4693 1209.24 50.2477V42.3087H1214.39V48.8984C1214.39 49.5571 1214.39 50.4574 1215.29 50.4574C1216.2 50.4574 1216.21 49.5571 1216.21 48.8984V42.3081H1221.37V53.7519V53.7401L1221.37 53.7409ZM1199.9 42.2969V39.6657L1205.06 37.9739V42.3073H1207.39V45.6032H1205.06V48.8243C1205.06 49.7899 1205.5 50.3271 1206.18 50.3271C1206.59 50.3337 1207 50.2663 1207.39 50.1292V53.4236C1206.25 53.8023 1205.05 54.0024 1203.85 54.0165C1201.19 54.0165 1199.9 52.5864 1199.9 49.5542V45.5936H1198.09V42.3081H1199.91L1199.9 42.2969ZM1196.36 53.7409H1191.49V51.7638H1191.45C1190.84 53.368 1189.43 54.0061 1187.98 54.0061C1185.24 54.0061 1184.23 52.4693 1184.23 50.2477V42.3087H1189.39V48.8984C1189.39 49.5571 1189.39 50.4574 1190.29 50.4574C1191.19 50.4574 1191.21 49.5571 1191.21 48.8984V42.3081H1196.36V53.7519L1196.36 53.7401L1196.36 53.7409ZM1176.28 50.7101C1177.28 50.7101 1177.42 49.4786 1177.42 47.8121C1177.42 46.4487 1177.28 45.3283 1176.28 45.3283C1175.28 45.3283 1175.16 46.4487 1175.16 47.8121C1175.16 49.4756 1175.28 50.7109 1176.28 50.7109L1176.28 50.7101ZM1176.28 42.0323C1180.57 42.0323 1182.9 43.9648 1182.9 47.8107C1182.9 51.7617 1180.57 54.0054 1176.28 54.0054C1171.98 54.0054 1169.68 51.7617 1169.68 47.8107C1169.68 43.9626 1171.96 42.0323 1176.28 42.0323ZM1168.45 53.3911C1167.18 53.7734 1165.86 53.9802 1164.53 54.0046C1159.78 54.0046 1155.98 51.3252 1155.98 45.8463C1155.98 40.7074 1159.94 38.1377 1164.53 38.1377C1166.04 38.1377 1166.94 38.3333 1168.41 38.6172V42.6599C1167.51 42.3532 1166.59 42.0916 1165.67 42.0916C1163.34 42.0916 1161.58 43.4328 1161.58 45.9352C1161.58 48.5724 1163.22 49.912 1165.49 49.912C1166.51 49.8951 1167.51 49.6942 1168.46 49.3193L1168.45 53.3911ZM1140.35 42.3176H1145.22V44.2946H1145.26C1145.87 42.6881 1147.28 42.0523 1148.74 42.0523C1151.48 42.0523 1152.48 43.5907 1152.48 45.8114V53.7564H1147.33V47.1748C1147.33 46.5302 1147.33 45.6203 1146.44 45.6203C1145.54 45.6203 1145.52 46.5198 1145.52 47.1748V53.7667H1140.36V42.325L1140.35 42.3176ZM1133.98 48.7487H1133.48C1132.42 48.7487 1131.19 48.8606 1131.19 50.0374C1131.19 50.8272 1131.6 51.1363 1132.4 51.1363C1133.46 51.1363 1133.99 50.081 1133.99 49.094L1133.98 48.7487H1133.98ZM1127.7 42.7363C1129.14 42.2577 1130.65 42.0346 1132.16 42.0775C1135.11 42.0775 1138.69 42.6488 1138.69 46.8236V53.7823H1133.9V52.1203H1133.86C1133.14 53.4081 1131.83 54.0335 1130.38 54.0335C1128.39 54.0335 1126.47 53.0651 1126.47 50.6708C1126.47 47.1563 1129.42 46.456 1131.98 46.456C1132.65 46.4746 1133.32 46.5258 1133.98 46.6102C1133.96 45.1371 1132.55 44.9592 1131.26 44.9592C1130.01 44.9978 1128.79 45.3305 1127.7 45.9277V42.72L1127.7 42.7363ZM1120.92 46.9748C1120.92 46.0975 1120.8 44.7096 1119.63 44.7096C1118.47 44.7096 1118.18 46.073 1118.24 46.9756L1120.92 46.9748ZM1118.26 49.3912C1118.34 50.8213 1119.59 51.1495 1121.11 51.1495C1122.52 51.1495 1123.79 50.8851 1124.6 50.4256V53.3911C1123.24 53.8549 1121.6 54.0506 1119.8 54.0506C1115.48 54.0506 1113.19 51.8068 1113.19 47.8559C1113.19 44.0109 1115.48 42.079 1119.8 42.079C1123.93 42.079 1125.38 44.8445 1125.38 48.7102V49.3926H1118.26L1118.26 49.3912ZM1111.85 48.4205C1111.83 55.6326 1098.42 56.7604 1098.43 46.7799H1103.4V47.8662C1103.4 49.5839 1106.43 49.6142 1106.44 47.8662V38.0569H1111.83L1111.85 48.4205H1111.85Z" fill="#95989D"/>
<path d="M1083.63 41.3302C1083.63 41.6088 1083.39 41.8349 1083.1 41.8363H1077.22C1076.93 41.8363 1076.69 41.6103 1076.69 41.3318V41.3295C1076.69 41.0508 1076.93 40.8242 1077.22 40.8219H1083.1C1083.39 40.8211 1083.62 41.0457 1083.62 41.3235C1083.62 41.3258 1083.62 41.3273 1083.62 41.3295L1083.63 41.3302ZM1075.17 48.2926C1075.5 46.6017 1075.8 45.5931 1075.94 44.8211C1075.96 44.4343 1076.31 44.1386 1076.71 44.1601H1086.05C1087.11 44.1601 1086.72 43.3457 1086.72 43.3457L1085.42 39.0191C1085.42 39.0191 1085.3 38.4055 1084.7 38.4055H1074.74C1074.74 38.4055 1074.21 38.4159 1074.03 39.1139L1071.94 47.8651C1071.94 47.8651 1071.64 48.7231 1072.48 48.7231H1074.59C1075.01 48.7231 1075.14 48.5504 1075.18 48.2948" fill="#95989D"/>
</g>
</g>
</g>
</g>
<path d="M1153.9 70.875V61.0568H1155.68V69.384H1160V70.875H1153.9ZM1162.4 61.0568V62.0348C1162.4 62.316 1162.35 62.6085 1162.24 62.9121C1162.13 63.2125 1161.99 63.5002 1161.8 63.775C1161.61 64.0467 1161.4 64.28 1161.17 64.475L1160.36 63.9524C1160.54 63.6872 1160.69 63.4011 1160.82 63.0943C1160.95 62.7842 1161.02 62.4344 1161.02 62.0444V61.0568H1162.4ZM1165.67 61.0568V70.875H1163.89V61.0568H1165.67ZM1165.76 60.1747L1164.78 58.9474L1163.81 60.1747H1162.29V60.1076L1164.11 58.0366H1165.46L1167.28 60.1076V60.1747H1165.76ZM1169.25 61.0568V70.875H1167.52V61.0568H1169.25ZM1174.3 71.0188C1173.56 71.0188 1172.92 70.8654 1172.39 70.5587C1171.85 70.2486 1171.44 69.8108 1171.15 69.245C1170.87 68.6762 1170.72 68.0066 1170.72 67.2363C1170.72 66.4788 1170.87 65.8141 1171.15 65.242C1171.45 64.6667 1171.85 64.2193 1172.37 63.8997C1172.89 63.5769 1173.51 63.4155 1174.21 63.4155C1174.66 63.4155 1175.09 63.489 1175.49 63.636C1175.9 63.7799 1176.26 64.0035 1176.57 64.3071C1176.88 64.6108 1177.13 64.9976 1177.31 65.4674C1177.48 65.934 1177.57 66.4901 1177.57 67.1356V67.6677H1171.54V66.4981H1175.91C1175.91 66.1656 1175.84 65.87 1175.69 65.6111C1175.55 65.3491 1175.36 65.1429 1175.1 64.9927C1174.86 64.8425 1174.56 64.7674 1174.23 64.7674C1173.88 64.7674 1173.57 64.8537 1173.3 65.0262C1173.03 65.1957 1172.82 65.4194 1172.67 65.6974C1172.52 65.9723 1172.45 66.2743 1172.44 66.6035V67.6247C1172.44 68.0529 1172.52 68.4205 1172.68 68.7273C1172.84 69.0309 1173.05 69.2642 1173.34 69.4272C1173.62 69.587 1173.95 69.6669 1174.32 69.6669C1174.58 69.6669 1174.8 69.6318 1175.01 69.5615C1175.21 69.4879 1175.39 69.3809 1175.54 69.2403C1175.69 69.0996 1175.8 68.9254 1175.88 68.7177L1177.5 68.8998C1177.4 69.3281 1177.2 69.7021 1176.92 70.0217C1176.63 70.338 1176.27 70.5842 1175.82 70.7599C1175.38 70.9325 1174.87 71.0188 1174.3 71.0188ZM1182.47 70.875V61.0568H1186.15C1186.9 61.0568 1187.54 61.1974 1188.05 61.4787C1188.56 61.7599 1188.95 62.1467 1189.21 62.6389C1189.48 63.1278 1189.61 63.684 1189.61 64.3071C1189.61 64.9368 1189.48 65.496 1189.21 65.9851C1188.95 66.4741 1188.56 66.8592 1188.04 67.1405C1187.52 67.4186 1186.88 67.5575 1186.13 67.5575H1183.69V66.0953H1185.89C1186.33 66.0953 1186.69 66.0186 1186.97 65.8653C1187.25 65.7118 1187.46 65.5009 1187.59 65.2325C1187.73 64.9639 1187.8 64.6556 1187.8 64.3071C1187.8 63.9588 1187.73 63.6519 1187.59 63.3868C1187.46 63.1215 1187.25 62.9153 1186.96 62.7683C1186.68 62.6181 1186.32 62.543 1185.88 62.543H1184.25V70.875H1182.47ZM1194.23 71.0188C1193.5 71.0188 1192.86 70.8654 1192.32 70.5587C1191.79 70.2486 1191.38 69.8108 1191.09 69.245C1190.8 68.6762 1190.66 68.0066 1190.66 67.2363C1190.66 66.4788 1190.8 65.8141 1191.09 65.242C1191.38 64.6667 1191.79 64.2193 1192.31 63.8997C1192.83 63.5769 1193.44 63.4155 1194.14 63.4155C1194.6 63.4155 1195.02 63.489 1195.43 63.636C1195.83 63.7799 1196.19 64.0035 1196.5 64.3071C1196.81 64.6108 1197.06 64.9976 1197.24 65.4674C1197.42 65.934 1197.51 66.4901 1197.51 67.1356V67.6677H1191.47V66.4981H1195.84C1195.84 66.1656 1195.77 65.87 1195.63 65.6111C1195.49 65.3491 1195.29 65.1429 1195.04 64.9927C1194.79 64.8425 1194.5 64.7674 1194.17 64.7674C1193.81 64.7674 1193.5 64.8537 1193.23 65.0262C1192.96 65.1957 1192.75 65.4194 1192.6 65.6974C1192.46 65.9723 1192.38 66.2743 1192.38 66.6035V67.6247C1192.38 68.0529 1192.46 68.4205 1192.61 68.7273C1192.77 69.0309 1192.99 69.2642 1193.27 69.4272C1193.55 69.587 1193.88 69.6669 1194.26 69.6669C1194.51 69.6669 1194.74 69.6318 1194.94 69.5615C1195.15 69.4879 1195.32 69.3809 1195.47 69.2403C1195.62 69.0996 1195.74 68.9254 1195.81 68.7177L1197.43 68.8998C1197.33 69.3281 1197.14 69.7021 1196.85 70.0217C1196.57 70.338 1196.2 70.5842 1195.76 70.7599C1195.31 70.9325 1194.8 71.0188 1194.23 71.0188ZM1198.98 70.875V63.5113H1200.66V64.7387H1200.73C1200.87 64.3136 1201.1 63.986 1201.43 63.7559C1201.75 63.5226 1202.13 63.4059 1202.55 63.4059C1202.65 63.4059 1202.76 63.4107 1202.87 63.4203C1202.99 63.4267 1203.09 63.4379 1203.17 63.4538V65.0502C1203.1 65.0247 1202.98 65.0023 1202.82 64.9832C1202.67 64.9608 1202.52 64.9496 1202.37 64.9496C1202.05 64.9496 1201.77 65.0183 1201.52 65.1557C1201.27 65.2899 1201.07 65.4769 1200.93 65.7167C1200.78 65.9563 1200.71 66.2328 1200.71 66.546V70.875H1198.98ZM1204.33 70.875V63.5113H1206.01V64.7387H1206.09C1206.22 64.3136 1206.45 63.986 1206.78 63.7559C1207.11 63.5226 1207.48 63.4059 1207.9 63.4059C1208 63.4059 1208.11 63.4107 1208.23 63.4203C1208.35 63.4267 1208.45 63.4379 1208.53 63.4538V65.0502C1208.45 65.0247 1208.34 65.0023 1208.18 64.9832C1208.02 64.9608 1207.87 64.9496 1207.72 64.9496C1207.41 64.9496 1207.12 65.0183 1206.87 65.1557C1206.62 65.2899 1206.42 65.4769 1206.28 65.7167C1206.14 65.9563 1206.06 66.2328 1206.06 66.546V70.875H1204.33ZM1212.59 71.0188C1211.87 71.0188 1211.25 70.8606 1210.72 70.5443C1210.19 70.2278 1209.78 69.7851 1209.49 69.2163C1209.2 68.6474 1209.06 67.9826 1209.06 67.2219C1209.06 66.4613 1209.2 65.795 1209.49 65.2229C1209.78 64.6507 1210.19 64.2065 1210.72 63.8901C1211.25 63.5736 1211.87 63.4155 1212.59 63.4155C1213.31 63.4155 1213.93 63.5736 1214.46 63.8901C1214.99 64.2065 1215.39 64.6507 1215.68 65.2229C1215.97 65.795 1216.12 66.4613 1216.12 67.2219C1216.12 67.9826 1215.97 68.6474 1215.68 69.2163C1215.39 69.7851 1214.99 70.2278 1214.46 70.5443C1213.93 70.8606 1213.31 71.0188 1212.59 71.0188ZM1212.6 69.6285C1212.99 69.6285 1213.31 69.5215 1213.58 69.3073C1213.84 69.0901 1214.03 68.7992 1214.16 68.4349C1214.29 68.0705 1214.36 67.6646 1214.36 67.2172C1214.36 66.7665 1214.29 66.359 1214.16 65.9946C1214.03 65.6271 1213.84 65.3347 1213.58 65.1174C1213.31 64.9 1212.99 64.7913 1212.6 64.7913C1212.2 64.7913 1211.87 64.9 1211.6 65.1174C1211.34 65.3347 1211.14 65.6271 1211.01 65.9946C1210.88 66.359 1210.82 66.7665 1210.82 67.2172C1210.82 67.6646 1210.88 68.0705 1211.01 68.4349C1211.14 68.7992 1211.34 69.0901 1211.6 69.3073C1211.87 69.5215 1212.2 69.6285 1212.6 69.6285ZM1221.27 63.5113V64.8537H1217.03V63.5113H1221.27ZM1218.08 61.7472H1219.81V68.6601C1219.81 68.8934 1219.85 69.0724 1219.92 69.1971C1219.99 69.3186 1220.09 69.4016 1220.21 69.4464C1220.33 69.4911 1220.46 69.5135 1220.6 69.5135C1220.71 69.5135 1220.81 69.5055 1220.9 69.4896C1220.99 69.4736 1221.06 69.4592 1221.11 69.4464L1221.4 70.8031C1221.31 70.8351 1221.18 70.8702 1221 70.9085C1220.83 70.9469 1220.63 70.9693 1220.38 70.9757C1219.95 70.9885 1219.55 70.9229 1219.21 70.7792C1218.86 70.6321 1218.58 70.4052 1218.38 70.0984C1218.18 69.7915 1218.08 69.408 1218.08 68.9478V61.7472Z" fill="#95989D"/>
</g>
</g>
</g>
</g>
<g clip-path="url(#clip17_4_10)">
<g clip-path="url(#clip18_4_10)">
<mask id="mask9_4_10" style="mask-type:luminance" maskUnits="userSpaceOnUse" x="1275" y="38" width="121" height="33">
<path d="M1395.67 38.7168H1275.71V70.3017H1395.67V38.7168Z" fill="white"/>
</mask>
<g mask="url(#mask9_4_10)">
<path d="M1302.37 59.9016L1305.92 42.927H1311.42L1310.22 48.6552H1315.43L1316.64 42.927H1322.14L1318.58 59.9016H1313.08L1314.45 53.3225H1309.25L1307.87 59.9016H1302.37ZM1329.14 59.9016L1329.18 58.5813C1327.54 59.877 1326.06 60.2561 1324.24 60.2561C1321.93 60.2561 1320.13 59.0997 1320.66 56.5301C1321.83 50.907 1330 53.4642 1330.48 51.1514C1330.66 50.2566 1329.62 50.1393 1329.1 50.1393C1328.43 50.1393 1327.49 50.2786 1327.15 51.3396H1322.49C1323.03 48.7237 1325.2 47.1834 1330.02 47.1834C1335.81 47.1834 1335.7 49.352 1335.09 52.3005L1333.88 58.0752C1333.73 58.7842 1333.68 59.1363 1334.2 59.6571L1334.15 59.9016H1329.14ZM1329.79 54.4325C1328.04 55.2099 1326.02 54.8333 1325.68 56.4348C1325.56 57.0484 1326.05 57.4738 1327.01 57.4738C1328.71 57.4738 1329.56 56.1291 1329.79 54.4325ZM1338.15 47.5477H1342.56L1342.04 50.0463H1342.08C1343.17 48.1125 1344.55 47.1932 1346.44 47.1932C1346.64 47.2103 1346.85 47.2372 1347.05 47.2739L1346.03 52.1636C1345.71 52.0927 1345.39 52.0462 1345.06 52.0217C1343.08 52.0217 1341.88 52.9655 1341.32 55.6279L1340.42 59.9016H1335.57L1338.15 47.5477ZM1348.29 47.5477H1352.72L1352.32 49.4743C1353.73 47.9878 1355.08 47.1859 1356.91 47.1859C1360.13 47.1859 1361.25 49.0954 1360.54 52.4912L1358.99 59.8942H1354.15L1355.51 53.3713C1355.77 52.149 1355.67 51.061 1354.3 51.061C1352.81 51.061 1352.21 52.0267 1351.89 53.6061L1350.57 59.9016H1345.71L1348.29 47.5477ZM1369.95 47.0905C1374.26 47.0905 1376.39 49.6601 1375.58 53.5034C1374.64 58.0313 1371.16 60.1533 1367.24 60.1533C1363.32 60.1533 1360.75 57.9823 1361.63 53.7626C1362.53 49.4743 1365.82 47.0905 1369.95 47.0905ZM1366.53 53.5034C1366.05 55.8382 1366.7 56.8503 1367.93 56.8503C1369.24 56.8503 1370.24 55.8382 1370.73 53.5034C1371.11 51.6868 1370.61 50.325 1369.33 50.391C1367.67 50.391 1366.83 52.1122 1366.53 53.5034ZM1375.43 59.9016L1378 47.5477H1382.85L1380.28 59.9016H1375.43ZM1387 55.8651C1386.88 56.266 1386.98 56.6988 1387.27 56.997C1387.58 57.2562 1387.98 57.3907 1388.38 57.3736C1389.13 57.3736 1389.97 57.129 1390.15 56.266C1390.57 54.2857 1382.75 55.8651 1383.75 51.0781C1384.41 47.9193 1387.84 47.0001 1390.38 47.0001C1393.05 47.0001 1396.04 47.6137 1395.64 50.8899H1391.23C1391.28 50.5647 1391.18 50.2322 1390.95 49.995C1390.7 49.775 1390.37 49.665 1390.03 49.687C1389.2 49.687 1388.6 49.9486 1388.47 50.5598C1388.12 52.2711 1396.08 51.127 1395.11 55.7477C1394.58 58.3172 1392.11 60.0629 1387.64 60.0629C1384.84 60.0629 1381.94 59.1901 1382.38 55.8651H1387Z" fill="#95989D"/>
<path d="M1281.32 38.7266L1275.77 66.703L1275.71 66.9694L1286.73 57.7939L1286.75 57.7719L1290.51 38.7168L1281.32 38.7266ZM1287.7 57.7646L1294.94 66.9645L1300.71 38.7168H1291.44L1287.7 57.7646Z" fill="#95989D"/>
</g>
</g>
</g>
</g>
<rect width="67.4811" height="108" fill="url(#paint0_linear_4_10)"/>
<rect x="1289.51" width="67.4811" height="108" fill="url(#paint1_linear_4_10)"/>
</g>
<defs>
<linearGradient id="paint0_linear_4_10" x1="0" y1="54" x2="67.4811" y2="54" gradientUnits="userSpaceOnUse">
<stop stop-color="white"/>
<stop offset="1" stop-color="white" stop-opacity="0"/>
</linearGradient>
<linearGradient id="paint1_linear_4_10" x1="1356.99" y1="54" x2="1289.51" y2="54" gradientUnits="userSpaceOnUse">
<stop stop-color="white"/>
<stop offset="1" stop-color="white" stop-opacity="0"/>
</linearGradient>
<clipPath id="clip0_4_10">
<rect width="1357" height="108" fill="white"/>
</clipPath>
<clipPath id="clip1_4_10">
<rect width="2619" height="108" fill="white" transform="translate(-635.82)"/>
</clipPath>
<clipPath id="clip2_4_10">
<rect width="162" height="108" fill="white" transform="translate(-68.8201)"/>
</clipPath>
<clipPath id="clip3_4_10">
<rect width="162" height="108" fill="white" transform="translate(-68.8201)"/>
</clipPath>
<clipPath id="clip4_4_10">
<rect width="162" height="108" fill="white" transform="translate(120.18)"/>
</clipPath>
<clipPath id="clip5_4_10">
<rect width="162" height="108" fill="white" transform="translate(120.18)"/>
</clipPath>
<clipPath id="clip6_4_10">
<rect width="162" height="108" fill="white" transform="translate(309.18)"/>
</clipPath>
<clipPath id="clip7_4_10">
<rect width="162" height="108" fill="white" transform="translate(309.18)"/>
</clipPath>
<clipPath id="clip8_4_10">
<rect width="162" height="108" fill="white" transform="translate(498.18)"/>
</clipPath>
<clipPath id="clip9_4_10">
<rect width="162" height="108" fill="white" transform="translate(498.18)"/>
</clipPath>
<clipPath id="clip10_4_10">
<rect width="162" height="108" fill="white" transform="translate(687.18)"/>
</clipPath>
<clipPath id="clip11_4_10">
<rect width="162" height="108" fill="white" transform="translate(687.18)"/>
</clipPath>
<clipPath id="clip12_4_10">
<rect width="162" height="108" fill="white" transform="translate(876.18)"/>
</clipPath>
<clipPath id="clip13_4_10">
<rect width="162" height="108" fill="white" transform="translate(876.18)"/>
</clipPath>
<clipPath id="clip14_4_10">
<rect width="162" height="108" fill="white" transform="translate(1065.18)"/>
</clipPath>
<clipPath id="clip15_4_10">
<rect width="162" height="108" fill="white" transform="translate(1065.18)"/>
</clipPath>
<clipPath id="clip16_4_10">
<rect width="162" height="108" fill="white" transform="translate(1065.18)"/>
</clipPath>
<clipPath id="clip17_4_10">
<rect width="162" height="108" fill="white" transform="translate(1254.18)"/>
</clipPath>
<clipPath id="clip18_4_10">
<rect width="162" height="108" fill="white" transform="translate(1254.18)"/>
</clipPath>
</defs>
</svg>
