<svg viewBox="0 0 464.873 180.555" height="180.555" width="464.873" xmlns:xlink="http://www.w3.org/1999/xlink" xmlns="http://www.w3.org/2000/svg" data-sanitized-data-name="Group 72" data-name="Group 72" id="Group_72">
  <defs>
    <clipPath id="clip-path">
      <rect fill="#fbf9f9" height="180.555" width="464.873" data-sanitized-data-name="Rectangle 1" data-name="Rectangle 1" id="Rectangle_1"></rect>
    </clipPath>
  </defs>
  <g clip-path="url(#clip-path)" data-sanitized-data-name="Group 1" data-name="Group 1" id="Group_1">
    <path fill="#b72574" transform="translate(-53.646 -55.49)" d="M212.943,203.709c-2.2,2.707-4.6,5.253-6.781,7.975-.566.7-2.406,1.425-.628,2.77-5.646,1.594-11.241,2.127-16.725-.621.915-1.436-.426-2.05-1.058-2.931-2.568-3.593-5.958-6.55-8.045-10.5a11.3,11.3,0,0,1,2.608-13.4c3.394-3.045,7.508-3.2,11.74,0,2.421,1.844,4.173,1.561,6.484-.154,4.779-3.534,10.366-2.457,13.265,2.255,3.042,4.952,2.818,10.058-.86,14.6" data-sanitized-data-name="Path 1" data-name="Path 1" id="Path_1"></path>
    <path fill="#fbf9f9" transform="translate(-37.022 -4.546)" d="M216.445,118.53c-5.527-11.717-14.76-19.005-27.707-21.992-9.13-2.105-17.348-.434-25.517,3.127-4.03,1.756-7.365,4.652-11.053,7.716,0-3.9.3-7.3-.077-10.625-.419-3.644,1.26-3.847,3.995-3.267a34.54,34.54,0,0,0,16.9-.72,39.883,39.883,0,0,0,28.575-32.96c-3.036,0-5.716.147-8.374-.049-2.055-.161-2.762.679-3.231,2.56-1.616,6.463-5.38,11.43-10.668,15.487-6.513,4.995-13.845,5.68-21.581,4.932-.287-.371-.58-.741-.867-1.112,4.61-4.225,9.345-8.331,13.816-12.71,9.086-8.891,18.005-17.949,27.044-26.889,1.153-1.14,1.238-2.05.713-3.617a29.012,29.012,0,0,0-6.9-10.632c-13.208-13.864-33.241-16.613-49.336-6.841-13.382,8.128-19.691,20.593-18.916,36.017a37.142,37.142,0,0,0,15.515,28.9,5.254,5.254,0,0,1,2.358,4.827c-.14,12.7.029,25.406-.1,38.109-.077,6.89.364,13.633,2.79,20.167a37.655,37.655,0,0,0,18.09,20.761c8.969,4.757,18.369,6.352,28.436,3.484a40.632,40.632,0,0,0,17.794-10.073,38.733,38.733,0,0,0,10.324-17.537,37.721,37.721,0,0,0-2.02-27.064M144.27,76.707c-6.526-6.072-10.568-13.227-10.227-22.412-.608-17.033,16.551-31.317,33.709-27.742A30.221,30.221,0,0,1,185.428,37.29c.819.979.812.951-.09,1.861-6.478,6.554-12.894,13.151-19.544,19.53-5.868,5.631-11.437,11.577-17.041,17.481-1.475,1.546-2.573,2.322-4.483.546m44.209,85.906c-5.646,1.595-11.241,2.126-16.725-.623-8.284-1.924-13.739-7.653-17.046-14.8a28.13,28.13,0,0,1,5.841-32.583c14.3-14.109,39.333-9.471,46.8,10.031a28.743,28.743,0,0,1-18.874,37.976" data-sanitized-data-name="Path 2" data-name="Path 2" id="Path_2"></path>
    <path fill="#fbf9f9" transform="translate(-118.708 -38.918)" d="M395.081,179.674c0-7.108.169-14.22-.029-21.32A27.507,27.507,0,0,1,417.5,130.2c10.212-2.07,19.535.9,26.676,9.064,1.322,1.513,2.057,1.747,3.673-.037,7.082-7.826,16.31-11.2,26.426-9.1,13.974,2.9,22.9,12.956,23.3,28.473.4,15.717.044,31.452.132,47.177.007,2.129-.551,2.759-2.726,2.781-8.258.086-8.25.173-8.25-8.232,0-13.86-.059-27.723.015-41.587.059-10.37-7.538-18.128-17.6-18.15-10.609-.022-17.823,8.434-17.911,18.007q-.209,23.06.022,46.127c.022,2.852-.36,4.026-3.659,3.877-6.913-.31-6.921-.088-6.921-7.176-.007-14.679-.11-29.358.037-44.035.073-7.384-6.649-16.1-16.09-16.778-8.537-.617-16.964,5.282-18.294,13.191a38.563,38.563,0,0,0-.676,6.553c.015,15.028-.044,30.056.059,45.082.022,2.382-.529,3.154-3.027,3.13-7.6-.075-7.6.039-7.6-7.571V179.674" data-sanitized-data-name="Path 3" data-name="Path 3" id="Path_3"></path>
    <path fill="#fbf9f9" transform="translate(0 0)" d="M78.891,7.82c0-7.848,0-7.73-7.988-7.82-2.56-.028-3.071.811-3.008,3.169.154,6.337.049,12.689.049,19.579-2.092-1.791-3.609-3.33-5.351-4.54-10.5-7.268-21.908-9.115-34.213-5.666C14.606,16.4,5.513,25.664,1.694,38.9-1.881,51.28.134,63.4,8.4,74.21,19.027,88.1,39.306,93.873,55.513,86.046c14.885-7.191,22.874-19.1,23.3-35.612.364-14.193.077-28.407.077-42.614M39.774,78.666c-15.473.126-29.057-13.6-28.959-28.554a28.828,28.828,0,0,1,28.421-28.54c15.592-.147,29.022,12.332,28.7,28.449.637,15.242-13.249,28.519-28.162,28.645" data-sanitized-data-name="Path 4" data-name="Path 4" id="Path_4"></path>
    <path fill="#fbf9f9" transform="translate(-165.909 -39.011)" d="M617.12,139.628c-13.878-11.7-32.025-13.171-47.277-3.128-11.652,7.674-17.765,18.8-17.743,33q.011,20.974,0,41.954c0,8.282,0,8.2,8.412,8.08,2.072-.026,2.454-.694,2.424-2.59-.118-6.362-.044-12.736-.044-19.695a14.523,14.523,0,0,1,1.69,1.056c11.108,9.771,23.921,13.358,38.078,8.926,14.9-4.669,24.59-15.145,27.367-30.535,2.571-14.369-1.44-27.407-12.908-37.072m-26.1,58.288c-14.988.569-28.3-13.2-28.2-28.665.118-15.417,13.195-28.7,29.079-28.344a28.652,28.652,0,0,1,28.035,28.625c-.073,15.976-13.371,29.035-28.917,28.384" data-sanitized-data-name="Path 5" data-name="Path 5" id="Path_5"></path>
    <path fill="#fbf9f9" transform="translate(-73.828 -4.582)" d="M324.543,55.317a38.938,38.938,0,0,0-5.121-20.167c-9.275-16.026-26.055-22.322-42.487-19.076A37.823,37.823,0,0,0,252.518,32.5a38.439,38.439,0,0,0-5.837,30.786,37.928,37.928,0,0,0,12.941,21.37c5,4.2,10.649,7.414,17,8.638,13.731,2.665,25.975-.686,36.83-11.192v3.127c.07,8.29.07,8.2,8.276,8.254,2.281.015,2.869-.587,2.847-2.868q-.176-17.638-.029-35.3M285.274,83.234c-15.362-.1-28.976-12.948-28.741-28.757.242-16.025,12.2-28.295,28.726-28.449,16.13-.154,29.13,13.529,28.19,28.561,1.227,15-13.408,28.736-28.175,28.645" data-sanitized-data-name="Path 6" data-name="Path 6" id="Path_6"></path>
    <path fill="#fbf9f9" transform="translate(-81.799 -39.571)" d="M272.258,154.955c0-6.759.073-13.518-.044-20.277-.033-2.11.3-3.014,2.766-2.994,7.821.057,7.821-.064,7.821,7.727,0,9.905-.022,19.812,0,29.716.033,13.716,8.056,25.368,21.809,28.757,9.749,2.4,18.933.286,26.441-7.183,6.524-6.487,9.294-14.245,9.154-23.344-.162-10.837.077-21.68-.118-32.513-.048-2.762.815-3.2,3.3-3.152,7.255.149,7.259.039,7.259,7.136,0,10.607-.136,21.214.037,31.817.242,15.267-9.848,30.173-24.307,36a39.179,39.179,0,0,1-54.135-37.706c.073-4.658.015-9.323.015-13.985" data-sanitized-data-name="Path 7" data-name="Path 7" id="Path_7"></path>
    <path fill="#fbf9f9" transform="translate(-110.951 -4.513)" d="M369.543,70.26c0-7.563-.845-15.244.2-22.662,1.638-11.722,8.346-20.628,18.389-26.934,5.473-3.437,11.571-4.842,17.889-5.6,2.072-.249,2.439.541,2.469,2.449.1,8.153.066,7.739-7.78,9.515-8.177,1.854-14.113,7.143-17.86,14.666a27.614,27.614,0,0,0-3.108,12.977c.184,11.873-.044,23.753.14,35.626.044,2.755-.808,3.2-3.291,3.148-7.266-.146-7.266-.035-7.266-7.464V70.261h.22" data-sanitized-data-name="Path 8" data-name="Path 8" id="Path_8"></path>
  </g>
</svg>
