<?xml version="1.0" encoding="UTF-8"?>
<svg id="Layer_1" xmlns="http://www.w3.org/2000/svg" version="1.1" viewBox="0 0 800 800">
  <!-- Generator: Adobe Illustrator 29.8.1, SVG Export Plug-In . SVG Version: 2.1.1 Build 2)  -->
  <defs>
    <style>
      .st0 {
        fill: #a8e10c;
      }
    </style>
  </defs>
  <g id="SVGRepo_iconCarrier">
    <g id="Layer_2">
      <path class="st0" d="M642.5,625l-37.5-37.5c51.25-56.25,82.5-130,82.5-212.5,0-172.5-140-312.5-312.5-312.5S62.5,202.5,62.5,375s140,312.5,312.5,312.5c81.25,0,156.25-31.25,212.5-82.5l37.5,37.5v82.5h25v-75h75v-25h-82.5ZM533.75,516.25c33.75-37.5,53.75-86.25,53.75-141.25,0-117.5-95-212.5-212.5-212.5s-212.5,95-212.5,212.5,95,212.5,212.5,212.5c53.75,0,103.75-20,141.25-53.75l53.75,53.75c-51.25,47.5-118.75,75-193.75,75-80,0-151.25-32.5-203.75-83.75-52.5-52.5-85-123.75-85-203.75s32.5-151.25,83.75-203.75c52.5-51.25,123.75-83.75,203.75-83.75s151.25,32.5,203.75,83.75c51.25,52.5,83.75,123.75,83.75,203.75,0,75-28.75,142.5-75,193.75l-53.75-52.5ZM375,275c-55,0-100,45-100,100s45,100,100,100c22.5,0,43.75-7.5,61.25-21.25l62.5,62.5c-33.75,28.75-76.25,46.25-123.75,46.25-51.25,0-98.75-21.25-132.5-55-33.75-33.75-55-81.25-55-132.5s21.25-98.75,55-132.5c33.75-33.75,81.25-55,132.5-55s98.75,21.25,132.5,55c33.75,33.75,55,81.25,55,132.5,0,47.5-17.5,90-46.25,123.75l-62.5-62.5c13.75-17.5,21.25-38.75,21.25-61.25,0-55-45-100-100-100ZM418.75,436.25c-12.5,8.75-27.5,13.75-43.75,13.75-21.25,0-40-8.75-52.5-22.5-13.75-12.5-22.5-31.25-22.5-52.5s8.75-40,22.5-52.5c13.75-13.75,32.5-22.5,52.5-22.5,21.25,0,40,8.75,52.5,22.5,13.75,13.75,22.5,32.5,22.5,52.5,0,16.25-5,31.25-13.75,43.75l-52.5-52.5-17.5,17.5,52.5,52.5Z"/>
    </g>
  </g>
</svg>