<svg width="36" height="32" viewBox="0 0 36 32" fill="none" xmlns="http://www.w3.org/2000/svg">
<path d="M32.6977 1.28755C27.8518 4.21378 24.4595 9.36397 24.9442 13.2266C25.7922 18.7279 34.1514 15.0994 35.8475 22.8247C36.6956 26.9214 33.9091 30.55 29.9113 31.2522C24.7019 32.1886 20.704 28.0918 19.7348 22.5906C17.6752 12.2902 24.9442 3.74559 31.8497 0L32.6977 1.28755ZM0.350952 22.5906C-1.70858 12.2902 5.68149 3.74559 12.4658 0.117055L13.3138 1.4046C8.58907 4.21378 5.07576 9.48101 5.56035 13.3436C6.40839 18.845 14.7677 15.2164 16.4637 22.8247C17.3117 26.9214 14.5253 30.667 10.5274 31.3693C5.31805 32.3056 1.32015 28.0918 0.350952 22.5906Z" fill="black"/>
</svg>
