<svg id="Layer_1" version="1.1" viewBox="0 0 800 800"><defs><style>.st0{fill:#a8e10c}</style></defs><g id="SVGRepo_iconCarrier"><g id="Layer_2"><path d="M212.5 178.75v500h375v-500zm25 475v-450h325v450z" class="st0"/><path d="M268.75 267.5H400v25H268.75z" class="st0"/><path d="M543.75 87.5v-25h-287.5v25h-87.5v650h462.5v-650zm-262.5 0h237.5v26.25h-237.5zm325 625h-412.5v-600h62.5v25h287.5v-25h62.5z" class="st0"/><path d="M268.75 393.75H400v25H268.75zm163.75 62.5h100v-100h-100zm25-75h50v50h-50zM268.75 520H400v25H268.75zm163.75 62.5h100v-100h-100zm25-75h50v50h-50zm82.5-285-8.75 7.5H432.5v100h100v-66.25l25-23.75zM457.5 255h48.75l-17.5 16.25-8.75-8.75-20 16.25 22.5 27.5h-26.25V255zm50 50H490l17.5-16.25z" class="st0"/></g></g></svg>