<svg fill="none" viewBox="0 0 1357 108"><g clip-path="url(#a)"><g clip-path="url(#b)"><g clip-path="url(#c)"><g clip-path="url(#d)"><mask id="e" width="117" height="31" x="-46" y="39" maskUnits="userSpaceOnUse" style="mask-type:luminance"><path fill="#fff" d="M70.68 39.375H-45.195V69.75H70.68z"/></mask><g fill="#95989D" mask="url(#e)"><path d="M51.64 64.082c1.393-.952 1.642-1.987 1.642-3.548 0-1.035-.315-2.267-.63-2.924l-.83-1.577-.762-1.298c-1.476-2.612-1.576-4.813-1.476-6.62.2-3.582 2.123-6.736 3.814-8.132.15-.132.299-.247.447-.362-6.55 1.249-11.525 7.015-11.525 13.915 0 3.86 1.56 7.36 4.063 9.922 2.24 1.939 4.08 1.43 5.257.624m11.743-15.967c.1 1.807 0 4.008-1.476 6.62l-.763 1.298-.829 1.577c-.298.657-.63 1.905-.63 2.924 0 1.577.266 2.612 1.642 3.548 1.21.838 3.134 1.347 5.473-.837a14.14 14.14 0 0 0 3.864-9.71c0-6.915-4.992-12.698-11.56-13.914.15.115.299.23.465.362 1.708 1.396 3.615 4.534 3.814 8.132"/><path d="m53.15 53.552.73 1.265.945 1.774c.415.871.846 2.481.846 3.927 0 1.823-.315 3.893-2.686 5.52a7.6 7.6 0 0 1-1.444.755 14.2 14.2 0 0 0 4.96.904c1.74 0 3.4-.312 4.942-.887a7.3 7.3 0 0 1-1.46-.756c-2.355-1.627-2.686-3.696-2.686-5.52 0-1.445.448-3.055.845-3.926l.946-1.774.729-1.265c1.178-2.054 1.261-3.762 1.16-5.306-.164-3.072-1.856-5.537-2.951-6.424a21 21 0 0 0-1.558-1.182c-.465.312-.979.706-1.56 1.182-1.061.887-2.752 3.335-2.919 6.407-.099 1.544-.016 3.253 1.161 5.306m2.024-10.35c.63 0 1.127.51 1.127 1.118 0 .624-.497 1.117-1.127 1.117-.614 0-1.128-.51-1.128-1.117 0-.608.498-1.117 1.128-1.117m-43.251 6.784H-2.34l.216-1.199h14.262l.398-2.349H-4.098l-1.045 5.914H9.12l-.2 1.15H-5.357l-.398 2.365h16.634zm16.135 5.882h2.371l1.692-9.43H17.858l1.277-7.064h-2.388l-2.952 16.493h2.388l1.26-7.08h11.875zM38.224 41.74h-2.422l-.447 2.35h2.404zm-4.909 14.129h2.339l1.691-9.43h-2.338zM5.288 60.682c-1.343 0-1.924.476-2.206 1.807l-.05.263c-.149.706-.116 1.166.133 1.462.315.378.896.427 1.377.427h3.4c.182 0 .232.016.232.033 0 .016.033.098-.034.378l-.149.739c-.1.493-.182.51-.497.51H3.812c-.63 0-.945-.034-1.26-.116l-.266-.066-.016.28-.067.722-.016.247h5.257c1.16 0 1.791-.394 1.973-1.249l.25-1.15c.149-.706.099-1.166-.15-1.462-.249-.295-.663-.427-1.377-.427h-3.3c-.182 0-.232-.016-.232-.033-.017-.016-.033-.098.033-.377l.083-.428c.1-.492.166-.509.498-.509h3.582c.63 0 .929.033 1.26.115l.282.066.017-.28.033-.739.016-.246H5.288zm12.702 0h-3.465a1.5 1.5 0 0 0-.514.082l.43-2.054.067-.279h-1.774l.016.247c.017.328-.033.657-.15 1.265l-1.243 5.831c-.133.625-.232.937-.381 1.282l-.15.328H12.8l-.017-.246c-.016-.329.017-.657.15-1.265l.762-3.614c.1-.493.166-.51.498-.51h3.599c.182 0 .232.017.232.033 0 .017.033.099-.033.378l-.763 3.614c-.133.608-.216.92-.382 1.282l-.149.328h1.974l-.017-.246c-.016-.345.033-.657.15-1.265l.696-3.286c.15-.706.1-1.166-.15-1.478-.215-.296-.646-.427-1.36-.427m9.437 0h-3.78c-1.344 0-1.925.476-2.207 1.807l-.63 3.006c-.15.707-.116 1.167.133 1.462.315.378.895.427 1.376.427h3.798c1.343 0 1.924-.476 2.206-1.807l.63-2.99c.15-.706.116-1.166-.133-1.462-.265-.312-.68-.443-1.393-.443m-1.26 5.635h-3.649c-.182 0-.232-.017-.232-.033-.016-.017-.033-.082.033-.395l.78-3.63c.1-.493.182-.51.497-.51h3.649c.182 0 .232.017.232.034.017.016.033.098-.033.377l-.763 3.631c-.116.51-.182.526-.514.526m10.497-5.635h-3.283c-.133 0-.448 0-.73.148l.016-.148h-1.592l.017.246c.017.345-.033.674-.15 1.282l-1.26 5.947c-.132.607-.215.936-.381 1.28l-.15.33h1.974l-.016-.247c-.017-.328.016-.64.149-1.281 0 0 .116-.559.215-.986.15.082.365.131.68.131h3.284c1.31 0 1.89-.476 2.156-1.807l.63-2.99c.15-.706.1-1.166-.149-1.462-.232-.312-.663-.443-1.41-.443m-4.925 5.224.763-3.63c.1-.493.182-.51.497-.51h3.516c.182 0 .232.017.232.033.017.016.033.099-.033.378l-.763 3.63c-.1.493-.166.51-.497.51h-3.516c-.183 0-.232-.017-.232-.033-.017-.017-.034-.082.033-.378m36.819-.641c0 .148-.1.181-.315.181h-.166v-.345h.233c.182 0 .248.05.248.164m.332.97-.017-.033-.349-.543c.216-.049.332-.18.332-.377 0-.28-.165-.411-.497-.411h-.548v1.38h.266v-.559h.166l.348.543.017.016h.265a.85.85 0 0 1-.597.23c-.514 0-.896-.394-.896-.936 0-.526.382-.92.896-.92.497 0 .895.41.895.92a.9.9 0 0 1-.281.69m-.614-1.84c-.647 0-1.178.525-1.178 1.166 0 .657.514 1.166 1.178 1.166s1.178-.509 1.178-1.166-.531-1.167-1.178-1.167"/></g></g></g><g clip-path="url(#f)"><g clip-path="url(#g)"><mask id="h" width="103" height="53" x="150" y="21" maskUnits="userSpaceOnUse" style="mask-type:luminance"><path fill="#fff" d="M252.446 21.778H150.939v51.963h101.507z"/></mask><g fill="#95989D" mask="url(#h)"><path d="M178.289 50.751c.578 1.575 1.788 2.572 3.419 2.572 1.367 0 2.577-.735 2.577-2.152 0-.997-.684-1.784-2.052-2.257l-1.945-.682c-2.42-.84-3.787-2.257-3.787-4.514 0-2.782 2.156-4.619 5.049-4.619 2.314 0 4.418 1.417 5.207 3.57l-2.367 1.207c-.474-1.208-1.42-2.205-2.788-2.205-1.314 0-2.209.735-2.209 1.837 0 .997.684 1.575 1.999 2.1l1.999.787c2.524.997 3.786 2.414 3.786 4.566 0 3.097-2.524 4.934-5.469 4.934-2.63.105-4.997-1.575-5.838-4.042zm13.936-9.762v3.359h2.998v2.257h-2.998v5.09c0 1.26.579 1.785 1.789 1.785.421 0 .894-.104 1.262-.367v2.362a3.9 3.9 0 0 1-2.051.42c-2.314 0-3.629-1.365-3.629-3.78v-5.51h-1.683v-2.257h1.683v-3.36zm9.941 12.544c1.946.053 3.576-1.47 3.629-3.412a3.52 3.52 0 0 0-3.419-3.621c-1.946-.053-3.576 1.47-3.629 3.411v.105c0 1.943 1.473 3.517 3.419 3.517m5.943-9.185v11.337h-2.63v-1.627A4.79 4.79 0 0 1 201.64 56c-3.156 0-5.523-2.624-5.523-5.931s2.42-5.931 5.523-5.931a4.55 4.55 0 0 1 3.839 1.837V44.4zm8.628 2.572c-.211-.105-.474-.105-.684-.105-1.999 0-3.156 1.522-3.156 3.884v4.986h-2.682V44.348h2.63v1.942c.578-1.312 1.946-2.205 3.366-2.152.315 0 .473 0 .526.052zm5.888-5.931v3.359h2.998v2.257h-2.998v5.09c0 1.26.578 1.785 1.788 1.785.421 0 .894-.104 1.262-.367v2.362a3.9 3.9 0 0 1-2.051.42c-2.314 0-3.629-1.365-3.629-3.78v-5.51h-1.683v-2.257h1.683v-3.36zm12.728 3.359h2.682v11.337h-2.682v-1.522c-.736 1.155-2.051 1.837-3.471 1.785-2.735 0-4.313-1.838-4.313-4.777V21.778h2.682v28.92c0 1.785.894 2.835 2.473 2.835 1.577 0 2.629-1.207 2.629-3.15zm10.991 2.152c-1.946-.053-3.576 1.47-3.629 3.411a3.52 3.52 0 0 0 3.419 3.622c1.946.052 3.576-1.47 3.629-3.412v-.105c.052-1.89-1.473-3.464-3.366-3.517zm-3.313-2.153v1.628c.893-1.208 2.314-1.942 3.839-1.89 3.155 0 5.522 2.572 5.522 5.931s-2.419 5.931-5.522 5.931a4.55 4.55 0 0 1-3.839-1.837v19.263h-2.683V44.347zm-10.78 26.927c1.945.052 3.576-1.47 3.628-3.412a3.52 3.52 0 0 0-3.418-3.621c-1.946-.053-3.576 1.47-3.629 3.411v.105c-.053 1.89 1.473 3.464 3.419 3.517m5.943-9.185v11.337h-2.63v-1.627a4.79 4.79 0 0 1-3.839 1.942c-3.156 0-5.523-2.625-5.523-5.931s2.42-5.931 5.523-5.931a4.55 4.55 0 0 1 3.839 1.837V62.14zm-69.162-4.829v16.218h-2.735V61.931l-5.417 11.547h-1.841l-5.365-11.547v11.495h-2.735V57.26h3.366l5.733 12.282 5.733-12.282zm4.364 10.497c.052 1.89 1.63 3.307 3.524 3.254 1.893-.052 3.313-1.627 3.26-3.516-.052-1.837-1.577-3.254-3.366-3.254a3.376 3.376 0 0 0-3.366 3.464zm9.467 0a6.045 6.045 0 0 1-5.943 6.141c-3.366.053-6.101-2.624-6.154-5.93-.052-3.308 2.63-6.09 5.943-6.142h.105c3.261-.105 5.944 2.467 6.049 5.721zm4.471 5.669h-2.735V62.088h2.683v1.523c.789-1.155 2.103-1.837 3.471-1.785 2.787 0 4.418 1.837 4.418 4.776v6.824h-2.683v-6.299c0-1.784-.894-2.834-2.524-2.834-1.578 0-2.682 1.207-2.682 3.15zm13.624-14.696v3.359h2.997v2.256h-2.997v5.092c0 1.26.578 1.784 1.788 1.784.42 0 .894-.105 1.262-.367v2.362c-.631.42-1.367.525-2.051.525-2.314 0-3.629-1.365-3.629-3.78v-5.616h-1.683V62.09h1.683v-3.36zm11.569 5.93c-.211-.105-.474-.105-.684-.105-1.999 0-3.156 1.523-3.156 3.885v4.986h-2.682V62.089h2.63v1.942c.578-1.313 1.946-2.205 3.366-2.152.315 0 .473 0 .526.052zm5.101-4.199 2.209-3.096h2.946l-2.788 3.096zm4.471 6.194c-.158-1.522-1.473-2.677-3.051-2.625a3.2 3.2 0 0 0-3.05 2.625zm2.261 4.146c-.999 1.89-2.998 3.044-5.101 2.94-3.472 0-5.891-2.467-5.891-5.931 0-3.412 2.525-5.931 5.785-5.931 3.314 0 5.681 2.571 5.681 5.93v.788h-8.731a3.17 3.17 0 0 0 3.261 2.887c1.472 0 2.261-.735 2.893-1.733z"/><path d="M232.251 71.274c1.945.052 3.576-1.47 3.628-3.412a3.52 3.52 0 0 0-3.418-3.621c-1.946-.053-3.576 1.47-3.629 3.411v.105c-.053 1.89 1.473 3.464 3.419 3.517m5.943-9.185v11.337h-2.63v-1.627a4.79 4.79 0 0 1-3.839 1.942c-3.156 0-5.523-2.625-5.523-5.931s2.42-5.931 5.523-5.931a4.55 4.55 0 0 1 3.839 1.837V62.14z"/></g></g></g><g clip-path="url(#i)"><g fill="#95989D" clip-path="url(#j)"><path d="M348.712 40.422c.36.29.615.689.749 1.215.058.231.068.476.088.715q.074.88.137 1.76c.027.375.042.75.072 1.125.039.508.089 1.015.13 1.523.028.341.048.683.074 1.023l.133 1.693c.026.346.046.694.073 1.04l.131 1.625.073.99.134 1.725c.026.347.045.694.072 1.04.042.542.089 1.084.132 1.625.026.341.047.683.073 1.024.044.564.091 1.127.133 1.692.027.363.045.727.073 1.09.041.537.089 1.072.131 1.608.027.347.048.694.074 1.04l.133 1.71c.026.335.046.67.072 1.006.044.57.092 1.14.134 1.71.028.374.044.75.072 1.124.041.536.089 1.072.133 1.608q.037.46.069.922.054.856.105 1.713c.037.604-.182 1.126-.549 1.59a3.5 3.5 0 0 1-2.002 1.261c-.06.014-.125.009-.187.012-.059.011-.118.032-.177.032q-16.353.003-32.705 0c-.059 0-.118-.02-.177-.032-.524-.02-1.018-.137-1.411-.503-.414-.385-.504-.886-.417-1.413.042-.25.147-.497.259-.728.559-1.16 1.132-2.312 1.698-3.468l1.426-2.922 1.479-3.028 1.403-2.876 1.472-3.013 1.058-2.16 1.502-3.073 1.549-3.163-1.338-1.14-11.114 22.735c-.307.628-.618 1.256-.894 1.897-.121.28-.157.594-.232.892v.677c.061.261.099.532.189.784.405 1.14 1.268 1.776 2.418 2.048.433.102.89.145 1.336.145q16.203.011 32.405.004c1.524 0 2.723-.694 3.694-1.804.7-.802 1.07-1.742 1.02-2.81-.041-.862-.121-1.72-.184-2.58l-.151-2.04-.228-3.002-.183-2.444-.229-3.001c-.062-.815-.12-1.63-.182-2.445l-.262-3.405-.183-2.428-.228-2.95-.182-2.41-.264-3.422c-.046-.607-.077-1.216-.143-1.82-.158-1.465-.938-2.51-2.255-3.168a4 4 0 0 0-.964-.333z"/><path d="M338.07 29.25c.315.05.631.094.945.15 1.683.302 3.189 1.01 4.557 2.018a15.7 15.7 0 0 1 4.342 4.858c.224.39.4.809.599 1.214l.793 2.24c.014.07.025.14.042.21.396 1.677.386 3.332-.291 4.943a5.6 5.6 0 0 1-.48.86c-.15.231-.386.322-.667.326-.37.007-.652-.172-.941-.37-.109-.074-.272-.069-.41-.1 0 .13-.033.27.005.386a17.3 17.3 0 0 1 .753 3.22c.139 1.076.18 2.155-.096 3.212-.552 2.117-1.933 3.489-3.948 4.25a4.66 4.66 0 0 1-2.348.269c-.625-.091-1.115-.427-1.585-.815-.348-.286-.35-.277-.243-.704.344-1.367.555-2.745.308-4.155-.114-.649-.312-1.269-.739-1.79-.293-.357-.667-.526-1.136-.489-.465.038-.874.208-1.177.555a4 4 0 0 0-.598.886c-.403.827-.558 1.718-.556 2.632q.005 1.296-.231 2.57c-.029.155-.033.333.013.48q.613 1.937 1.253 3.867c.027.08.13.167.215.192 1.069.32 1.827 1.346 1.848 2.463.019 1.023-.393 1.841-1.185 2.44-.598.451-1.244.85-1.904 1.205a13.2 13.2 0 0 0-3.154 2.337 19 19 0 0 1-1.391 1.253 2 2 0 0 1-.663.34c-1.139.35-2.404-.127-3.074-1.21-.337-.545-.592-1.146-.83-1.743-.414-1.04-.97-1.981-1.749-2.79a12 12 0 0 1-.836-.957c-.951-1.218-.71-2.743.561-3.596a3.8 3.8 0 0 1 1.708-.602c.225-.025.318-.088.323-.332.007-.336.074-.67.108-1.006.24-2.374.636-4.72 1.289-7.018.165-.582.154-.582-.437-.732a7.2 7.2 0 0 1-2.781-1.404l-1.542-1.76c-.414-.738-.874-1.453-1.23-2.216-.661-1.416-1.008-2.917-.934-4.489.119-2.543.965-4.787 2.86-6.55 1.184-1.101 2.6-1.642 4.232-1.631a.548.548 0 0 1 .506.79c-.139.258-.286.52-.367.799a4 4 0 0 0-.123.901c-.007.162.102.333.275.334.117.001.267-.094.345-.192.51-.64.972-1.319 1.509-1.934 1.127-1.294 2.46-2.322 4.071-2.959a9.3 9.3 0 0 1 2.586-.615c.046-.004.09-.027.135-.04zm-3.182 31.025.815-.275a19.6 19.6 0 0 0-2.02-4.899l.369 2.005-.096.032-.556-1.034c-.058.11-.068.208-.087.304-.195.986-.395 1.969-.936 2.843-.13.21-.039.358.201.41.461.1.923.2 1.38.318.095.025.168.132.251.201-.097.013-.197.047-.292.037-.791-.09-1.58-.193-2.371-.281-1.658-.185-3.319-.282-4.983-.073-.714.09-1.416.24-2.047.61-.436.255-.753.604-.891 1.11-.196.713-.03 1.352.432 1.891.361.422.778.803 1.204 1.162.775.654 1.701 1.118 2.378 1.907.297-.282.656-.427 1.036-.513q.766-.173 1.539-.304c.905-.155 1.822-.283 2.665-.66.967-.431 1.732-1.057 1.776-2.241.002-.05.1-.14.152-.14.34.01.802.492.819.837.012.24-.065.317-.289.245-.226-.073-.357-.006-.477.192-.513.848-1.248 1.428-2.204 1.681-.774.206-1.57.331-2.35.518-.94.225-1.957.278-2.65 1.112a5.4 5.4 0 0 0-1.553-1.255c.098.818.63 2.074 1.171 2.719.201.24.423.473.673.66.71.53 1.525.53 2.363-.045.499-.344.963-.75 1.398-1.174.859-.839 1.796-1.559 2.868-2.108.471-.242.926-.52 1.366-.816.748-.502 1.281-1.173 1.545-2.055.317-1.058-.202-2.128-1.184-2.473-.397-.14-.813-.226-1.219-.343-.069-.02-.131-.07-.196-.105m-.541-5.45.067-.002c.041-.086.108-.169.12-.258.052-.404.101-.809.13-1.215.028-.415 0-.835.052-1.246.128-1.01.414-1.972 1.083-2.768.582-.693 1.331-1.017 2.239-.853.557.1.96.472 1.311.89 1.128 1.344 1.446 2.916 1.284 4.62-.06.628-.129 1.255-.19 1.883-.032.324.036.418.352.516.514.159 1.038.144 1.556.048 2.102-.39 4.544-2.29 4.597-5.42.031-1.76-.33-3.448-.882-5.106a1.9 1.9 0 0 1-.102-.63c.017-.625.612-.98 1.154-.682.273.15.513.363.757.562.198.16.375.163.54-.032a1 1 0 0 0 .133-.219 6.97 6.97 0 0 0 .548-3.744c-.216-1.705-.821-3.28-1.651-4.77-.508-.913-1.15-1.736-1.847-2.513-1.294-1.444-2.768-2.654-4.569-3.415-2.207-.931-4.454-1.028-6.719-.233-2.106.739-3.726 2.118-5.02 3.906-.311.43-.579.89-.885 1.324-.231.326-.546.44-.884.323-.321-.11-.527-.37-.685-.657-.375-.684-.265-1.371.009-2.055.099-.248.047-.343-.217-.37a.8.8 0 0 0-.214.014c-.658.106-1.242.4-1.795.749-1.322.833-2.211 2.03-2.82 3.447-.719 1.67-.947 3.412-.646 5.205.337 2.006 1.226 3.764 2.493 5.345.999 1.247 2.256 2.06 3.835 2.367.285.056.49.001.689-.216.351-.384.898-.37 1.25.006.074.08.15.156.219.238.125.147.234.159.362-.005a7 7 0 0 1 .533-.62c.353-.355.824-.431 1.236-.151.247.168.496.4.625.661.307.621.563 1.27.803 1.922.348.948.663 1.91.996 2.864.036.102.101.194.153.29m-6.634-1.748c.151-.06.254-.105.36-.142.511-.181.813-.106 1.173.3.114.127.228.26.317.406.177.291.261.235.377-.013.099-.212.236-.412.387-.591.442-.525 1.061-.617 1.641-.255.158.098.299.224.458.32.093.057.206.08.31.118.037-.111.11-.224.103-.332a6 6 0 0 0-.12-.915c-.153-.687-.337-1.367-.742-1.958-.295-.431-.799-.666-1.265-.057a4.6 4.6 0 0 1-.48.551c-.252.239-.552.231-.812 0-.107-.095-.198-.207-.296-.312-.207-.218-.392-.242-.575-.007a2.4 2.4 0 0 0-.385.731c-.122.403-.184.825-.269 1.24-.06.29-.116.583-.182.916m3.167 5.498c0-.184-.012-.329.002-.47.05-.476.07-.96.176-1.424.118-.521.462-.867 1.017-.948.133-.02.269-.015.412-.022.008-.052.021-.094.018-.134-.07-.817-.292-1.582-.842-2.21-.487-.557-.923-.479-1.218.196-.226.519-.325 1.07-.368 1.628-.068.9-.055 1.793.272 2.653.105.275.245.53.531.731m-3.455-.67c.051-.206.088-.365.13-.522.125-.458.26-.914.57-1.288.286-.347.662-.415 1.035-.198.279.162.381.11.411-.216a1.5 1.5 0 0 0-.001-.28 3.8 3.8 0 0 0-.512-1.583 1.7 1.7 0 0 0-.324-.398c-.264-.238-.562-.24-.804.018-.18.19-.337.413-.455.646-.299.59-.441 1.227-.475 1.885-.034.661.051 1.302.425 1.937m2.199-.16-.771 1.529c.506.044.971.153 1.486.056zm-2.906.011-.073-.005-.409 1.485h1.261c-.411-.44-.735-.886-.779-1.48m18.877 7.669c.086-.054.144-.09.201-.128.429-.288.832-.267 1.229.07.326.278.567.625.691 1.022.112.358.289.523.682.58.657.096.986.566 1.122 1.175.182.814.07 1.618-.108 2.416-.358 1.602-1.146 2.993-2.192 4.25-.139.169-.342.298-.538.406-.413.23-.818.084-.936-.37-.078-.303-.052-.634-.06-.953-.003-.116.027-.234.044-.362-.202.073-.38.16-.568.201-.886.195-1.53-.43-1.313-1.294.098-.39.272-.76.413-1.144-.652-.364-1.557.017-1.762.757-.059.216-.116.435-.208.638-.264.588-.666.765-1.299.598-.47-.125-.8-.418-1.025-.831-.335-.613-.396-1.276-.364-1.958.052-1.112.575-2.042 1.189-2.926.425-.613.892-1.2 1.37-1.773.608-.728.952-1.542.937-2.486-.016-.932-.07-1.864-.077-2.796-.005-.651.033-1.305.291-1.921.252-.602.628-1.084 1.309-1.253.663-.164 1.271.09 1.596.682a2.4 2.4 0 0 1 .228 1.795c-.215.847-.484 1.681-.709 2.526-.266 1.001-.338 2.015-.143 3.08m1.143 5.867-.004-.004c0 .035.006.07-.001.103-.106.508-.222 1.013-.316 1.522-.077.413-.146.83-.179 1.247a.5.5 0 0 0 .179.386c.056.042.244-.07.365-.13.053-.025.089-.088.13-.136a8.3 8.3 0 0 0 1.731-3.248c.216-.788.383-1.584.315-2.405a2.3 2.3 0 0 0-.18-.706c-.126-.29-.404-.353-.701-.33-.265.02-.379.13-.471.434l-.077.248c-.071-.442-.12-.824-.196-1.201-.086-.424-.228-.829-.571-1.127-.16-.14-.36-.234-.569-.141-.199.088-.147.294-.152.467-.032 1.086-.067 2.17-.398 3.222a16.4 16.4 0 0 1-.977 2.37 3.2 3.2 0 0 0-.276.853c-.051.275.102.462.386.468.208.003.453-.047.616-.162.236-.168.435-.4.61-.634.263-.352.492-.73.736-1.096m-2.106-.464c.082-.138.163-.261.231-.391.56-1.07.72-2.218.675-3.405a.3.3 0 0 0-.03-.12c-.342-.71-.472-1.467-.499-2.242-.036-1.04.031-2.068.362-3.073a20 20 0 0 0 .527-1.967c.105-.48.054-.964-.223-1.4a.75.75 0 0 0-.677-.368c-.408.002-.705.197-.927.516a2.2 2.2 0 0 0-.414 1.242 53 53 0 0 0 .019 3.236c.056 1.263-.281 2.364-1.105 3.349a27 27 0 0 0-1.636 2.206c-.561.823-.867 1.74-.742 2.744.045.362.167.72.303 1.062.099.251.318.426.592.513.385.122.561.05.707-.314.062-.156.086-.326.148-.481.078-.194.149-.399.272-.565.492-.664 1.366-1.052 2.417-.542"/><path d="M333.474 71.776c-.043.761-.084 1.523-.132 2.284-.019.296-.078.323-.332.174-1.189-.703-2.38-1.404-3.566-2.114-.203-.122-.371-.135-.584-.017-.981.539-1.969 1.065-2.957 1.59-.082.043-.186.045-.28.066-.016-.096-.051-.192-.044-.286q.147-1.885.3-3.772c.017-.207.096-.256.289-.144.51.295 1.008.61 1.516.906.452.264.913.51 1.367.77.121.069.223.061.346.002q1.895-.91 3.794-1.813.058-.03.118-.057c.229-.1.293-.06.28.191-.035.696-.076 1.392-.114 2.087q-.003.066-.001.132m2.118.545a1 1 0 0 1 1.002 1.003 1.01 1.01 0 0 1-.991 1 1.01 1.01 0 0 1-1.012-.998 1.003 1.003 0 0 1 1.001-1.006m.82.996a.83.83 0 0 0-.827-.837.84.84 0 0 0-.813.834c-.002.459.375.85.82.85.447.002.821-.385.82-.847m6.85 1.628.002-.015c.014-.024.004-.007-.007.011z"/><path d="M334.793 73.515v.778l-.202.025v-1.983c.198 0 .398-.045.585.017.11.037.258.22.282.384.025.161-.081.382-.136.572-.014.048-.051.076-.085.123l.356.79c-.113.146-.2.142-.278-.061-.057-.15-.129-.284-.182-.437-.074-.215-.172-.3-.34-.208m.005-.121c.172-.14.308-.224.421-.361.034-.04.028-.315-.001-.339-.125-.102-.265-.152-.42-.23zm58.204-15.021-1.221 4.731c-.325 1.261-.661 2.52-.964 3.787-.075.31-.189.42-.512.42-8.449-.009-16.897-.007-25.346-.008-.09 0-.18-.019-.32-.035.098-.416.154-.825.304-1.195.055-.133.337-.243.516-.244 2.194-.017 4.39-.01 6.585-.01h11.953c2.115 0 2.273-.133 2.794-2.177.977-3.84 1.967-7.678 2.95-11.518.028-.108.048-.218.073-.327.161-.72.027-.942-.683-1.118-.176-.043-.355-.074-.589-.122.087-.356.144-.703.264-1.025.041-.11.239-.229.366-.23 2.009-.014 4.018-.01 6.126-.01l-1.889 7.416c.201.018.356.044.51.044 1.366.003 2.731-.016 4.095.014.4.008.537-.138.628-.502.535-2.149 1.108-4.287 1.627-6.44.107-.446.293-.547.709-.542 1.715.022 3.431.01 5.147.01h.582c-.035.205-.077.348-.079.492-.009.545-.187.885-.808.916-.709.036-1.04.52-1.208 1.183-.95 3.733-1.914 7.462-2.871 11.193q-.187.73-.362 1.463c-.206.86-.083 1.045.785 1.213.104.02.203.063.338.106l-.358 1.424h-6.312l2.281-8.909zm26.725 8.933 1.716-6.99 2.261-9.196q.06-.245.082-.497c.04-.49-.147-.755-.623-.725-.153.009-.307.001-.455.001-.014-.066-.035-.104-.027-.134.245-1.054.248-1.03 1.265-1.106 1.427-.105 2.854-.249 4.281-.374.098-.009.197-.001.364-.001l-2.314 8.934.095.058c.429-.422.84-.868 1.288-1.263 1.169-1.033 2.433-1.858 3.992-1.946.884-.05 1.326.25 1.7 1.15.489 1.182.468 2.416.25 3.653-.885 4.992-4.621 8.38-9.295 8.433-1.501.017-3.001.003-4.58.003m9.691-8.501c-.01-.244 0-.567-.045-.88-.103-.715-.546-1.019-1.105-.648-.548.362-1.079.825-1.481 1.364-1.495 2.006-2.155 4.415-2.642 6.89-.023.118.1.358.203.402.563.234 1.164.335 1.692-.042.513-.365 1.033-.767 1.434-1.264 1.317-1.633 1.865-3.6 1.944-5.822"/><path d="m419.73 54.532-1.058 3.747c-.459 1.621-.932 3.24-1.368 4.866-.079.296-.013.625-.014.938l1.226-.112.353.885c-.713.351-1.407.696-2.104 1.036q-1.21.588-2.422 1.174c-.768.372-1.736.08-1.956-.706-.16-.571-.128-1.208-.072-1.807.047-.51.249-1.01.296-1.558l-.316.345c-1.794 1.96-3.914 3.436-6.701 3.913-1.399.239-2.039-.248-1.861-1.567.144-1.066.483-2.112.777-3.156.461-1.64.963-3.27 1.436-4.906.26-.894.15-1-.802-.843-.128.02-.262.014-.369.018-.038-.039-.058-.05-.063-.066q-.304-.907.657-1.15l4.757-1.21c.954-.243 1.312.046 1.046.956-.609 2.087-1.283 4.158-1.923 6.238a29 29 0 0 0-.541 1.935c-.042.182.008.484.139.571.135.09.451.045.634-.041 1.385-.647 2.307-1.733 3.099-2.93 1.142-1.726 1.754-3.645 2.316-5.581q.288-.99 1.41-.989zm-54.089 9.005c.338-1.311.628-2.587 1.024-3.828.065-.204.595-.254.997-.41-.052.524-.131.866-.112 1.202.079 1.369.779 2.16 2.109 2.415 1.075.206 2.135.155 3.13-.336 1.229-.605 1.462-2.012.409-2.887-.791-.658-1.732-1.128-2.603-1.688-.581-.374-1.18-.725-1.728-1.145-2.505-1.918-1.768-5.25.394-6.562 1.19-.722 2.496-.945 3.845-1.01q.354-.017.705.019c1.256.134 2.511.277 3.849.426l-.49 1.91c-.074.286-.145.572-.222.857-.227.852-.248.863-1.189.654 0-.08-.004-.169.001-.257.082-1.472-.68-2.394-2.124-2.408-.706-.007-1.459.086-2.112.343-1.198.471-1.406 1.793-.452 2.678.488.454 1.079.801 1.651 1.15.822.503 1.698.916 2.498 1.45 2.313 1.545 2.558 4.164.618 6.209-1.101 1.16-2.504 1.66-4.015 1.889-2.104.318-4.125-.195-6.183-.67m78.816-.222c.087.116.155.199.213.287.15.229.296.46.465.723-1.961 1.22-3.799 2.587-6.209 2.936-1.873.27-3.41-.583-3.905-2.318-.648-2.272-.089-4.37 1.243-6.287 1.868-2.69 4.473-4.232 7.95-4.364 1.822-.07 2.911 1.172 2.452 2.846-.563 2.052-2.907 3.795-5.261 3.906-.326.015-.664.053-.976-.01-.624-.123-.886.131-.908.674-.027.68-.126 1.374-.018 2.036.184 1.11 1.17 1.614 2.276 1.165.694-.282 1.31-.737 1.955-1.121.24-.143.467-.305.723-.473m-4.508-3.45c.119.032.188.063.259.068 1.827.12 4.019-2.365 3.521-4.022-.051-.17-.343-.396-.512-.388-.299.014-.651.123-.873.308-1.293 1.07-1.968 2.473-2.395 4.033m26.143-9.493-1.138 3.904h2.852c-.195.681-.355 1.29-.555 1.885-.023.072-.255.105-.391.107-.698.01-1.395-.012-2.09.019-.152.007-.392.162-.427.291-.602 2.205-1.178 4.416-1.755 6.627a2 2 0 0 0-.049.438c-.026 1.18.439 1.573 1.623 1.377.146-.024.29-.056.475-.091l.276 1.126c-1.51.428-2.961 1-4.468 1.219-1.399.203-2.816-.403-2.64-2.262.134-1.418.513-2.82.858-4.21.556-2.236 1.178-4.456 1.757-6.686.096-.365.25-.559.647-.708 1.231-.461 2.1-1.408 2.955-2.345.778-.852.766-.864 2.07-.691m-17.969 6.572c-.028-.086-.054-.153-.069-.221-.06-.267-.117-.535-.189-.868.45-.128.886-.254 1.323-.377 1.312-.37 2.625-.742 3.939-1.105.785-.218 1.133.11.947.936-.193.86-.446 1.705-.671 2.558a1.1 1.1 0 0 0-.022.587c.12-.14.247-.275.359-.421.573-.75 1.124-1.52 1.718-2.25.848-1.042 1.909-1.611 3.335-1.472l-1.112 4.327c-.582-.055-1.122-.117-1.664-.154-.882-.06-1.591.287-2.102 1.04-1.256 1.847-1.989 3.932-2.549 6.097-.137.53-.141 1.253-.478 1.53-.333.275-1.008.111-1.533.118-.844.01-1.689.003-2.582.003l1.62-6.303.854-3.308c.219-.856.092-.99-.752-.8zm-63.819-6.618c-.16.555-.312 1.071-.457 1.59-.145.518-.283 1.039-.442 1.623h2.27c-.15.55-.261 1.033-.425 1.496-.033.094-.266.157-.409.163-.501.02-1.004.026-1.504.001-.305-.015-.423.12-.492.392-.428 1.686-.865 3.369-1.299 5.053q-.017.054-.029.108c-.274 1.387.187 1.866 1.612 1.591l.233.921c-1.201.355-2.336.8-3.513 1.004-1.076.187-2.323-.285-2.175-1.828.096-.998.302-1.993.537-2.97.482-2 1.024-3.984 1.526-5.978.088-.35.282-.504.583-.707a15.4 15.4 0 0 0 2.229-1.826c.694-.69.648-.738 1.755-.633"/></g></g><g clip-path="url(#k)"><g clip-path="url(#l)"><mask id="m" width="99" height="28" x="530" y="40" maskUnits="userSpaceOnUse" style="mask-type:luminance"><path fill="#fff" d="M628.395 40.755H530.99v26.49h97.405z"/></mask><g fill="#95989D" mask="url(#m)"><path d="M530.991 54.407c-.002-2.857.219-5.296 1.135-7.637 1.496-3.825 4.439-5.675 8.515-5.964 1.682-.12 3.359-.045 5.002.382 3.252.845 5.22 2.981 6.308 5.996.649 1.798.894 3.671.961 5.56.087 2.447-.006 4.888-.698 7.264-.68 2.334-1.841 4.357-3.995 5.708-1.317.825-2.788 1.236-4.322 1.41-1.953.22-3.9.157-5.804-.373-3.393-.945-5.316-3.28-6.311-6.46-.639-2.04-.811-4.144-.791-5.886m10.831 11.127c.32-.02.676-.038 1.031-.067 1.952-.16 3.417-1.035 4.283-2.792.694-1.407 1.003-2.912 1.166-4.447q.445-4.18.006-8.36c-.151-1.433-.424-2.84-1.009-4.174-.656-1.498-1.704-2.569-3.365-2.988-1.096-.276-2.205-.298-3.314-.136-1.987.29-3.294 1.419-4.048 3.21-.598 1.42-.872 2.91-1.006 4.426a43 43 0 0 0-.004 7.569c.136 1.536.407 3.048 1.016 4.485.729 1.722 1.985 2.82 3.892 3.138.434.072.877.09 1.352.136m39.452 1.243V43.63h3.851v9.217c.236-.165.377-.272.525-.367 1.314-.844 2.6-1.733 3.954-2.51a5.25 5.25 0 0 1 3.09-.674c1.041.088 1.825.544 2.312 1.47.576 1.096.841 2.276.945 3.487.213 2.502.235 5-.323 7.474-.739 3.273-2.788 5.075-6.203 5.432-1.932.201-6.22.004-8.151-.383m3.906-12.106v10.592c.921.055 1.818.165 2.713.149 1.402-.025 2.511-.619 3.162-1.877.216-.417.408-.86.515-1.314.572-2.423.618-4.878.353-7.338a5.7 5.7 0 0 0-.463-1.648c-.4-.91-1.115-1.262-2.091-1.035-.563.131-1.149.308-1.627.612-.911.578-1.751 1.262-2.562 1.859m-16.906 12.099h-3.831l-.255-2.899c-.466.385-.874.727-1.287 1.063-1.237 1.006-2.545 1.89-4.171 2.18-.83.147-1.668.213-2.492-.043-1.384-.43-2.361-1.292-2.652-2.702-.44-2.124-.261-4.156 1.465-5.75 1.158-1.07 2.589-1.686 4.158-1.9 1.41-.194 2.838-.265 4.259-.39l.589-.052c.024-.136.062-.251.062-.367.004-1.13.022-2.26-.003-3.389-.03-1.364-.502-1.791-1.903-1.75-1.142.032-2.179.449-3.142.992-1.088.615-2.117 1.328-3.169 2.001-.169.108-.33.227-.567.392v-4.426c2.024-.144 4.027-.327 6.035-.412 1.126-.048 2.273-.028 3.388.124 2.054.28 3.19 1.591 3.222 3.621.038 2.34-.008 4.683.044 7.023.047 2.132.176 4.262.268 6.394.003.078-.009.157-.018.29m-4.154-8.726c-1.669.052-3.239.094-4.732.65-1.23.46-1.838 1.368-1.885 2.644a13 13 0 0 0 0 .738c.03 1.512.927 2.334 2.468 2.316 1.729-.02 2.934-.959 4.016-2.127a.53.53 0 0 0 .128-.33c.009-1.268.005-2.537.005-3.891m41.208-8.733c1.4-.037 2.759.151 4.023.788 1.681.848 2.638 2.271 3.156 3.971.871 2.863.874 5.747-.1 8.593-.968 2.828-3.035 4.373-6.086 4.51-1.1.048-2.232.009-3.309-.194-2.29-.43-3.813-1.852-4.608-3.954-1.199-3.174-1.213-6.391-.007-9.565 1.008-2.652 3.101-3.925 5.924-4.146.334-.026.671-.004 1.007-.004m3.813 9.003-.131-.013c0-.41.007-.822-.001-1.233-.027-1.398-.112-2.79-.523-4.14-.389-1.28-1.212-2.098-2.624-2.22-2.036-.176-3.193.556-3.691 2.295a10 10 0 0 0-.249 1.14c-.323 2.04-.321 4.097-.195 6.145.072 1.178.298 2.357.574 3.509.209.872.793 1.536 1.716 1.822 1.625.504 3.881.296 4.517-2.245.03-.12.081-.236.094-.357q.26-2.35.513-4.703m-38.684-12.506 3.906-1.458v5.343h4.755v2.998l-4.694-1.35c-.018.25-.044.441-.044.632-.003 3.718-.008 7.436.005 11.154.001.447.069.899.16 1.338.102.487.453.762.945.883.825.203 1.604.031 2.299-.38.693-.408 1.322-.921 1.992-1.399v3.16c-.763.135-1.571.328-2.392.413-1.294.133-2.596.178-3.885-.097-1.729-.368-2.79-1.508-2.979-3.225a13 13 0 0 1-.086-1.351c-.006-5.403-.004-10.805-.003-16.207 0-.123.01-.245.021-.454"/><path d="M619.668 59.713c-1.485 2.423-3.41 4.43-4.399 7.047h-2.567l5.994-8.62-5.534-8.368c.19-.022.346-.056.503-.056 1.176-.005 2.354.012 3.531-.01.387-.008.597.119.789.451.984 1.718 1.999 3.42 3.004 5.126.061.104.132.203.27.415 1.233-2.015 2.913-3.668 3.63-5.948h2.594c-1.781 2.561-3.508 5.045-5.277 7.592 2.05 3.115 4.105 6.234 6.19 9.4h-4.579c-1.353-2.29-2.715-4.599-4.149-7.029"/></g></g></g><g clip-path="url(#n)"><g fill="#95989D" clip-path="url(#o)"><path d="M746.229 42.424c1.529 1.507 3.062 3.01 4.585 4.523.457.454.887.937 1.33 1.407l.131-.077v-5.926c.323.32.531.523.738.729.653.648 1.319 1.286 1.951 1.955.154.163.283.427.284.644q.02 8.455.004 16.911c0 .178-.066.402-.185.526-.859.902-1.739 1.783-2.613 2.67l-.153-.044V65.2c0-4.034.007-8.068-.015-12.103-.002-.28-.155-.62-.349-.83-.842-.912-1.725-1.785-2.592-2.673l-.157.073v.558c0 4.052-.006 8.104.009 12.156.001.415-.123.705-.421.986-.722.682-1.416 1.392-2.116 2.097-.122.123-.216.274-.322.412-.036-.163-.104-.325-.104-.487q-.006-11.483-.005-22.965m35.421 23.299c.004-.953.078-1.912-.007-2.858-.086-.968.236-1.65.961-2.283.963-.84 1.833-1.784 2.775-2.716-1.11-1.105-2.184-2.196-3.287-3.257-.311-.299-.441-.599-.439-1.031.016-3.564.009-7.128.009-10.691v-.536l8.874 8.904-2.029 1.96-3.648-3.777-.171.085c-.016.144-.046.287-.047.431-.005.828.019 1.657-.012 2.484-.014.398.127.667.404.94 1.505 1.478 2.993 2.975 4.518 4.496-.135.145-.26.288-.395.422q-3.532 3.51-7.064 7.024c-.123.122-.223.268-.333.403zm35.421.151.013-14.413v-9.11c.783.785 1.413 1.5 2.132 2.112.662.563.876 1.189.865 2.053-.049 3.815-.021 7.63-.021 11.446v.705l3.838-3.842 2.218 2.201c-.202.166-.425.32-.615.508q-4.036 4.002-8.064 8.014c-.097.097-.172.217-.257.326zm11.841-.104c.007-.863.017-1.726.018-2.59V42.42l.129-.069c.601.61 1.156 1.275 1.814 1.816.821.676 1.088 1.45 1.067 2.515-.07 3.724-.027 7.45-.027 11.174v.713l3.958-3.963 2.06 2.194v.108c-.084.063-.178.118-.252.191q-4.259 4.229-8.513 8.461c-.058.06-.097.14-.145.21zm-62.002-.08c-.204-.25-.388-.52-.615-.746-2.646-2.639-5.303-5.267-7.941-7.915-.179-.18-.323-.488-.324-.738-.019-4.483-.015-8.967-.013-13.45 0-.139.023-.277.041-.49.169.15.29.248.4.357 2.755 2.734 5.506 5.472 8.269 8.198.265.261.375.52.374.893-.013 4.412-.008 8.823-.008 13.235v.53zm-5.913-16.305c0 1.648.072 3.142-.024 4.625-.071 1.08.215 1.873 1.063 2.562.716.582 1.321 1.3 1.963 1.944.084-.056.111-.065.111-.074.008-1.904.017-3.809.013-5.713a.6.6 0 0 0-.156-.378c-.947-.958-1.905-1.905-2.97-2.966m44.324-7.034 8.824 8.838-2.045 1.944-3.68-3.685-.153.071c0 .778-.012 1.556.014 2.333.004.129.166.265.277.376.587.586 1.179 1.164 1.786 1.76-.622.62-1.221 1.196-1.79 1.798-.144.153-.271.387-.282.59-.035.682-.013 1.367-.013 2.043l3.755-3.752c.824.798 1.518 1.472 2.148 2.084l-8.841 8.868zm-35.423 23.315V42.351l8.854 8.864-3.821 3.756 2.802 2.788-2.096 2.154-2.656-2.72-.142.08v2.131c0 .99.007 1.98-.006 2.97-.002.166-.031.382-.137.49-.891.916-1.803 1.812-2.798 2.802m4.573-14.463-1.593-1.582v3.155zm27.836-.061-1.966 1.899-3.719-3.735-.159.077c0 .79-.011 1.58.012 2.37.003.112.163.228.265.327.592.58 1.189 1.156 1.831 1.78-.617.6-1.174 1.163-1.758 1.697-.274.251-.384.516-.38.891.018 1.927.019 3.855-.006 5.782a1.2 1.2 0 0 1-.311.741c-.808.869-1.651 1.705-2.593 2.665V42.35zm-83.625-16.59c.422.422.477.952.47 1.511-.009.691.012 1.383.013 2.075 0 .302-.446.75-.753.758-.335.008-.673-.02-1.007.008-.455.037-.731-.241-1.007-.521-.058-.059-.077-.166-.091-.254-.029-.173-.042-.349-.064-.543l-1.173.057c-.024 0-.065 0-.068.011-.154.46-.812.567-.812 1.128.001.285.049.57.061.855.011.271.002.543.002.91.201.06.504.15.806.243.111.035.268.05.319.13.2.311.477.37.801.288a1 1 0 0 0 .403-.234c.639-.037 1.228.176 1.733.584.183.148.303.372.459.555.035.04.103.052.206.102l.253-.545c-.381.008-.655-.425-.507-.756.422-.945.872-1.879 1.316-2.828-.086-.26-.194-.558-.282-.86-.104-.358.069-.619.368-.77.528-.267 1.075-.498 1.614-.744l.051.098c-.247.19-.51.361-.738.571-.483.447-.479.665-.076 1.106.505-.052.969-.07 1.42-.155.285-.054.551-.206.839-.32.001 0 .029.007.038.024.329.614.661 1.227.978 1.847.073.145.114.317.316.24.205-.078.515-.164.563-.316.091-.285.026-.619.026-.967.365.414.555.9.469 1.388-.071.4-.463.69-.873.761-.4.07-.519.316-.63.625-.205.572-.376 1.16-.637 1.706-.209.437-.531.82-.802 1.226l-.115-.065.057-.354-.632.493c.21.193.384.315.676.256.157-.032.369.047.513.142.449.294.877.62 1.313.932l-.095.04c.049.16.063.342.154.473.311.45.656.878.97 1.327a1.2 1.2 0 0 1 .194.484c.075.497.224.946.642 1.27.232.18.305.418.311.72.01.516.016 1.021-.235 1.493-.016.031-.046.072-.037.098.24.74-.231 1.443-.109 2.185.067.403-.405.886-.814.867-.118-.005-.228-.201-.38-.347-.05.035-.172.125-.298.21-.167.112-.346.28-.537.074-.186-.2-.174-.426.011-.643.1-.117.188-.247.266-.38.052-.089.077-.194.145-.374-.265.302-.474.532-.674.77-.197.234-.511.322-.688.15-.192-.19-.135-.403.011-.61.13-.183.244-.38.378-.591l-.261-.229c-.087.108-.152.207-.237.286-.082.076-.181.18-.276.182-.144.005-.382-.031-.414-.114-.057-.145-.021-.35.035-.51.062-.175.189-.327.275-.469l-3.273-2.818c.047.294.052.622.158.913.162.442.075.81-.145 1.203-.408.728-.766 1.483-1.176 2.21-.166.294-.23.566-.086.87.102.214.051.372-.122.523-.107.094-.18.225-.286.32-.285.257-.467.512-.213.912.067.106-.002.322-.052.474-.356 1.074-.722 2.145-1.084 3.217-.038.111-.068.224-.12.4l.915-.55-.455.927c.567.01.719-.574 1.155-.666l-.107.923c.463-.011.611.247.694.599.116.488.394.818.899 1.003.622.23 1.21.547 1.846.842h-.777l.605.634-.655 1.096c.224.068.42.177.616.176.332 0 .584.125.839.313.508.377 1.034.731 1.558 1.098l-.34.674.377-.15c.096.65.043 1.27-.308 1.772-1.199 1.712-2.728 3.133-4.257 4.57l1.394-2.622-1.706 1.248c.327-.932 1.149-1.616 1.252-2.69l-1.417.699-.061-.057.477-1.209-.043-.042-1.065.841-.059-.032.863-1.8c-.283.09-.467.147-.653.205-.018-.013-.045-.023-.054-.041-.271-.57-.507-.663-1.139-.417-.824.32-1.643.655-2.579 1.03l.827-1.767-2.151 1.452c.032-.153.047-.23.065-.306l.337-1.41-1.717 1.205-.029-.05.913-1.354-3.029 2.119-.073-.074.656-.778-.042-.058-1.057.6-.046-.06 2.955-3.323-1.032.472-.07-.068.72-1.268-.05-.04c-.501.482-1.019.948-1.499 1.45-.34.357-.764.507-1.255.664l.063-.411-3.896 2.97c.318-.52.877-.878 1.035-1.533l-.58-.046.087-.526c-.281.072-.543.09-.754.202-1.406.745-2.8 1.511-4.199 2.27-.112.06-.231.108-.414.193l3.885-3.957-5.779 3.781-.105-.13.251-.208c.734-.614 1.483-1.211 2.197-1.848 1.249-1.114 2.459-2.27 3.717-3.374.679-.595 1.308-1.22 1.815-1.967 1.124-1.651 2.652-2.853 4.339-3.886.282-.173.494-.464.728-.71.499-.526.964-1.087 1.492-1.582 1.58-1.48 3.192-2.926 4.775-4.403a39 39 0 0 0 2.104-2.145c-1.179 1.036-2.363 2.068-3.538 3.11-1.179 1.045-2.35 2.1-3.543 3.167.006-.076-.007-.166.022-.24.202-.534.357-1.096.639-1.585.177-.308.547-.506.851-.77l-.044-.575-.57.454-.088-.058.271-.747-.322.18c.223-.831.619-1.526 1.183-2.228l-.361.089c-.007-.037-.025-.071-.017-.097.08-.25.166-.497.247-.746.022-.068.073-.158.048-.203-.209-.368.084-.588.23-.858.118-.22.199-.459.332-.773l-.406.104-.078-.07 1.2-1.635c-.024-.017-.099-.098-.126-.084-.269.138-.436-.057-.627-.174-.68-.415-1.443-.69-1.997-1.315-.199-.224-.551-.326-.848-.448-.23-.094-.356-.217-.34-.473.024-.396.021-.782-.353-1.058-.049-.036-.031-.217.01-.307.148-.325.333-.633.478-.96.282-.638.185-1.252-.177-1.83a.38.38 0 0 0-.252-.163 2.8 2.8 0 0 0-.644.02c-.422.066-.547-.02-.568-.44q-.002-.036-.001-.072c-.01-.692.043-.75.72-.783.168-.008.336-.008.503-.02.07-.004.189-.01.2-.044.123-.368.504-.361.759-.532a.44.44 0 0 1 .194-.08c.341-.03.683-.05 1.025-.072.047-.003.097.001.14-.012.6-.182.616-.19.878.343.139.282.4.332.635.366.338.05.69.013 1.082.013-.049-.698-.142-1.378.485-1.848zm5.154 15.906c-.076-.121-.129-.197-.174-.279-.16-.29-.539-.522-.255-.939.024-.036-.017-.154-.063-.193-.265-.226-.541-.44-.76-.615l-.366.938-.148-.313-.504.962 1.099.916zm-3.276-10.29c.004.535.215.791.753.916.101.023.279.027.312-.026.094-.153.228-.383.173-.506-.159-.354-.375-.688-.855-.705-.276-.01-.417.058-.383.321m2.394.603c-.175.016-.322-.014-.381.044a2.2 2.2 0 0 0-.351.491c-.024.042.028.181.073.197.23.083.492.231.699.18.217-.053.401-.294.553-.488.021-.027-.209-.277-.35-.389-.07-.055-.204-.03-.243-.035"/><path d="m730.472 58.397 1.058 1.004c-1.164-.165-1.935-.96-2.842-1.495l-.079.077 1.06 1.065-2.671-1.703c.353-.105.617.178.897.375.177.125.309.166.507.044.083-.052.26-.038.35.018.335.206.651.442 1 .684l.136-.466c-.026-.032-.042-.071-.071-.085a2.7 2.7 0 0 1-1.293-1.274c-.071-.143-.208-.259-.329-.372q-1.094-1.01-2.189-2.017a.66.66 0 0 1-.213-.334c.079.056.164.105.237.168.903.784 1.806 1.567 2.702 2.358.151.133.313.28.399.454.212.43.569.681.961.923a27 27 0 0 1 1.549 1.038c1.133.811 2.257 1.634 3.38 2.458.111.081.211.193.281.312.545.936 1.258 1.727 2.026 2.491 1.038 1.033 2 2.142 2.995 3.218.216.235.434.469.611.766-.244-.18-.515-.333-.728-.544-.892-.88-1.801-1.748-2.639-2.678-.869-.967-1.663-2-2.492-3.004a1 1 0 0 0-.182-.167c-.743-.52-1.501-1.017-2.224-1.561a4.7 4.7 0 0 1-.932-.933c-.323-.432-.762-.657-1.265-.82m-2.186 4.562-5.858-5.021.053-.138c.399.257.806.695 1.198-.1.288.373.602.655.757 1.006.429.974 1.224 1.637 1.935 2.37.215.222.54.34.861.533l-1.141-2.217c.357.382.649.689.932 1.003.043.047.084.142.064.193-.119.31.076.524.221.75.338.53.684 1.054 1.028 1.58zm-4.451-7.634 1.687 1.51-.036.059-.446-.3c.224.623.535.922.757.892l1.881 1.877-.021.04-1.29-.716.145.789c-.762-1.465-1.535-2.925-2.677-4.15m-2.86 5.981-.882-1.808.451.565.105-.034-.095-2.038c.434 1.092.491 2.243.647 3.43l-.236-.125zm-.001-10.201 1.318 1.714-.087.064c-.171-.155-.357-.296-.509-.466a4 4 0 0 1-.468-.625c-.125-.207-.205-.44-.305-.663z"/><path d="m720.967 61.297.193.912c-.219-.1-.423-.169-.596-.285-.057-.037-.082-.24-.037-.288.127-.131.298-.221.45-.328zm2.241-.68-.63-1.572.503.32zm-2.664-3.931.404 1.175c-.683-.21-.211-.81-.521-1.146zm1.582 1.65-.315-.63.073-.077.547.346zm5.06.026-.545-.593.029-.076.516.075zm2.705 1.458-.862-.63.089-.125.863.628zm-2.92.087-.339-.675.092-.043c.127.205.477.308.247.718"/></g></g><g clip-path="url(#p)"><g clip-path="url(#q)"><mask id="r" width="124" height="31" x="895" y="38" maskUnits="userSpaceOnUse" style="mask-type:luminance"><path fill="#fff" d="M1018.7 38.717H895.661v29.547H1018.7z"/></mask><g fill="#95989D" mask="url(#r)"><path d="M897.966 46.327v17.59h-2.305v-17.59zM907.97 58.66c.029.366.106.726.23 1.072a3.74 3.74 0 0 0 .859 1.42c.39.406.866.72 1.395.922a5.9 5.9 0 0 0 2.077.324 8.3 8.3 0 0 0 2.887-.523l-.025 1.82a9.6 9.6 0 0 1-3.216.497 7.9 7.9 0 0 1-3.369-.672c-1.292-.623-3.216-2.242-3.191-5.706a7.5 7.5 0 0 1 .481-2.715 5.17 5.17 0 0 1 1.92-2.477 5.3 5.3 0 0 1 3.019-.937c3.09 0 5.065 2.267 5.065 5.232a6 6 0 0 1-.253 1.744zm5.901-1.519a4.4 4.4 0 0 0-.403-2.192 2.7 2.7 0 0 0-.778-.926 2.82 2.82 0 0 0-2.328-.497 2.8 2.8 0 0 0-1.098.525 4.36 4.36 0 0 0-1.317 3.09zm11.799-5.182v6.776c0 1.097.026 2.293 1.064 2.988a3.13 3.13 0 0 0 1.773.473 2.77 2.77 0 0 0 1.745-.498c1.012-.822.937-2.293.937-3.413v-6.33h2.304v6.33a9.5 9.5 0 0 1-.23 2.766 3.9 3.9 0 0 1-.712 1.434 3.9 3.9 0 0 1-1.238 1.032 5.6 5.6 0 0 1-2.862.673 6.8 6.8 0 0 1-1.645-.175 4.4 4.4 0 0 1-1.837-.882 4.3 4.3 0 0 1-1.228-1.607 8.3 8.3 0 0 1-.38-2.966v-6.6zm24.338 2.417h-.025a3 3 0 0 0-.431-.274 4.26 4.26 0 0 0-2.003-.474 4.01 4.01 0 0 0-3.479 1.955 3.93 3.93 0 0 0-.548 2.28 4.6 4.6 0 0 0 .305 1.77 3.9 3.9 0 0 0 1.469 1.913 4 4 0 0 0 2.33.703 4.63 4.63 0 0 0 2.455-.723l.026 1.918q-.322.211-.684.349a5.9 5.9 0 0 1-2.229.396c-3.672-.025-6.078-2.815-6.078-6.329a6.8 6.8 0 0 1 .452-2.516 5.6 5.6 0 0 1 2.156-2.715 5.73 5.73 0 0 1 3.366-.948 6.4 6.4 0 0 1 2.912.672zm7.751-1.645c.253-.127.531-.249.81-.373a9.9 9.9 0 0 1 3.545-.672c1.722 0 2.71.448 3.293.946.308.243.559.549.734.897a4.7 4.7 0 0 1 .38 2.217l-.025 7.997c-1.425.29-2.875.44-4.329.45-.73.007-1.46-.052-2.179-.176-.711-.127-3.216-.672-3.216-3.338a3.4 3.4 0 0 1 .316-1.5 3.44 3.44 0 0 1 .949-1.215c1.722-1.471 4.153-1.57 6.23-1.57v-.548a2.9 2.9 0 0 0-.152-1.245c-.253-.572-.937-1.12-2.358-1.12a8.4 8.4 0 0 0-3.319.772q-.367.165-.71.374zm6.508 5.158c-1.368 0-3.267.05-4.406.971a2.04 2.04 0 0 0-.811 1.67 1.64 1.64 0 0 0 .354 1.096c.482.598 1.343.849 2.863.849a12.5 12.5 0 0 0 2.003-.175zm12.915-5.93v2.343q.217-.48.507-.921a3.9 3.9 0 0 1 1.428-1.26 3.94 3.94 0 0 1 1.867-.435 4.46 4.46 0 0 1 2.585.772c1.52 1.122 1.57 2.816 1.57 4.486v6.974h-2.305v-6.7c0-1.047-.025-2.093-.862-2.865a2.4 2.4 0 0 0-1.672-.598 2.95 2.95 0 0 0-1.773.623c-1.265 1.022-1.241 2.74-1.241 4.161v5.38h-2.308v-11.96zm40.418 9.042a12.44 12.44 0 0 1-4.77 5.385 12.68 12.68 0 0 1-13.895-.405 12.34 12.34 0 0 1-4.437-5.654 12.1 12.1 0 0 1-.497-7.127 12.26 12.26 0 0 1 3.611-6.197 12.6 12.6 0 0 1 6.498-3.179c2.45-.403 4.95-.086 7.21.911a12.4 12.4 0 0 1 6.56 6.854 12.1 12.1 0 0 1-.28 9.412m-9.76-8.652a6.75 6.75 0 0 1 6.11-.198c.91.406 1.73.996 2.39 1.733a10.15 10.15 0 0 0-2.06-4.314 10.36 10.36 0 0 0-3.84-2.917 10.5 10.5 0 0 0-9.41.46c1 0 1.99.208 2.91.61.97.407 1.84 1.04 2.52 1.845a6.5 6.5 0 0 1 1.38 2.781m-2.27 2.387c.74-1.897-.36-4.153-2.5-5.085-2.44-1.075-5.524-.143-6.77 3.26a10.05 10.05 0 0 0 .436 7.23 10.3 10.3 0 0 0 5.204 5.122 10.53 10.53 0 0 0 7.35.429 10.37 10.37 0 0 0 5.79-4.48c1.75-3.179.42-6.064-2.02-7.142-2.13-.953-4.58-.27-5.53 1.533a1 1 0 0 1-.23.355q-.165.153-.36.235a1.1 1.1 0 0 1-1.2-.264c-.1-.104-.17-.228-.22-.363a1 1 0 0 1 .06-.829z"/><path d="M999.229 58.537c.11-.244.293-.45.522-.592a1.38 1.38 0 0 1 1.519.041c.23.155.4.37.49.62a1.31 1.31 0 0 1-.34 1.461 1.38 1.38 0 0 1-1.5.25 1.35 1.35 0 0 1-.719-.75 1.33 1.33 0 0 1 .028-1.03m2.161-4.742c.14-.284.36-.516.64-.655.29-.139.61-.177.92-.107s.59.243.78.49c.19.246.29.552.28.863 0 .312-.12.611-.33.846a1.37 1.37 0 0 1-.81.445 1.36 1.36 0 0 1-.9-.16 1.4 1.4 0 0 1-.61-.69 1.3 1.3 0 0 1-.08-.519c0-.177.04-.351.11-.513m7.46 8.996c.11-.243.15-.514.1-.777a1.34 1.34 0 0 0-1.04-1.09 1.4 1.4 0 0 0-.8.055c-.25.095-.47.261-.63.479-.15.217-.24.476-.25.742a1.35 1.35 0 0 0 .81 1.27 1.4 1.4 0 0 0 1.05.03q.255-.096.45-.28c.13-.121.24-.267.31-.429m2.17-4.742c.11-.243.14-.514.1-.777a1.36 1.36 0 0 0-.36-.702c-.18-.194-.42-.33-.69-.389-.26-.06-.54-.04-.79.055-.26.095-.48.262-.63.48a1.34 1.34 0 0 0-.26.743c0 .267.07.53.21.756.15.225.36.404.61.513.33.145.7.156 1.04.028.34-.127.62-.381.77-.707m-4.41-10.578c.09-.201.24-.371.43-.488s.42-.176.64-.17c.22.007.44.079.62.207.19.128.33.306.41.513.08.206.09.43.04.646-.05.215-.16.41-.33.562a1.147 1.147 0 0 1-1.6-.047 1.3 1.3 0 0 1-.24-.369 1.3 1.3 0 0 1-.07-.43c.01-.146.04-.29.1-.424m5.75 2.543c.09-.202.12-.425.08-.643-.03-.218-.13-.42-.29-.58-.15-.161-.35-.273-.57-.323s-.45-.034-.66.044-.39.216-.52.396-.2.393-.21.614c0 .22.06.439.17.626a1.15 1.15 0 0 0 1.37.452c.14-.053.27-.131.37-.232.11-.1.2-.22.26-.354m-4.96-10.458c.12-.256.31-.473.56-.622a1.45 1.45 0 0 1 2.11.7c.1.263.12.55.06.824s-.21.523-.42.715a1.46 1.46 0 0 1-1.58.262c-.35-.155-.62-.44-.76-.792a1.46 1.46 0 0 1 .03-1.087m10.45 4.62c.11-.257.15-.542.1-.819a1.33 1.33 0 0 0-.37-.739c-.2-.204-.45-.347-.73-.41a1.46 1.46 0 0 0-1.5.56c-.16.23-.26.502-.27.783 0 .28.07.558.22.796.16.239.38.427.64.542a1.455 1.455 0 0 0 1.91-.713"/></g></g></g><g clip-path="url(#s)"><g clip-path="url(#t)"><g clip-path="url(#u)"><mask id="v" width="163" height="108" x="1065" y="0" maskUnits="userSpaceOnUse" style="mask-type:luminance"><path fill="#fff" d="M1227.18 0h-162v108h162z"/></mask><g mask="url(#v)"><mask id="w" width="153" height="18" x="1070" y="37" maskUnits="userSpaceOnUse" style="mask-type:luminance"><path fill="#fff" d="M1222.05 37.974h-151.74v16.302h151.74z"/></mask><g mask="url(#w)"><mask id="x" width="153" height="18" x="1070" y="37" maskUnits="userSpaceOnUse" style="mask-type:luminance"><path fill="#fff" d="M1222.05 37.974h-151.74v16.302h151.74z"/></mask><g mask="url(#x)"><mask id="y" width="152" height="18" x="1070" y="37" maskUnits="userSpaceOnUse" style="mask-type:luminance"><path fill="#fff" d="M1221.37 54.276H1070.7V37.974h150.67z"/></mask><g mask="url(#y)"><mask id="z" width="152" height="18" x="1070" y="37" maskUnits="userSpaceOnUse" style="mask-type:luminance"><path fill="#fff" d="M1221.37 54.276H1070.7V37.974h150.67z"/></mask><g fill="#95989D" mask="url(#z)"><path d="m1085.19 50.282.12.756c.04.306-.07.57-.44.587-.42.019-.57-.215-.62-.548l-.44-3.245c-.05-.307.03-.624.41-.624.28-.027.53.168.56.437v.059l.16.694c.01.193.18.342.38.335h2.27c.23.025.44-.13.48-.355a.4.4 0 0 0-.01-.212c-.13-.43-.52-1.556-.73-2.23-.12-.377-.4-.644-.69-.644h-5.23c-.53 0-.77.567-.76.835.03.561.11 6.732.13 7.423.02.393.35.708.75.722l7.3-.013c.54 0 .91-.277.71-.969-.18-.629-.76-2.675-.88-2.984a.84.84 0 0 0-.65-.476h-2.43a.46.46 0 0 0-.39.45l.01.003zm-13.14-.46h2.32c.29 0 .44.361.38.791-.03.297-.05.368-.05.368s-.05.537.47.577a.49.49 0 0 0 .56-.407v-.007s.8-4.63.85-5.115.31-.74.75-.74h1.59c.48 0 .74.316.74.833 0 .307-.06 6.957-.06 7.366a.756.756 0 0 1-.69.78h-7.43c-.3-.001-.92-.146-.75-.94 0 0 .5-2.284.6-2.724s.23-.782.72-.782m149.32 3.919h-4.87v-1.977h-.04c-.61 1.604-2.03 2.242-3.48 2.242-2.74 0-3.74-1.537-3.74-3.758v-7.94h5.15v6.59c0 .66 0 1.56.9 1.56.91 0 .92-.9.92-1.56v-6.59h5.16v11.444zm-21.47-11.444v-2.631l5.16-1.692v4.333h2.33v3.296h-2.33v3.221c0 .966.44 1.503 1.12 1.503.41.007.82-.06 1.21-.198v3.295c-1.14.378-2.34.578-3.54.593-2.66 0-3.95-1.43-3.95-4.463v-3.96h-1.81v-3.286h1.82zm-3.54 11.444h-4.87v-1.977h-.04c-.61 1.604-2.02 2.242-3.47 2.242-2.74 0-3.75-1.537-3.75-3.758v-7.94h5.16v6.59c0 .66 0 1.56.9 1.56s.92-.9.92-1.56v-6.59h5.15v11.444zm-20.08-3.03c1 0 1.14-1.232 1.14-2.899 0-1.363-.14-2.484-1.14-2.484s-1.12 1.12-1.12 2.484c0 1.664.12 2.899 1.12 2.899m0-8.679c4.29 0 6.62 1.933 6.62 5.779 0 3.95-2.33 6.194-6.62 6.194-4.3 0-6.6-2.243-6.6-6.194 0-3.848 2.28-5.779 6.6-5.779m-7.83 11.36c-1.27.381-2.59.588-3.92.613-4.75 0-8.55-2.68-8.55-8.159 0-5.139 3.96-7.708 8.55-7.708 1.51 0 2.41.195 3.88.48v4.042c-.9-.307-1.82-.568-2.74-.568-2.33 0-4.09 1.34-4.09 3.843 0 2.637 1.64 3.977 3.91 3.977a8.5 8.5 0 0 0 2.97-.593zm-28.1-11.074h4.87v1.977h.04c.61-1.607 2.02-2.243 3.48-2.243 2.74 0 3.74 1.539 3.74 3.76v7.944h-5.15v-6.581c0-.645 0-1.555-.89-1.555-.9 0-.92.9-.92 1.555v6.592h-5.16V42.325zm-6.37 6.43h-.5c-1.06 0-2.29.113-2.29 1.29 0 .79.41 1.098 1.21 1.098 1.06 0 1.59-1.055 1.59-2.042zm-6.28-6.012c1.44-.478 2.95-.701 4.46-.658 2.95 0 6.53.57 6.53 4.746v6.958h-4.79V52.12h-.04c-.72 1.288-2.03 1.913-3.48 1.913-1.99 0-3.91-.968-3.91-3.362 0-3.515 2.95-4.215 5.51-4.215.67.019 1.34.07 2 .154-.02-1.473-1.43-1.65-2.72-1.65a7.9 7.9 0 0 0-3.56.968V42.72zm-6.78 4.239c0-.878-.12-2.265-1.29-2.265-1.16 0-1.45 1.363-1.39 2.266zm-2.66 2.416c.08 1.43 1.33 1.759 2.85 1.759 1.41 0 2.68-.265 3.49-.724v2.965c-1.36.464-3 .66-4.8.66-4.32 0-6.61-2.244-6.61-6.195 0-3.845 2.29-5.777 6.61-5.777 4.13 0 5.58 2.765 5.58 6.631v.683h-7.12zm-6.41-.97c-.02 7.212-13.43 8.34-13.42-1.641h4.97v1.086c0 1.718 3.03 1.748 3.04 0v-9.81h5.39z"/><path d="M1083.63 41.33c0 .279-.24.505-.53.506h-5.88a.52.52 0 0 1-.53-.504v-.002c0-.28.24-.506.53-.508h5.88c.29 0 .52.224.52.502v.006zm-8.46 6.963c.33-1.691.63-2.7.77-3.472.02-.387.37-.682.77-.66h9.34c1.06 0 .67-.815.67-.815l-1.3-4.327s-.12-.613-.72-.613h-9.96s-.53.01-.71.708l-2.09 8.751s-.3.858.54.858h2.11c.42 0 .55-.173.59-.428"/></g></g></g></g><path fill="#95989D" d="M1153.9 70.875v-9.818h1.78v8.327h4.32v1.491zm8.5-9.818v.978c0 .281-.05.574-.16.877a3.66 3.66 0 0 1-1.07 1.563l-.81-.523c.18-.265.33-.55.46-.858.13-.31.2-.66.2-1.05v-.987zm3.27 0v9.818h-1.78v-9.818zm.09-.882-.98-1.228-.97 1.228h-1.52v-.067l1.82-2.071h1.35l1.82 2.07v.068zm3.49.882v9.818h-1.73v-9.818zm5.05 9.962c-.74 0-1.38-.154-1.91-.46a3.1 3.1 0 0 1-1.24-1.314c-.28-.569-.43-1.238-.43-2.009 0-.757.15-1.422.43-1.994.3-.575.7-1.023 1.22-1.342.52-.323 1.14-.484 1.84-.484.45 0 .88.073 1.28.22q.615.215 1.08.671c.31.304.56.69.74 1.16.17.467.26 1.023.26 1.669v.532h-6.03v-1.17h4.37c0-.332-.07-.628-.22-.887a1.5 1.5 0 0 0-.59-.618c-.24-.15-.54-.226-.87-.226q-.525 0-.93.26-.405.253-.63.67c-.15.275-.22.577-.23.906v1.022q0 .642.24 1.102c.16.304.37.537.66.7.28.16.61.24.98.24.26 0 .48-.035.69-.106.2-.073.38-.18.53-.32s.26-.316.34-.523l1.62.182c-.1.428-.3.802-.58 1.122-.29.316-.65.562-1.1.738-.44.172-.95.259-1.52.259m8.17-.144v-9.818h3.68c.75 0 1.39.14 1.9.422.51.28.9.668 1.16 1.16.27.489.4 1.045.4 1.668 0 .63-.13 1.189-.4 1.678q-.39.734-1.17 1.156c-.52.278-1.16.416-1.91.416h-2.44v-1.462h2.2q.66 0 1.08-.23c.28-.153.49-.364.62-.632q.21-.404.21-.926t-.21-.92a1.36 1.36 0 0 0-.63-.619q-.42-.225-1.08-.225h-1.63v8.332zm11.76.144c-.73 0-1.37-.154-1.91-.46a3.15 3.15 0 0 1-1.23-1.314c-.29-.569-.43-1.238-.43-2.009 0-.757.14-1.422.43-1.994.29-.575.7-1.023 1.22-1.342q.78-.484 1.83-.484c.46 0 .88.073 1.29.22.4.144.76.367 1.07.671s.56.69.74 1.16q.27.7.27 1.669v.532h-6.04v-1.17h4.37q0-.498-.21-.887a1.6 1.6 0 0 0-.59-.618q-.375-.226-.87-.226a1.7 1.7 0 0 0-.94.26q-.405.253-.63.67c-.14.275-.22.577-.22.906v1.022c0 .428.08.796.23 1.102q.24.456.66.7.42.24.99.24c.25 0 .48-.035.68-.106.21-.073.38-.18.53-.32s.27-.316.34-.523l1.62.182c-.1.428-.29.802-.58 1.122-.28.316-.65.562-1.09.738q-.675.258-1.53.259m4.75-.144v-7.364h1.68v1.228h.07c.14-.425.37-.753.7-.983.32-.233.7-.35 1.12-.35.1 0 .21.005.32.014q.18.01.3.034v1.596a2 2 0 0 0-.35-.067q-.225-.033-.45-.033c-.32 0-.6.068-.85.206-.25.134-.45.32-.59.56-.15.24-.22.517-.22.83v4.329zm5.35 0v-7.364h1.68v1.228h.08q.195-.638.69-.983c.33-.233.7-.35 1.12-.35q.15 0 .33.014.18.01.3.034v1.596a2 2 0 0 0-.35-.067 3 3 0 0 0-.46-.033c-.31 0-.6.068-.85.206-.25.134-.45.32-.59.56s-.22.517-.22.83v4.329zm8.26.144c-.72 0-1.34-.158-1.87-.475q-.795-.474-1.23-1.328c-.29-.569-.43-1.233-.43-1.994s.14-1.427.43-2a3.2 3.2 0 0 1 1.23-1.332c.53-.316 1.15-.474 1.87-.474s1.34.158 1.87.474c.53.317.93.76 1.22 1.333.29.572.44 1.238.44 1.999 0 .76-.15 1.425-.44 1.994a3.2 3.2 0 0 1-1.22 1.328c-.53.317-1.15.475-1.87.475m.01-1.39c.39 0 .71-.108.98-.322.26-.217.45-.508.58-.872.13-.365.2-.77.2-1.218 0-.45-.07-.858-.2-1.222-.13-.368-.32-.66-.58-.878-.27-.217-.59-.326-.98-.326-.4 0-.73.109-1 .326-.26.218-.46.51-.59.878-.13.364-.19.771-.19 1.222 0 .448.06.853.19 1.218.13.364.33.655.59.872.27.215.6.322 1 .322m8.67-6.118v1.343h-4.24V63.51zm-3.19-1.764h1.73v6.913c0 .233.04.412.11.537.07.122.17.205.29.25q.18.066.39.066.165 0 .3-.023t.21-.044l.29 1.357a3.4 3.4 0 0 1-1.02.173 2.8 2.8 0 0 1-1.17-.197 1.8 1.8 0 0 1-.83-.68q-.3-.462-.3-1.151z"/></g></g></g></g><g clip-path="url(#A)"><g clip-path="url(#B)"><mask id="C" width="121" height="33" x="1275" y="38" maskUnits="userSpaceOnUse" style="mask-type:luminance"><path fill="#fff" d="M1395.67 38.717h-119.96v31.585h119.96z"/></mask><g fill="#95989D" mask="url(#C)"><path d="m1302.37 59.902 3.55-16.975h5.5l-1.2 5.728h5.21l1.21-5.728h5.5l-3.56 16.975h-5.5l1.37-6.58h-5.2l-1.38 6.58zm26.77 0 .04-1.32c-1.64 1.295-3.12 1.674-4.94 1.674-2.31 0-4.11-1.156-3.58-3.726 1.17-5.623 9.34-3.066 9.82-5.379.18-.894-.86-1.012-1.38-1.012-.67 0-1.61.14-1.95 1.2h-4.66c.54-2.615 2.71-4.156 7.53-4.156 5.79 0 5.68 2.169 5.07 5.118l-1.21 5.774c-.15.71-.2 1.061.32 1.582l-.05.245zm.65-5.47c-1.75.778-3.77.401-4.11 2.003-.12.613.37 1.039 1.33 1.039 1.7 0 2.55-1.345 2.78-3.041m8.36-6.884h4.41l-.52 2.498h.04c1.09-1.934 2.47-2.853 4.36-2.853.2.017.41.044.61.08l-1.02 4.89c-.32-.07-.64-.117-.97-.141-1.98 0-3.18.944-3.74 3.606l-.9 4.274h-4.85zm10.14 0h4.43l-.4 1.926c1.41-1.486 2.76-2.288 4.59-2.288 3.22 0 4.34 1.91 3.63 5.305l-1.55 7.403h-4.84l1.36-6.523c.26-1.222.16-2.31-1.21-2.31-1.49 0-2.09.966-2.41 2.545l-1.32 6.296h-4.86zm21.66-.458c4.31 0 6.44 2.57 5.63 6.413-.94 4.528-4.42 6.65-8.34 6.65s-6.49-2.17-5.61-6.39c.9-4.289 4.19-6.672 8.32-6.672m-3.42 6.413c-.48 2.335.17 3.347 1.4 3.347 1.31 0 2.31-1.012 2.8-3.347.38-1.816-.12-3.178-1.4-3.112-1.66 0-2.5 1.721-2.8 3.112m8.9 6.399L1378 47.55h4.85l-2.57 12.354zm11.57-4.037c-.12.401-.02.834.27 1.132.31.26.71.394 1.11.377.75 0 1.59-.245 1.77-1.108.42-1.98-7.4-.4-6.4-5.188.66-3.159 4.09-4.078 6.63-4.078 2.67 0 5.66.614 5.26 3.89h-4.41c.05-.325-.05-.658-.28-.895-.25-.22-.58-.33-.92-.308-.83 0-1.43.262-1.56.873-.35 1.711 7.61.567 6.64 5.188-.53 2.57-3 4.315-7.47 4.315-2.8 0-5.7-.873-5.26-4.198zm-105.68-17.14-5.55 27.976-.06.266 11.02-9.175.02-.022 3.76-19.055zm6.38 19.038 7.24 9.2 5.77-28.248h-9.27z"/></g></g></g></g><path fill="url(#D)" d="M0 0h67.481v108H0z"/><path fill="url(#E)" d="M1289.51 0h67.481v108h-67.481z"/></g><defs><clipPath id="a"><path fill="#fff" d="M0 0h1357v108H0z"/></clipPath><clipPath id="b"><path fill="#fff" d="M-635.82 0h2619v108h-2619z"/></clipPath><clipPath id="c"><path fill="#fff" d="M-68.82 0h162v108h-162z"/></clipPath><clipPath id="d"><path fill="#fff" d="M-68.82 0h162v108h-162z"/></clipPath><clipPath id="f"><path fill="#fff" d="M120.18 0h162v108h-162z"/></clipPath><clipPath id="g"><path fill="#fff" d="M120.18 0h162v108h-162z"/></clipPath><clipPath id="i"><path fill="#fff" d="M309.18 0h162v108h-162z"/></clipPath><clipPath id="j"><path fill="#fff" d="M309.18 0h162v108h-162z"/></clipPath><clipPath id="k"><path fill="#fff" d="M498.18 0h162v108h-162z"/></clipPath><clipPath id="l"><path fill="#fff" d="M498.18 0h162v108h-162z"/></clipPath><clipPath id="n"><path fill="#fff" d="M687.18 0h162v108h-162z"/></clipPath><clipPath id="o"><path fill="#fff" d="M687.18 0h162v108h-162z"/></clipPath><clipPath id="p"><path fill="#fff" d="M876.18 0h162v108h-162z"/></clipPath><clipPath id="q"><path fill="#fff" d="M876.18 0h162v108h-162z"/></clipPath><clipPath id="s"><path fill="#fff" d="M1065.18 0h162v108h-162z"/></clipPath><clipPath id="t"><path fill="#fff" d="M1065.18 0h162v108h-162z"/></clipPath><clipPath id="u"><path fill="#fff" d="M1065.18 0h162v108h-162z"/></clipPath><clipPath id="A"><path fill="#fff" d="M1254.18 0h162v108h-162z"/></clipPath><clipPath id="B"><path fill="#fff" d="M1254.18 0h162v108h-162z"/></clipPath><linearGradient id="D" x1="0" x2="67.481" y1="54" y2="54" gradientUnits="userSpaceOnUse"><stop stop-color="#fff"/><stop offset="1" stop-color="#fff" stop-opacity="0"/></linearGradient><linearGradient id="E" x1="1356.99" x2="1289.51" y1="54" y2="54" gradientUnits="userSpaceOnUse"><stop stop-color="#fff"/><stop offset="1" stop-color="#fff" stop-opacity="0"/></linearGradient></defs></svg>