<svg xml:space="preserve" fill="#e44782" viewBox="0 0 64 64"><path d="m51.4 50-3-3c4.1-4.5 6.6-10.4 6.6-17C55 16.2 43.8 5 30 5S5 16.2 5 30s11.2 25 25 25c6.5 0 12.5-2.5 17-6.6l3 3V58h2v-6h6v-2zm-8.7-8.7c2.7-3 4.3-6.9 4.3-11.3 0-9.4-7.6-17-17-17s-17 7.6-17 17 7.6 17 17 17c4.3 0 8.3-1.6 11.3-4.3l4.3 4.3c-4.1 3.8-9.5 6-15.5 6-6.4 0-12.1-2.6-16.3-6.7C9.6 42.1 7 36.4 7 30s2.6-12.1 6.7-16.3C17.9 9.6 23.6 7 30 7s12.1 2.6 16.3 6.7C50.4 17.9 53 23.6 53 30c0 6-2.3 11.4-6 15.5zM30 22c-4.4 0-8 3.6-8 8s3.6 8 8 8c1.8 0 3.5-.6 4.9-1.7l5 5C37.2 43.6 33.8 45 30 45c-4.1 0-7.9-1.7-10.6-4.4S15 34.1 15 30s1.7-7.9 4.4-10.6S25.9 15 30 15s7.9 1.7 10.6 4.4S45 25.9 45 30c0 3.8-1.4 7.2-3.7 9.9l-5-5c1.1-1.4 1.7-3.1 1.7-4.9 0-4.4-3.6-8-8-8m3.5 12.9c-1 .7-2.2 1.1-3.5 1.1-1.7 0-3.2-.7-4.2-1.8-1.1-1-1.8-2.5-1.8-4.2s.7-3.2 1.8-4.2c1.1-1.1 2.6-1.8 4.2-1.8 1.7 0 3.2.7 4.2 1.8 1.1 1.1 1.8 2.6 1.8 4.2 0 1.3-.4 2.5-1.1 3.5l-4.2-4.2-1.4 1.4z"/></svg>