<svg viewBox="0 0 800 800"><path d="M642.5 625 605 587.5c51.25-56.25 82.5-130 82.5-212.5 0-172.5-140-312.5-312.5-312.5S62.5 202.5 62.5 375s140 312.5 312.5 312.5c81.25 0 156.25-31.25 212.5-82.5l37.5 37.5V725h25v-75h75v-25zM533.75 516.25C567.5 478.75 587.5 430 587.5 375c0-117.5-95-212.5-212.5-212.5s-212.5 95-212.5 212.5 95 212.5 212.5 212.5c53.75 0 103.75-20 141.25-53.75L570 587.5c-51.25 47.5-118.75 75-193.75 75-80 0-151.25-32.5-203.75-83.75C120 526.25 87.5 455 87.5 375s32.5-151.25 83.75-203.75C223.75 120 295 87.5 375 87.5s151.25 32.5 203.75 83.75C630 223.75 662.5 295 662.5 375c0 75-28.75 142.5-75 193.75zM375 275c-55 0-100 45-100 100s45 100 100 100c22.5 0 43.75-7.5 61.25-21.25l62.5 62.5C465 545 422.5 562.5 375 562.5c-51.25 0-98.75-21.25-132.5-55s-55-81.25-55-132.5 21.25-98.75 55-132.5 81.25-55 132.5-55 98.75 21.25 132.5 55 55 81.25 55 132.5c0 47.5-17.5 90-46.25 123.75l-62.5-62.5C467.5 418.75 475 397.5 475 375c0-55-45-100-100-100m43.75 161.25C406.25 445 391.25 450 375 450c-21.25 0-40-8.75-52.5-22.5C308.75 415 300 396.25 300 375s8.75-40 22.5-52.5C336.25 308.75 355 300 375 300c21.25 0 40 8.75 52.5 22.5C441.25 336.25 450 355 450 375c0 16.25-5 31.25-13.75 43.75l-52.5-52.5-17.5 17.5z" style="fill:#a8e10c"/></svg>